<?xml version="1.0" standalone="no"?>
<!DOCTYPE svg PUBLIC "-//W3C//DTD SVG 1.1//EN" "http://www.w3.org/Graphics/SVG/1.1/DTD/svg11.dtd" >
<svg>
<metadata>
Created by FontForge 20120731 at Tue Dec  8 03:15:35 2015
 By root
(c) 2014 Youssef Habchi
</metadata>
<defs>
<font id="BrotherhoodScript" horiz-adv-x="647" >
  <font-face 
    font-family="Brotherhood Script"
    font-weight="400"
    font-stretch="normal"
    units-per-em="1000"
    panose-1="2 0 5 6 0 0 0 2 0 4"
    ascent="750"
    descent="-250"
    x-height="197.5"
    cap-height="805"
    bbox="-1087 -459.5 1646.32 908.4"
    underline-thickness="50"
    underline-position="-50"
    unicode-range="U+0020-2044"
  />
<missing-glyph horiz-adv-x="324" 
 />
    <glyph glyph-name=".notdef" horiz-adv-x="324" 
 />
    <glyph glyph-name="B" unicode="B" horiz-adv-x="1019" 
d="M1135 240q-8 2 -27 5.5t-39 6.5q-24 4 -51 8q-3 -16 -9 -34t-13.5 -35.5t-16.5 -33.5t-17 -28q-32 -48 -73 -88.5t-87 -73.5q-44 -30 -93 -55t-102 -33q-33 -6 -57.5 2t-38.5 26.5t-17 45.5t8 59q21 64 57 108.5t82 73.5t99 45t106 25q35 5 71 7.5t71 -1.5q5 22 5 46.5
t-6.5 47.5t-19.5 43.5t-35 35.5q-7 5 -20.5 12.5t-29.5 14.5t-30.5 11t-23.5 1q-23 -10 -51.5 -21t-57.5 -21t-55 -17t-43 -9q-27 -51 -50 -95q-20 -38 -38.5 -73t-26.5 -49q-29 -51 -61.5 -99.5t-69.5 -93.5q-35 -44 -78.5 -83t-96.5 -59q-20 -8 -41.5 -12.5t-43 -3.5
t-41.5 8.5t-36 23.5q-20 20 -28.5 46t-9.5 53.5t5 54.5t16 51q21 54 57 99t81 79q25 19 62 38.5t78 34.5t81.5 24t73.5 7q21 -2 24 -10t-4 -17t-20 -17t-24 -11q4 2 8 7t6 10.5t1 10.5t-8 8q-11 4 -23.5 3.5t-23.5 -1.5q-8 -1 -23 -3.5t-34.5 -7t-41.5 -12t-43 -18.5
q-51 -25 -96.5 -62t-75.5 -85q-14 -23 -25 -50t-17 -55.5t-6 -57.5t9 -57q7 -23 22 -39t34.5 -25.5t42.5 -11.5t46 3q28 6 52.5 19t46 31t40.5 39.5t36 43.5q36 47 65 97.5t56 102.5q27 53 53.5 105t54.5 105q-5 0 -16 -2t-22.5 -3t-21.5 1t-12 8q-4 12 10 22.5t34 19.5
t39 15t25 8q36 65 75.5 128t92.5 121q-39 11 -76 11q-26 0 -50.5 -0.5t-49.5 -5.5q-21 -4 -46.5 -11.5t-51 -18t-49 -24.5t-41.5 -30q-48 -43 -59 -78t5.5 -54t55.5 -18.5t92 28.5q6 3 13 9.5t9.5 13t-1.5 12t-20 5.5q4 2 12.5 4.5t17 3t15.5 -2t9 -10.5q1 -8 -7.5 -17
t-20.5 -17t-24.5 -14.5t-19.5 -9.5q-5 -2 -23 -8t-40 -8t-44 3t-34 26q-7 12 -7 25t4.5 26t12 25t15.5 22q26 34 65 59t81 42t82 26t68 11q61 5 122 -7q12 11 23 21q9 8 18 16.5t14 12.5q4 4 16.5 12t24.5 12.5t19 1t2 -24.5q-6 -21 -24 -38q4 4 4.5 10.5t-1.5 12.5
t-7.5 9.5t-13.5 0.5q-20 -7 -35.5 -20.5t-31.5 -27.5q25 -7 49 -15.5t46 -22.5q20 -13 37 -30.5t22 -41.5q6 -25 -5 -47.5t-28 -39.5t-38 -30t-44 -24q39 -6 76 -22.5t62 -48.5q26 -33 31.5 -74t-1.5 -81q25 -5 52 -11t45.5 -11t25.5 -7t-8 2zM791 718q-42 -55 -74.5 -114
t-64.5 -119q40 8 81 11t83 1q16 6 35 16t36.5 23.5t31.5 29.5t20 35q4 14 1 26.5t-10.5 23t-18 19.5t-20.5 16q-21 14 -44.5 24.5t-48.5 15.5q-1 -2 -3 -4zM533 434q-17 -14 -12 -19t19 -5t29.5 3t19.5 3q7 13 14 26.5t15 27.5q-22 -6 -44.5 -14t-40.5 -22zM621 421
q45 11 89.5 27t85.5 39q-17 2 -36.5 1.5t-39 -2t-38 -4t-33.5 -4.5l-2 -4l-3.5 -7t-7.5 -15.5t-15 -30.5zM878 59q38 45 64 96t45 107q-55 4 -111.5 -2t-109.5 -23.5t-101 -46t-85 -70.5q-15 -17 -30.5 -39.5t-26 -47.5t-15 -51t1.5 -51q8 -29 31.5 -38.5t52 -7.5t57.5 12
t47 20q51 26 96.5 62.5t83.5 79.5z" />
    <glyph glyph-name="C" unicode="C" horiz-adv-x="669" 
d="M678 -208q100 35 188.5 90t168.5 124q-67 -67 -154.5 -124t-184.5 -96q-51 -20 -103.5 -34t-107.5 -16q-54 -2 -107.5 12t-95.5 52q-17 15 -28.5 32.5t-21.5 37.5q-29 -7 -61.5 -10.5t-65.5 5.5q-27 7 -47 23t-33 38t-19 48t-6 54q-1 42 8 84.5t23 83.5q17 50 43 96
t57 90q-28 10 -49.5 29.5t-32.5 47.5q-13 37 -4 72.5t32 66.5t55 56t66 40q21 10 50.5 19t58 15t52.5 7t34 -6q13 -9 10 -18t-13.5 -16.5t-23 -13t-18.5 -6.5q2 0 7 3.5t9.5 8.5t7 10t-1.5 9q-11 11 -41.5 12t-68.5 -9t-78 -32t-69 -57q-16 -19 -28.5 -40.5t-17.5 -44.5
q-10 -42 10 -81t63 -58l8 10q3 4 6 7.5t5 5.5q63 79 141 144.5t167 113.5q19 10 44.5 22.5t53.5 21.5t56 12.5t52 -3.5q31 -11 39 -31.5t2.5 -45t-21 -48.5t-30.5 -41q-18 -20 -38.5 -36.5t-43.5 -31.5q-42 -28 -92.5 -54.5t-106 -45.5t-113.5 -27t-113 3q-2 0 -22 -33
q-14 -22 -30 -53.5t-31 -68t-26.5 -75.5t-16.5 -77t-2.5 -72.5t17.5 -61.5q13 -26 34.5 -39.5t46.5 -19t52 -4t52 7.5q-20 48 -21 102.5t13 108.5t43 105.5t68 92.5t88 69t104 36q46 7 78.5 -3.5t50 -35t18.5 -60.5t-16 -80q-32 -71 -85 -129t-123 -108q-45 -31 -92.5 -56
t-98.5 -41q29 -57 85 -86t122 -33q55 -3 109 7t105 27zM506 689q-104 -49 -189 -129t-153 -174q60 -15 119 -6.5t119 34.5q71 32 140.5 78t121.5 107q19 25 28 49t3.5 42t-26 27.5t-59.5 5.5q-27 -3 -53 -12.5t-51 -21.5zM270 176q-13 -30 -22.5 -63.5t-13.5 -69t-1.5 -71
t13.5 -68.5q2 -6 4 -11t5 -11q17 5 33 11.5t34 14.5q49 23 105 62.5t104.5 90.5t81.5 110.5t35 121.5q2 27 -11 48.5t-39 32.5q-24 10 -50.5 10.5t-52.5 -6t-50 -18t-45 -25.5q-44 -29 -77 -70t-53 -89z" />
    <glyph glyph-name="D" unicode="D" horiz-adv-x="971" 
d="M948 626q40 -44 57.5 -95t16 -104.5t-18.5 -108.5t-45 -105.5t-64.5 -95t-77.5 -78.5q-81 -68 -180 -104.5t-205 -40.5q-35 -2 -69 1t-62 8q-33 5 -62 12q-23 -18 -52 -33t-60.5 -23t-62.5 -9.5t-57 7.5q-11 4 -19.5 13.5t-6.5 22.5q1 13 9.5 21.5t20.5 14t26 7.5t27 4
q48 5 95 -1t82 -14q48 38 86.5 83.5t70.5 96.5t58.5 106t51.5 112q-77 -35 -164 -41q-24 -2 -51 1t-51 12.5t-42.5 26.5t-27.5 44q-7 22 -4.5 46.5t11.5 48.5t22.5 45.5t27.5 39.5q33 42 77 73t92 52q82 37 173 53.5t190 -0.5q17 17 40.5 34t47.5 27q5 2 13 4t13 -4
q5 -7 4 -15.5t-5.5 -16.5t-11 -15.5t-12.5 -11.5q4 3 7 10t2.5 13t-5.5 10t-15 1q-18 -5 -34.5 -15.5t-31.5 -22.5q50 -12 95.5 -35t80.5 -61zM281 308q55 -13 115 -4t114 29l16 32q21 45 45 92t52.5 92.5t60.5 88.5t69 79q-20 4 -46.5 6t-58.5 1t-67.5 -6.5t-72.5 -15.5
q-50 -14 -98.5 -35t-90.5 -51.5t-75 -70t-52 -90.5q-10 -27 -7.5 -51t15 -43t33.5 -32.5t48 -20.5zM0 -107q5 -15 21 -21.5t38 -6.5t47.5 4.5t49.5 12.5t44 17.5t31 18.5q-10 2 -19.5 3.5t-20.5 3.5q-37 6 -80 9.5t-81 -10.5q-5 -2 -10.5 -4.5t-10.5 -6.5t-8 -9t-1 -11z
M940 239q22 43 37 94.5t16.5 104t-14 102.5t-53.5 90q-32 35 -73 55t-89 31q-36 -31 -66.5 -76t-56.5 -95t-48.5 -101t-43.5 -95q1 0 22 8.5t45.5 22t45 30t20.5 32.5q0 9 -11.5 12.5t-19.5 1.5q6 5 17 9t21.5 5t18.5 -2t8 -12q0 -13 -13 -26t-32 -26t-41 -24.5t-41 -20
t-32 -14.5t-13 -7q-25 -57 -54 -113.5t-64.5 -109t-79 -101.5t-96.5 -91q46 -8 92.5 -13t103.5 0q105 9 200 52.5t172 115.5q37 35 68 75.5t54 85.5z" />
    <glyph glyph-name="E" unicode="E" 
d="M511 -167q50 3 98 18.5t93 38.5t87.5 50.5t80.5 56.5q-37 -32 -77 -60.5t-83.5 -51.5t-89.5 -39t-95 -23q-64 -8 -124.5 4.5t-105.5 57.5q-28 -10 -64.5 -19t-74 -9.5t-71.5 11t-56 42.5q-17 22 -23 48t-6 52q0 48 15 95.5t39 91.5q26 47 62 87t78 73t89 58.5t97 45.5
q-8 5 -15.5 13t-10.5 19h-6q-24 -2 -57 2t-61.5 16.5t-47 35t-15.5 58.5q4 36 25 64.5t51 50t66 35.5t69 21q32 7 50 6t24 -5q8 -5 6.5 -11.5t-8.5 -12t-16 -9t-15 -3.5q5 0 10.5 8t4.5 13q-2 11 -20.5 12t-42 -4.5t-47 -13.5t-36.5 -15q-23 -11 -43 -27.5t-34 -37.5
q-15 -23 -21.5 -45.5t-2.5 -43t18.5 -37.5t43.5 -29q24 -10 49.5 -14t51.5 -4q-5 20 -0.5 40.5t12.5 38.5q10 20 23.5 36t30.5 30q26 22 61.5 45t75 40.5t80.5 26.5t77 4q29 -4 40 -24.5t1 -49.5q-8 -24 -26 -44t-38 -36q-64 -51 -138.5 -80.5t-170.5 -34.5q1 -2 4.5 -6.5
t7.5 -8.5t8.5 -7t7.5 -2q17 7 34.5 12t35.5 11q29 8 59.5 13.5t60.5 6.5h10t14 -1t12.5 -3.5t5.5 -8.5q0 -15 -17.5 -26t-40.5 -18.5t-46 -11.5t-34 -5q-26 -2 -54 0t-52 13l-3 1.5t-3 -0.5q-23 -8 -44.5 -20.5t-43.5 -26.5q-45 -27 -85 -61.5t-73 -75t-58 -87t-38 -98.5
q-6 -23 -10 -49t-2 -51.5t11.5 -48t31.5 -38.5q22 -17 48 -23t54 -5.5t56.5 7t54.5 14.5q-28 30 -40.5 68.5t-12.5 79.5q0 51 15 100t42 92t65 77.5t85 54.5q22 10 49 17t53.5 7.5t50.5 -8.5t41 -31q15 -19 18.5 -41.5t0 -46t-12 -47t-17.5 -44.5q-23 -48 -56 -88t-72 -74
q-41 -35 -86.5 -63.5t-94.5 -49.5q38 -38 89.5 -51.5t103.5 -9.5zM497 691q-18 -12 -42 -33t-43.5 -46.5t-31 -53.5t-5.5 -55q74 0 145.5 31t133.5 79q20 16 39.5 33.5t33.5 39.5q14 23 11 45t-37 27q-26 4 -52.5 -0.5t-53 -14.5t-51.5 -23.5t-47 -28.5zM606 510
q-47 0 -93.5 -13t-97.5 -31q17 -10 38.5 -13.5t44 -3t44.5 5t41 10.5q6 2 19.5 8.5t22 14t6.5 14t-25 8.5zM313 -101q53 19 103.5 54.5t93 83t73 103t42.5 114.5q5 22 2.5 44.5t-16.5 40.5q-17 20 -42.5 28t-50.5 7q-51 -2 -97 -29t-79 -65q-33 -39 -52 -85.5t-26 -97.5
t3 -104.5t46 -93.5z" />
    <glyph glyph-name="F" unicode="F" horiz-adv-x="547" 
d="M1124 671q56 10 107 29.5t101 61.5q-27 -27 -59 -46q-43 -25 -91 -39t-98 -21q-41 -5 -80.5 -4t-79.5 7t-80 15t-81 19q-2 0 -11 -10.5t-19 -25t-19 -28t-12 -17.5q-29 -46 -55 -94t-50 -97q20 6 40 13.5t40 15.5q2 1 2.5 4t0.5 5q2 8 3.5 15t5.5 15q11 27 32.5 50.5
t47.5 37.5q7 4 16.5 7.5t19 4.5t18.5 -1.5t15 -10.5q8 -10 6 -22t-8 -21q-25 -35 -65 -54t-80 -35q-2 -1 -5 -2t-3 -3q0 -18 5.5 -35t19.5 -31q17 -17 38.5 -24t44.5 -9q-20 -1 -40 4t-37 18q-17 14 -26 34.5t-9 42.5q-20 -8 -40.5 -14t-41.5 -11q-5 -2 -5 -3
q-4 -9 -8.5 -18l-7.5 -15q-19 -38 -42.5 -85.5t-52 -98.5t-61.5 -102t-69.5 -95.5t-77.5 -78.5t-85 -51q-18 -7 -38.5 -11t-41 -3.5t-39 8t-33.5 22.5q-19 19 -27 43t-9 50t5 51.5t15 48.5q20 50 53.5 92t76.5 74q24 18 58.5 36t72.5 32.5t76.5 23t69.5 6.5q20 -2 23.5 -9
t-3 -15.5t-19 -16t-24.5 -10.5q1 0 5.5 4t7.5 9.5t2.5 11t-8.5 8.5q-11 4 -22 4t-22 -2q-7 -1 -23 -4.5t-37 -9.5t-45.5 -15t-48.5 -21q-48 -23 -88 -61t-65 -85q-12 -22 -20.5 -48t-11.5 -53.5t0 -55t15 -51.5q10 -20 27 -30.5t36.5 -14.5t41 -1.5t42.5 8.5q49 16 88.5 51
t71.5 80t59 95.5t51 98.5q26 50 51.5 99t51.5 99q-45 -10 -91 -16.5t-92 -5.5q-41 0 -82 10t-68 32t-33.5 56.5t21.5 83.5q19 31 47 55t61 42t69.5 29.5t72.5 19.5q67 14 137 17.5t139 -11.5l27 -6q16 16 34 31t40 32q9 7 19 10.5t16.5 1.5t9.5 -9.5t-1 -21.5
q-7 -19 -25 -32q2 1 3.5 8.5t1.5 12.5q0 15 -12 13.5t-28 -10t-30.5 -20.5t-20.5 -18q46 -12 88 -22t83 -16t84 -7t91 6zM756 560q-26 -17 -46.5 -45.5t-26.5 -61.5q11 5 34.5 17.5t47.5 28.5t42 33.5t18 32.5q0 11 -11.5 13t-18.5 0q-11 -2 -20.5 -7t-18.5 -11zM567 414
q38 73 82 145.5t104 135.5q-52 11 -103.5 14t-104.5 0q-53 -4 -105 -14t-100 -33q-24 -11 -47 -26t-41 -35q-10 -12 -19.5 -27.5t-15 -33t-6.5 -35.5t7 -35q19 -33 60.5 -49.5t90 -21t97.5 -0.5t84 11q2 0 10 2q4 1 7 2z" />
    <glyph glyph-name="G" unicode="G" horiz-adv-x="626" 
d="M1005 -22q-20 -22 -47 -41.5t-57.5 -33t-63.5 -20t-66 -3.5q-27 2 -52.5 10t-50 19.5t-48.5 25.5t-49 28q-3 1 -18.5 9t-34 16t-33.5 13t-16 1q-11 -20 -20.5 -42t-20.5 -45q-22 -44 -54 -101.5t-72.5 -112t-88 -98t-101.5 -59.5q-25 -7 -49 0t-40 27q-17 20 -23.5 46
t-4.5 53t10 53.5t20 48.5q24 48 61.5 88.5t82.5 69.5t96.5 50t105.5 32q39 9 80 4q12 31 25 62.5t29 68.5q-35 -25 -71.5 -46.5t-75.5 -38.5q-47 -20 -89.5 -23.5t-75 11.5t-52 51t-19.5 96q-1 54 17.5 105t43.5 97q-26 6 -46.5 29.5t-28.5 49.5q-6 22 -2 46.5t14.5 48
t26.5 44.5t34 37q30 27 59 43t54 23t43.5 8t27.5 -2q8 -3 9.5 -9.5t-2.5 -13.5q-6 -11 -17 -17.5t-22 -10.5q2 1 5.5 6t6.5 10t3 10t-4 8q-9 5 -21.5 5t-24.5 -2t-21 -5t-10 -4q-38 -14 -74 -44t-57 -70q-11 -21 -15 -47t1 -50q7 -26 24 -45t40 -31q5 -3 6 -1q2 2 5 7t5 9
q18 31 45 66q17 21 34 41.5t36 39.5q55 57 120 103.5t146 70.5q24 7 50.5 10t50.5 -5q26 -10 31 -35t-2 -49q-11 -35 -32 -66t-49 -57.5t-60 -49t-64 -40.5q-48 -27 -99.5 -46.5t-105.5 -26.5q-23 -2 -46.5 -2t-48.5 6q-3 1 -4 -2.5t-3 -6.5q-12 -25 -22 -51t-17 -53
q-6 -20 -9 -43t-2.5 -47t5.5 -47.5t16 -44.5q20 -38 56 -45.5t76.5 3t80.5 31.5t69 40l22 16t22 17q2 2 6 5.5t7 6.5q4 4 7 8q5 13 15.5 40t24 59t29.5 66.5t32 62.5q3 5 11 17.5t18 23.5t21 18t20 2q11 -6 13 -19.5t2 -24.5q-1 -13 -3 -26t-7 -25q-8 -25 -21.5 -48
t-29.5 -45q-16 -20 -33 -39.5t-36 -36.5q-3 -3 -9.5 -8.5l-13 -11t-11.5 -10l-5 -4.5q-13 -39 -29 -78t-33 -79q45 -7 86 -26t80 -40q24 -13 47.5 -24.5t48.5 -20t51 -11.5t55 2q47 8 87.5 32.5t76.5 53.5zM588 748q-58 -16 -113.5 -51t-104 -82t-89 -101.5t-68.5 -108.5
q43 -13 87 -10t86.5 17t81.5 36.5t73 48.5q42 32 79 70t63 85q19 34 19 56.5t-14 34.5t-40.5 13t-59.5 -8zM609 373q-20 -42 -34 -85.5t-29 -88.5q22 21 42 43.5t37 47.5q16 23 29 46.5t23 48.5q5 13 9 26t6 27q0 5 -0.5 11.5t-5.5 10.5q-5 5 -13 1t-15.5 -11.5t-13.5 -15.5
l-9 -12q-8 -12 -14 -24t-12 -25zM341 -215q30 54 55 110t51 113q-41 5 -82 -3q-51 -11 -100.5 -31.5t-93 -51.5t-77.5 -71.5t-53 -90.5q-6 -18 -12 -45t-6 -55.5t8 -54t29 -39.5q18 -11 39 -10t41.5 9.5t39 22t32.5 26.5q40 36 71.5 80t57.5 91z" />
    <glyph glyph-name="H" unicode="H" horiz-adv-x="653" 
d="M609 -117q30 -32 73 -40t89.5 -0.5t94 25t87.5 38t69 38.5t40 25q-83 -60 -177 -101q-48 -21 -102 -33.5t-108 -0.5q-60 14 -91.5 52t-42.5 89.5t-5 112t21.5 119t38 110.5t44.5 86q-30 -6 -60 -10t-62 -11q-26 -48 -49.5 -95.5t-50.5 -98.5q-38 -69 -81 -140t-108 -131
q-17 -15 -39 -29t-46 -21.5t-49 -6.5t-47 16q-35 23 -43.5 59.5t-1 76.5t27 78.5t41.5 64.5q57 70 135.5 120t172.5 80q25 8 50 14.5t51 11.5q2 1 2.5 1t1.5 2q43 87 95 168t118 160q-39 -9 -82 -18t-85.5 -23t-81.5 -34t-70 -51q-17 -17 -33.5 -41.5t-13.5 -49.5
q3 -24 21.5 -30.5t41.5 -3.5t43.5 11.5t27.5 13.5q8 6 14.5 14t7.5 14.5t-5 10t-22 0.5q9 4 18.5 6t16.5 1t10 -5.5t-2 -13.5q-3 -5 -15.5 -15.5t-31.5 -20.5t-43 -16.5t-48 -3.5q-9 1 -18 4.5t-15 11.5q-9 14 -8 31.5t8.5 35t19 34t23.5 29.5q35 37 79.5 57.5t98.5 36.5
q26 8 53 14.5t53 12.5q14 3 27.5 6t27.5 6q5 2 7 5q30 36 68 68q4 3 17 11.5t26 14t21.5 2.5t3.5 -22q-6 -22 -23 -38t-38.5 -28t-45 -20.5t-43.5 -14.5q-55 -83 -99.5 -160t-88.5 -165q30 6 61.5 10t62.5 11q13 27 33.5 58.5t45 64t50 62.5t48.5 54q15 15 34 34.5
t41.5 38.5t47 33.5t49.5 19.5q12 2 23 -2t14 -18q3 -16 -2 -33.5t-14.5 -35t-21 -33.5t-21.5 -30q-26 -35 -57.5 -67t-66.5 -58q-40 -29 -83 -51t-94 -36q-4 -2 -5 -3.5t-3 -6.5q-16 -32 -34 -73.5t-34 -88.5t-27 -96t-11.5 -96t11.5 -89.5t42 -74.5zM824 643
q-45 -48 -83 -105.5t-71 -120.5q67 19 122 56q56 38 99 90t82 109q2 4 10.5 17.5t16 28.5t10 27t-7.5 13q-21 3 -46 -9t-49.5 -30.5t-46 -39.5t-36.5 -36zM796 808q-9 -6 -19 -15.5t-20 -19.5t-18 -18.5t-12 -14.5q14 4 34 10.5t39.5 16.5t34.5 23t19 30q3 12 -4.5 13
t-18 -4t-21 -11.5t-14.5 -9.5zM373 145q29 57 55.5 114t52.5 116q-65 -13 -132.5 -37.5t-127.5 -63t-107.5 -92.5t-72.5 -125q-7 -21 -11.5 -48.5t-1 -53t16.5 -46t40 -29.5q32 -10 62.5 -1t58.5 30t53 51.5t46 63.5t38 65t30 56z" />
    <glyph glyph-name="I" unicode="I" horiz-adv-x="494" 
d="M848 796q16 9 27 9t16 -6t2.5 -16.5t-12.5 -23.5q-15 -16 -30.5 -27.5t-33.5 -21t-39 -17.5t-48 -16q-1 -2 -4.5 -6.5t-8 -10.5t-8.5 -11.5t-6 -8.5q-32 -45 -59 -92t-52 -96q-39 -78 -76.5 -156t-82.5 -153q-14 -24 -32 -54t-40 -61.5t-47.5 -61.5t-54 -54t-60 -39.5
t-65.5 -16.5q-22 -1 -43 4.5t-38 19.5q-30 25 -42 62t-10.5 77.5t15 81t33.5 73.5q28 44 68 78.5t88 55.5q36 16 77 25t84 11q4 0 14.5 0.5t22 -1.5t19.5 -6t6 -13q-3 -15 -20.5 -22t-30.5 -9q4 1 8.5 5.5t6.5 9.5t1.5 10.5t-6.5 8.5q-11 5 -22.5 5.5t-22.5 0.5
q-14 -1 -35 -3t-61 -13q-27 -9 -52 -21.5t-47 -30.5q-28 -23 -51 -54t-39 -67.5t-24 -76.5t-6 -80q3 -48 22.5 -77t49 -39t66.5 -1.5t75 36.5q43 32 75 75.5t58 90.5q47 82 85 167t83 168q40 72 85.5 139t97.5 130q-29 -7 -62.5 -14t-71.5 -18q-51 -14 -103 -35.5t-92 -61.5
q-17 -17 -33.5 -41t-13.5 -50q2 -24 20.5 -30.5t41.5 -3t44 11.5t28 13q7 4 13 11.5t7.5 14.5t-4.5 11t-22 3q8 4 17.5 6t17 0.5t11 -6t-1.5 -13.5q-4 -6 -17 -16.5t-31.5 -20.5t-42 -16t-47.5 -3q-23 2 -33.5 18t-6.5 39q4 25 17.5 47.5t31.5 42t40 34.5t45 26
q64 29 133 44.5t137 32.5q7 9 18.5 21.5t25 25.5t28.5 25.5t30 21.5zM855 752q7 6 15.5 16.5t11.5 19.5t-2 12.5t-25 -5.5q-28 -15 -52.5 -39t-48.5 -52q26 8 51 19t50 29z" />
    <glyph glyph-name="J" unicode="J" horiz-adv-x="509" 
d="M884 803q6 -11 1 -23.5t-16.5 -25t-28 -24t-33.5 -21.5t-35.5 -15.5t-44.5 -12.5q-26 -33 -49 -67.5t-44 -71.5q-14 -25 -26.5 -47.5t-23.5 -45t-22.5 -45.5t-23.5 -49q4 0 28 -3t54 -2t59.5 9t45.5 29q-16 -22 -34.5 -33.5t-41.5 -15.5t-51 -1.5t-64 8.5
q-16 -32 -32 -63q-14 -26 -28 -54t-24 -45q-26 -48 -55.5 -94.5t-62.5 -91.5q-19 -25 -45 -54.5t-57.5 -53t-67 -36t-72.5 -2.5q-26 6 -44 24t-29 42q-22 50 -16.5 106t31.5 103q34 63 81 104.5t98.5 67.5t102.5 38.5t93 17t69.5 4t31.5 -1.5q37 73 80.5 142.5t96.5 137.5
q8 11 16.5 21t17.5 21q-64 -14 -128.5 -30t-126.5 -46q-18 -9 -40.5 -24t-43 -34.5t-33.5 -42t-11 -46.5q3 -24 21.5 -30.5t41.5 -3.5t44 11.5t27 13.5t12 11t7 14q0 11 -11 13.5t-13 1.5q6 4 14.5 6t16 1t12 -5.5t1.5 -13.5q-2 -6 -14.5 -16.5t-32 -20.5t-43.5 -16.5
t-48 -3.5q-10 1 -19 4.5t-15 11.5q-11 17 -8 38.5t15 43t28.5 40.5t32.5 31q23 20 50 33.5t56 24.5q43 16 86.5 26.5t88.5 20.5q14 3 27 6t27 7q17 20 39.5 42.5t42.5 36.5l12 9t17.5 10.5t18 5.5t14.5 -6zM271 -64q41 43 72.5 93.5t58.5 104t51.5 108t50.5 107.5
q-7 1 -28 1.5t-51.5 -2t-68 -9.5t-77.5 -21.5t-79.5 -38.5t-73.5 -59q-36 -38 -61 -86.5t-35 -100.5q-8 -40 -2.5 -78t25 -63.5t53 -33t81.5 14.5q24 11 45 27.5t39 35.5zM855 758q8 7 18 17.5t8 22.5q-1 6 -6.5 6.5t-12.5 -1.5t-13.5 -6t-8.5 -5q-23 -14 -42.5 -33
t-37.5 -39q-3 -3 -5.5 -6t-5.5 -7q8 2 15 4.5t15 5.5q20 8 39.5 17.5t36.5 23.5z" />
    <glyph glyph-name="K" unicode="K" horiz-adv-x="759" 
d="M1027 -131q45 28 83.5 64t73.5 77q-4 -5 -8 -11t-9 -11q-32 -38 -69 -72t-81 -59q-45 -26 -97.5 -35.5t-103.5 10.5q-38 14 -69 42t-49 64q-24 50 -24 105.5t10 108.5q5 26 12.5 52t15 53t12.5 54t5 54q0 56 -56 70q-20 4 -40.5 3t-43.5 -1q-4 0 -6 -3
q-37 -73 -72.5 -146.5t-77.5 -144.5q-14 -24 -32 -54t-40 -61.5t-47.5 -61.5t-54 -54t-60 -39.5t-65.5 -16.5q-22 -1 -43 4.5t-38 19.5q-21 17 -32.5 41.5t-16.5 50.5q-10 53 3.5 105t41.5 97q28 44 68 78.5t88 55.5q36 16 77 25t84 11q4 0 14.5 0.5t22 -1.5t19.5 -6t6 -13
q-3 -15 -20.5 -22t-30.5 -9q4 1 9 5t8 8.5t1.5 10t-8.5 10.5q-10 6 -22 6h-23q-51 -3 -102 -18t-93 -50q-40 -33 -66.5 -77.5t-40.5 -93.5q-7 -26 -11 -53t-2 -54q3 -48 22.5 -77t49 -39t66.5 -1.5t75 36.5q53 40 94.5 101t76.5 130t66 139.5t64 130.5q40 72 85.5 139
t97.5 130q-41 -13 -85 -22t-87 -22t-83 -32.5t-74 -52.5q-17 -17 -33.5 -41t-13.5 -50q2 -24 21 -30.5t41.5 -3.5t43.5 11.5t28 13.5l11 11t7 14q0 5 -3.5 8t-8.5 5t-12 2q7 4 16.5 6t17 1t11 -6t-0.5 -14q-3 -6 -16 -16.5t-32 -20t-42.5 -16t-47.5 -3.5q-23 2 -33.5 18
t-6.5 39q4 25 17.5 47.5t31.5 42t40 34.5t45 26q32 15 65.5 25t67.5 18.5t68.5 16.5t68.5 17q23 28 48 51.5t54 42.5q14 9 25.5 10.5t15.5 -9.5q3 -9 -0.5 -18t-9.5 -18t-13.5 -17t-14.5 -13q-26 -20 -54.5 -31t-66.5 -23q0 -1 -4 -6t-8.5 -11t-8.5 -11.5t-6 -8.5
q-32 -45 -59 -92t-52 -96q-2 -3 -2.5 -5.5t-2.5 -5.5q63 -2 112 40q27 23 48 51t43 56q32 40 70 72.5t88 49.5q24 8 48.5 14.5t50.5 8.5q7 1 25.5 2.5t38.5 1.5t37.5 -2t21.5 -9t-6.5 -14.5t-30.5 -5.5q8 2 11.5 9t-2.5 12q-8 5 -28 6.5t-67 -3.5q-47 -6 -91 -28
q-47 -23 -85.5 -56.5t-73.5 -71.5q-19 -20 -37.5 -40.5t-38.5 -39.5q-18 -17 -39 -30.5t-45 -20.5q20 2 41.5 -0.5t38.5 -15.5q18 -14 24 -36t6 -44q0 -45 -11 -89.5t-21 -89.5q-6 -26 -11 -54t-7 -55.5t0.5 -55.5t12.5 -54q15 -38 46 -68.5t71 -44.5q51 -18 103 -5.5
t97 38.5zM820 770q-18 -14 -34.5 -31t-31.5 -35q25 8 51 19t50 29q6 5 17 17t12 20q1 13 -9 12t-20 -6t-18.5 -11.5t-16.5 -13.5z" />
    <glyph glyph-name="L" unicode="L" horiz-adv-x="541" 
d="M1144 -22q-44 -58 -114 -101.5t-145 -63.5q-51 -15 -104 -15.5t-106 19.5q-52 19 -96.5 50.5t-86.5 67.5l-98 84t-109 73q-11 -14 -19.5 -28t-19.5 -28q-15 -20 -30.5 -39.5t-33.5 -37.5t-38.5 -33t-44.5 -25q-34 -13 -56.5 -7t-33 24t-8.5 44.5t18 53.5q12 21 29 39
t38 31.5t44.5 22.5t48.5 11q27 2 53 -4t50 -17q31 48 58 96.5t53 98.5q-24 -13 -55.5 -26.5t-66 -22.5t-68.5 -11t-63 8q-25 8 -42.5 26t-23.5 44q-9 38 1 75t32 70t53 61t65 47q23 13 47.5 23t50.5 16q18 5 37 7.5t40 2.5q55 1 84.5 -11.5t37.5 -21.5q7 -7 4.5 -14.5
t-10.5 -10.5q-11 -5 -22.5 -6t-27.5 0q5 1 10.5 4t10.5 6q13 8 5 20q-12 17 -34.5 22t-42.5 7q-45 3 -98 -11t-99.5 -42.5t-81.5 -70t-44 -91.5q-5 -25 -3.5 -52.5t18.5 -48.5q21 -29 57 -37t76 -3.5t79 17.5t67 26q8 4 11 6q29 51 58.5 102t61.5 100q32 47 66.5 91t73.5 84
q25 26 58 51.5t73 30.5q28 4 42 -12.5t6 -45.5q-11 -38 -35.5 -71t-51.5 -63q-37 -41 -77.5 -77t-83.5 -71q-22 -17 -44 -33.5t-45 -31.5q-5 -4 -16.5 -11.5t-23.5 -15t-21.5 -13.5l-9.5 -6q-6 -8 -8.5 -12.5t-6.5 -10.5q-31 -48 -62 -95.5t-63 -95.5q32 -15 60 -35t55 -41
q43 -33 86.5 -68t90.5 -63.5t97.5 -47t107.5 -20.5q51 -3 102.5 7t101.5 35q43 20 83 49t72 66zM602 598q-45 -66 -85.5 -135.5t-82.5 -141.5q48 28 92 63t84 73q39 37 76 77t70 83q7 10 18.5 24t21.5 30t16.5 32t4.5 30q-1 9 -9 13t-18.5 4t-21 -2t-16.5 -4
q-25 -8 -45.5 -25t-38.5 -36q-18 -20 -35 -41t-31 -44zM202 -7q22 23 41 49t36 52q-34 15 -69.5 17.5t-70.5 -13.5q-40 -17 -73.5 -52t-41.5 -80q-4 -29 10.5 -43t44.5 -8q36 8 66.5 29t56.5 49z" />
    <glyph glyph-name="M" unicode="M" horiz-adv-x="796" 
d="M791 -159q49 -39 107.5 -41t120 21t123 66.5t117.5 94.5q-35 -34 -73.5 -65.5t-80.5 -57.5q-41 -26 -87 -45t-95 -21q-53 -3 -100 18.5t-80 68.5q-31 44 -46 95.5t-20 103.5q-8 111 26.5 218.5t98.5 197.5q-10 -11 -19.5 -21.5t-18.5 -21.5q-46 -55 -85 -115t-73 -123
t-64 -129t-59 -133q0 1 -3.5 2t-3.5 2q4 14 7.5 26.5t7.5 26.5q14 50 25 99t20 100q7 36 13.5 72t14.5 71q12 54 27.5 107.5t39.5 103.5q-50 -80 -91.5 -165.5t-91.5 -180.5q-26 -49 -53 -96.5t-59 -93.5q-20 -29 -46.5 -61t-58.5 -57.5t-69 -39t-79 -4.5q-26 6 -44 23.5
t-27 41.5q-19 49 -10.5 103t30.5 104q22 47 53.5 88.5t72.5 73.5q15 12 32.5 22.5t37.5 18.5q41 16 79 20.5t67 2.5q26 -2 38 -9.5t11.5 -16t-13.5 -16t-37 -9.5q4 0 9 3.5t8 8.5t2.5 10.5t-7.5 9.5q-14 8 -31 9t-35 0q-52 -2 -99 -23.5t-84 -57.5q-39 -38 -64 -86t-38 -101
q-6 -22 -10 -50t-2 -56.5t12.5 -53t35.5 -38.5q19 -12 41.5 -13t45 6t43.5 19t38 26q42 35 73.5 79.5t58.5 91.5q41 71 75.5 145t76.5 155q25 50 51.5 98.5t58.5 93.5q10 14 29.5 37.5t42.5 47t47.5 41t44.5 19.5q9 1 10.5 -3t-0.5 -10t-6.5 -12t-7.5 -8q6 9 5.5 13.5
t-5.5 5.5t-12 -1t-14 -5q-14 -7 -26 -16t-23 -20q-57 -57 -86 -134q-20 -52 -28.5 -107t-15.5 -110q-8 -57 -17 -112t-25 -109q17 35 33.5 69.5t34.5 69.5q26 49 54.5 97t60.5 93q63 87 146 158q82 70 180 119q22 11 46.5 21.5t49.5 15.5q7 2 15.5 2t7.5 -9q-1 -8 -8.5 -14
t-14.5 -8q3 0 5.5 7.5t-0.5 9.5q-9 7 -33.5 -1t-56 -25t-65 -41t-60.5 -48q-84 -73 -139.5 -168.5t-81.5 -203.5q-12 -48 -18 -103.5t0 -110.5t27 -105.5t63 -87.5z" />
    <glyph glyph-name="N" unicode="N" horiz-adv-x="653" 
d="M1417 664q4 -8 2.5 -14.5t-12.5 -9.5q-13 -3 -27 4t-23 15q6 -3 14 -3.5t14 2.5t8.5 9t-1.5 15q-5 9 -11.5 17.5t-14.5 16.5q-23 23 -52 37t-61.5 20t-66 3t-65.5 -13q-44 -15 -81.5 -40t-72.5 -54q-57 -50 -107 -107t-95 -118q-64 -88 -118.5 -180t-103.5 -189
q-15 -30 -29 -61t-31 -62q0 1 -3.5 2t-3.5 2q4 14 7.5 26.5t7.5 26.5q14 50 25 99t20 100q7 36 13.5 72t14.5 71q12 54 27.5 107.5t39.5 103.5q-50 -80 -91.5 -165.5t-91.5 -180.5q-26 -49 -53 -96.5t-59 -93.5q-20 -29 -46.5 -61t-58.5 -57.5t-69 -39t-79 -4.5
q-26 6 -44 23.5t-27 41.5q-19 49 -10.5 103t30.5 104q24 51 57.5 94t76.5 73.5t95 46t113 12.5q25 -2 37.5 -9.5t11.5 -16.5t-13.5 -16.5t-36.5 -8.5q4 0 9 3.5t7.5 8.5t2 10.5t-6.5 9.5q-14 8 -31 9t-35 0q-48 -2 -97 -23.5t-86 -57.5q-39 -38 -64 -86t-38 -101
q-6 -22 -10 -50t-2 -56.5t12.5 -53t35.5 -38.5q19 -12 41.5 -13t45 6t43.5 19t38 26q37 31 68 70.5t57 83t48.5 89.5t43.5 91q17 35 33.5 69t33.5 68q21 42 44 85.5t50 84.5t60.5 77.5t75.5 66.5q6 4 15.5 10t18.5 10t16 4t9 -8q1 -8 -6 -15t-13 -11q2 2 4 8t-3 10
q-6 4 -17 0t-22.5 -11.5t-21.5 -16.5t-15 -13q-57 -57 -86 -134q-20 -52 -28.5 -107t-15.5 -110q-16 -125 -51 -252q48 100 102 197t117 189q47 68 101 130.5t121 110.5q34 24 71.5 42.5t77.5 29t81.5 10.5t83.5 -15q25 -9 46 -21.5t36.5 -27t26.5 -28.5t17 -26z" />
    <glyph glyph-name="O" unicode="O" horiz-adv-x="631" 
d="M791 584q6 13 17.5 27t26.5 16q14 1 18 -7.5t2.5 -20.5t-6 -24.5t-6.5 -18.5q-22 -53 -54 -103q-26 -39 -57 -77t-74 -73q-4 -4 -12 -10q-4 -11 -7.5 -19.5t-8.5 -18.5q-35 -75 -83 -145t-114 -128q-28 -25 -62 -47.5t-72 -38.5t-78.5 -23t-82.5 1q-56 9 -90 54
q-33 42 -43 97t-4.5 114.5t22 118t37.5 106.5q21 51 49 100t61 94q34 45 75 82.5t88 67.5q33 20 71 37.5t78.5 26t81 5t78.5 -24.5q38 -22 65 -60q-35 45 -87 65t-112 11q-54 -8 -104.5 -31.5t-95 -58.5t-82 -79t-65.5 -91t-52 -98.5t-41.5 -107t-26.5 -112.5t-7 -114
q1 -27 5.5 -55t15 -52.5t29 -44t46.5 -29.5q24 -8 50.5 -9.5t53.5 3t53 13.5t50 22q49 27 89.5 65t74.5 83t62 93.5t49 101.5q-27 -19 -55.5 -35t-58.5 -27q-26 -10 -54 -15t-55.5 -3.5t-54.5 10.5t-50 29q-20 17 -33 40.5t-19 49.5q-11 56 4.5 112t43.5 104q27 48 64 88.5
t84 68.5q41 25 92 35t99 -9q27 -12 43.5 -33.5t25.5 -47.5t12 -54t2 -54q-2 -57 -16 -112t-35 -109q22 17 41 36.5t37 40.5q13 15 30.5 39t33.5 51t27 54.5t11 49.5q0 17 -13.5 20.5t-26.5 -12.5zM388 207q32 -4 65.5 2t64.5 18t57.5 27t43.5 30q2 7 4 12.5t4 10.5
q5 13 9 25.5t8 25.5q15 52 24 105q4 29 5.5 58t-0.5 58q-2 27 -8.5 54.5t-23.5 49.5q-16 20 -39 28.5t-48 8.5t-50 -7.5t-46 -17.5q-49 -24 -87.5 -63t-64.5 -86q-28 -48 -44.5 -104.5t-6.5 -112.5q9 -51 45.5 -82.5t87.5 -39.5z" />
    <glyph glyph-name="P" unicode="P" horiz-adv-x="570" 
d="M921 682q42 -22 60.5 -49t16 -55t-24.5 -55.5t-60 -51.5q-56 -34 -118 -57t-128 -39q-27 -7 -52.5 -11t-45.5 -8q-26 -55 -50 -101t-53 -94q-24 -40 -54.5 -86.5t-68 -89.5t-82 -76t-94.5 -46q-35 -10 -72.5 -5t-62.5 36q-18 21 -24.5 46.5t-5.5 52.5t8 53.5t17 49.5
q46 99 135 162q47 33 102.5 54t116.5 33q14 3 27.5 5t27.5 1q20 -2 22.5 -9.5t-4.5 -16.5t-20 -16.5t-23 -9.5q5 1 9 5.5t5.5 10t0 10t-7.5 7.5q-10 4 -21.5 4t-22.5 -2q-7 -1 -19.5 -3t-28.5 -5.5t-33.5 -8.5t-34.5 -12q-51 -20 -94 -52.5t-75 -76.5q-32 -42 -48 -93.5
t-11 -103.5q5 -45 31.5 -74t76.5 -29q55 2 100.5 30.5t80.5 67.5q36 42 64 88t54 94q26 50 50.5 98.5t50.5 97.5q-1 0 -6.5 -0.5t-12 -1.5t-11.5 -1h-5q0 1 5.5 2t12 2t12.5 2t7 1q2 4 4 7.5t4 7.5q25 48 50.5 95.5t54.5 93.5q26 42 51.5 78.5t61.5 70.5q-30 4 -61 3t-62 -5
q-54 -7 -106 -23.5t-100 -44.5q-23 -14 -41.5 -26.5t-37.5 -32.5q-9 -9 -18.5 -20.5t-17.5 -24.5t-12.5 -26.5t-4.5 -26.5q1 -32 19 -46.5t43.5 -17.5t52.5 2.5t47 13.5q17 7 37 18t37 24.5t27 28.5t7 29q-1 4 -7.5 6.5t-16.5 -0.5q9 6 23 10.5t25 -2.5q13 -8 5.5 -24.5
t-28.5 -35.5t-52 -37.5t-65.5 -29.5t-69 -11.5t-61.5 16.5q-23 14 -26.5 39.5t5.5 49.5q8 23 24 43.5t36 38.5t43 33.5t46 27.5q63 35 135 51t150 16q8 0 23 -1t17 -1q10 10 19.5 20t23.5 21q4 3 11 9t14.5 10.5t15 6t12.5 -4.5q5 -5 5 -11.5t-2 -11.5q-5 -20 -23 -35
q3 2 5 8.5t1 13t-5.5 11t-12.5 1.5q-16 -5 -30 -16.5t-27 -22.5q35 -5 68.5 -14t64.5 -26zM910 494q29 19 45.5 40.5t18 44t-13.5 45t-49 42.5q-24 14 -48.5 22t-44.5 13q-24 5 -45 7q-26 -32 -50 -68.5t-53 -86.5q-26 -48 -50 -96l-48 -96q89 13 173 48t165 85z" />
    <glyph glyph-name="Q" unicode="Q" horiz-adv-x="616" 
d="M914 -182q42 17 82 44t70 63q-30 -42 -79.5 -75t-101.5 -52q-53 -20 -99.5 -22.5t-90.5 9.5t-86.5 37.5t-85.5 63.5q-23 20 -47 40t-48 42q-3 -3 -6 -5.5t-6 -5.5q-28 -25 -61 -46.5t-69.5 -36t-75 -20.5t-77.5 0q-55 9 -87 52q-17 21 -27 46.5t-14.5 52.5t-4.5 54.5
t2 53.5q5 54 19.5 107t35.5 104q21 50 47.5 96.5t58.5 89.5t72 79t85 65q45 28 95 47.5t104 19.5q26 0 50.5 -6t47.5 -19q18 -11 33.5 -25.5t28.5 -31.5q-35 42 -84 62t-108 11q-53 -8 -101 -31.5t-90 -55.5q-43 -34 -78 -74.5t-63 -87.5q-27 -45 -50 -95t-40 -103t-26 -108
t-7 -110q1 -26 5.5 -52.5t15 -50t28 -42t44.5 -28.5q48 -16 100.5 -6t97.5 34q27 14 51 32.5t46 39.5q-5 4 -10 7.5t-10 7.5q-30 22 -69 39.5t-79 9.5q-12 -3 -14.5 -9t0 -13t8.5 -12t13 -5q-4 0 -12.5 1.5t-16.5 4.5t-13.5 8t-3.5 13q2 6 10 10.5t13 6.5q24 7 49 3.5
t49 -13.5t46.5 -25t42.5 -31q31 31 58 67q66 87 106 187q-26 -18 -53 -33t-56 -26t-59.5 -16.5t-61.5 -1.5q-49 8 -86 40t-48 84q-11 54 4 107.5t41 100.5q26 45 62 84t81 66q19 11 41 20t46 13.5t48.5 3t47.5 -11.5q25 -11 41 -31.5t25 -45.5t12 -52t2 -52
q-2 -55 -15.5 -108t-33.5 -104q21 17 39 35t36 38q25 28 44.5 58t33.5 65q6 15 13 31t6 33q0 9 -5 13.5t-12 5t-13 -2.5t-8 -9q5 12 16.5 25.5t26.5 15.5q13 2 17 -6t2.5 -20t-6 -23.5t-6.5 -17.5q-11 -26 -24 -51t-28 -48q-19 -29 -40 -56.5t-46 -51.5q-12 -13 -23.5 -22.5
t-27.5 -23.5q-15 -35 -31.5 -68.5t-35.5 -63.5q-26 -42 -56.5 -80.5t-65.5 -72.5q34 -26 68 -53.5t70 -52t75 -43t83 -25.5q47 -8 94.5 -2.5t92.5 23.5zM574 231l12 8t8 9t4 10.5t4 11.5q5 12 8.5 24t7.5 25q8 25 13 49.5t10 50.5q4 28 5.5 55.5t-0.5 55.5q-2 26 -8 52.5
t-23 47.5q-16 19 -37.5 27t-45.5 8t-48 -6.5t-44 -16.5q-48 -23 -84.5 -60.5t-62.5 -82.5q-26 -46 -42 -100t-6 -108q9 -48 43 -79.5t84 -38.5q54 -7 105.5 11.5t96.5 46.5z" />
    <glyph glyph-name="R" unicode="R" horiz-adv-x="907" 
d="M1111 -131q22 14 38.5 25t33.5 26t37 36t49 54q-32 -45 -73 -84t-94 -69q-46 -26 -98.5 -35.5t-103.5 10.5q-17 7 -42 24t-43 49.5t-22.5 82.5t18.5 122q10 31 25.5 69t24.5 77.5t5 77.5t-32 69q-14 14 -34 26t-45 17q-29 -12 -74.5 -27t-93.5 -23q-26 -60 -56.5 -117.5
t-65.5 -117.5q-29 -48 -60 -92.5t-68 -86.5q-21 -24 -47.5 -48t-57.5 -43t-64.5 -29t-69.5 -5q-20 2 -37.5 11.5t-30.5 25.5q-17 21 -24 46.5t-6 52.5t8 53.5t18 49.5q22 49 56 90t78 72q47 32 102.5 53.5t116.5 33.5q14 3 27.5 5t27.5 1q7 -1 15.5 -4t7.5 -12
q-1 -16 -17.5 -25t-29.5 -11q2 0 7 5t7 10q3 6 0.5 11t-7.5 7q-11 5 -22.5 4.5t-22.5 -2.5q-7 -1 -19.5 -3t-28 -5.5t-33 -8.5t-34.5 -12q-51 -20 -94.5 -52.5t-75.5 -76.5q-31 -42 -47.5 -93.5t-11.5 -103.5q5 -45 32 -74t77 -29q54 2 99.5 30.5t80.5 67.5q36 42 64.5 88
t54.5 94q30 58 59.5 117t61.5 118q-4 -1 -15.5 -2.5t-22.5 -1t-19 4t-5 12.5q3 10 14 18t25 14t29 9.5t26 5.5l3 6q32 63 72 125.5t91 116.5q-38 11 -78 9.5t-85 -7.5q-44 -8 -86.5 -23.5t-80.5 -38.5q-23 -14 -42 -26.5t-38 -32.5q-9 -9 -18 -20.5t-17 -24.5t-12.5 -26.5
t-4.5 -26.5q1 -32 19 -46.5t43.5 -17.5t52.5 2.5t46 13.5q17 7 37.5 18t37.5 24.5t27 28.5t7 29q-1 4 -7.5 6.5t-16.5 -0.5q8 6 22 10.5t25 -2.5q13 -8 5.5 -24.5t-28 -35.5t-51.5 -37.5t-65.5 -29.5t-69 -11.5t-61.5 16.5q-23 14 -26.5 39.5t4.5 49.5q9 23 24.5 43.5t36 38
t43 33t45.5 28.5q45 23 93.5 39t104.5 21q32 2 64 2t64 -7l24.5 24.5t28.5 26.5q4 3 10.5 8.5t14.5 10t15.5 6t12.5 -3.5q6 -6 5.5 -14t-4 -16t-9.5 -15.5t-11 -12.5q3 2 4.5 7.5t1 11t-4.5 10t-13 3.5q-8 -1 -14.5 -4.5t-12.5 -7.5q-9 -7 -21.5 -17.5t-20.5 -18.5
q21 -4 50 -15t54 -28.5t39.5 -41.5t6.5 -54q-6 -24 -23 -42.5t-40 -33t-49 -26t-50 -21.5q34 -9 63.5 -28t45.5 -51q11 -23 14.5 -47.5t0.5 -49.5t-10 -49.5t-17 -46.5q-28 -63 -38.5 -112t-9 -85.5t13 -61.5t26.5 -42t31 -26.5t28 -13.5q51 -18 103 -5.5t97 38.5zM561 399
q6 12 11 22.5t13 23.5q-18 -5 -37 -11t-34 -17q-3 -2 -6 -5t-5 -6.5t-1.5 -6.5t6.5 -4q14 -2 26 -0.5t27 4.5zM592 405q31 6 62 17.5t71 28.5q-26 4 -54.5 4.5t-55.5 -5.5q-6 -12 -12 -23t-11 -22zM748 461q29 12 56.5 27.5t54.5 36.5q15 12 29 28.5t14 36.5q1 20 -14 37.5
t-37 31.5t-46 23.5t-42 13.5q-27 -31 -50 -67t-44 -76q-11 -19 -24.5 -45t-26.5 -52q55 7 110 0q2 0 4.5 -0.5t4.5 0.5q3 2 5.5 2.5t5.5 2.5z" />
    <glyph glyph-name="S" unicode="S" horiz-adv-x="498" 
d="M851 771q23 -17 21 -49.5t-16.5 -67.5t-34 -67t-32.5 -48q-18 -24 -45 -50t-58 -50t-63.5 -43t-61.5 -28q-27 -54 -62.5 -119.5t-78 -129.5t-91.5 -122t-103 -97q-20 -14 -44.5 -26t-50.5 -17.5t-51 -1t-45 24.5q-19 18 -27 42.5t-8 51t6.5 53t17.5 50.5q22 48 53.5 91.5
t73.5 76.5q20 16 43 30t45 24t40.5 17t28.5 10q5 1 15.5 4t21.5 4.5t20 1t12 -6.5q3 -8 -0.5 -15t-10.5 -13t-15 -10.5t-13 -5.5q5 3 9.5 7.5t5.5 9.5t-2.5 9.5t-15.5 6.5q-15 2 -31 -2t-30 -9q-48 -16 -91.5 -45t-77 -67.5t-55.5 -85.5t-26 -98q-2 -26 1 -53t17 -50t38 -31
t50 -5q50 6 93 35.5t79.5 72t67.5 91.5t56 93q28 49 53.5 98t51.5 100q-38 -9 -80.5 -5t-73.5 31q-21 18 -30 41.5t-9.5 49.5t6 52t16.5 49q22 51 53 80t60.5 44t53 19t30.5 4q4 0 14 -0.5t19.5 -3t14.5 -8t-2 -15.5t-19 -15.5t-24 -7.5q8 3 13 10.5t6 12.5q2 11 -10.5 14.5
t-23.5 3.5q-42 -2 -78.5 -23t-62.5 -54q-29 -35 -44.5 -79.5t-8.5 -90.5q4 -26 16.5 -48.5t35.5 -36.5q20 -12 42 -17.5t45 -5.5q6 0 13.5 0.5t14.5 1.5q8 1 16 3q6 12 14 27.5t15 30.5q13 25 25.5 50l25.5 51q23 48 48.5 96.5t60.5 94.5q16 20 36 37.5t46 22.5
q11 2 23.5 1.5t22.5 -8.5zM820 628q5 9 15 30.5t16 45t2.5 43t-25.5 24.5q-20 4 -38.5 -4t-34.5 -22.5t-29 -32.5t-23 -34q-14 -23 -27 -47.5t-24 -50.5q-22 -51 -43 -101.5t-44 -101.5q18 6 36 15q48 26 87.5 64t71.5 81q34 45 60 91z" />
    <glyph glyph-name="T" unicode="T" horiz-adv-x="525" 
d="M1314 786q17 11 28 11t15 -4q5 -5 -4 -15.5t-23.5 -22t-30 -21t-21.5 -12.5q-17 -10 -35.5 -17.5t-37.5 -13.5q-62 -19 -130.5 -29t-135.5 -8q-48 0 -92.5 6t-96.5 19q-22 -25 -40 -53t-34 -57q-55 -95 -101 -193.5t-101 -193.5q-27 -48 -57.5 -94t-65.5 -88
q-34 -41 -74.5 -77t-91.5 -54q-18 -7 -38.5 -11t-40.5 -2.5t-38 8.5t-33 23q-19 19 -27 44t-8 51t6 52t15 49q21 50 54.5 92t76.5 74q47 34 103.5 56.5t118.5 34.5q1 0 14 2t27.5 2.5t26 -2.5t11.5 -12q-1 -16 -17.5 -25t-29.5 -11q14 8 16 19t-9 14q-14 4 -31.5 3t-36 -4.5
t-36.5 -9t-33 -9.5q-48 -17 -91.5 -45t-77 -65.5t-55 -83.5t-24.5 -98q-2 -21 1.5 -44.5t14 -44t28.5 -34.5t46 -16q53 -4 97.5 18.5t81 59.5t66.5 82t53 87q27 49 52 98.5t51 99.5q25 49 50.5 97t52.5 96q26 45 54.5 87t62.5 80q-41 8 -80.5 17.5t-80.5 17.5
q-54 9 -109.5 10.5t-108.5 -15.5q-40 -14 -66.5 -37t-39.5 -49.5t-12.5 -52.5t15.5 -44t44.5 -25t73.5 4q25 6 50 18.5t44.5 26.5t29.5 28t6 25q-2 4 -7 6t-17 0q8 8 22 12.5t24 -3.5q13 -10 6 -25.5t-25.5 -31.5t-42.5 -30t-45 -22q-58 -22 -97 -19.5t-60.5 20t-25.5 46
t8.5 58.5t41.5 57t73 43q31 11 65 15t68.5 3.5t68.5 -3.5t65 -7q55 -8 111 -18q4 -1 11.5 -2.5t9.5 -1.5q19 19 40 40.5t47 33.5q18 8 24 3t3.5 -16t-10 -24t-15.5 -21q5 6 8 13t1.5 12.5t-8 7.5t-18.5 -2q-19 -6 -34.5 -20t-30.5 -28l54 -10t55 -10q27 -5 54.5 -8t55.5 -4
q51 -2 104 5t106 22q23 7 46 16t44 21q11 6 20.5 13t18.5 15q1 1 4.5 5t4.5 8.5t-2.5 8t-16.5 3.5z" />
    <glyph glyph-name="U" unicode="U" horiz-adv-x="589" 
d="M1351 700q5 -5 6 -11.5t-6 -11.5q-11 -8 -26 -5t-26 8q4 -1 11 0t13 4t8.5 8t-1.5 11q-10 14 -26.5 23.5t-33.5 16.5q-77 31 -158 28q-54 -3 -104 -19.5t-96.5 -42.5t-88.5 -59.5t-79 -70.5q-52 -52 -99.5 -113.5t-82.5 -129.5t-52.5 -141t-8.5 -148q6 -52 30.5 -99.5
t73.5 -73.5q48 -25 101 -21.5t104.5 22.5t98.5 48.5t82 57.5q0 -3 -9 -10.5t-21 -16t-23 -16t-14 -9.5q-28 -19 -59.5 -36.5t-65 -29.5t-69.5 -17t-72 0q-62 9 -100 45t-57.5 84.5t-22 104t6.5 105.5q-3 -6 -6.5 -12t-7.5 -12q-41 -68 -91 -131.5t-118 -110.5
q-30 -22 -61.5 -28.5t-56 2t-38.5 32.5t-10.5 64.5t28 97.5t78.5 132t102.5 141.5t93.5 132.5q9 13 23.5 36t24.5 48t9 48.5t-23 38.5q-33 21 -78.5 21.5t-87.5 -13.5q-24 -8 -49 -20.5t-48.5 -29t-44.5 -35t-37 -37.5q-51 -62 -67.5 -105.5t-9.5 -70t32 -37.5t57 -8
q34 2 60.5 14.5t40 26.5t11.5 26t-26 14q3 1 12 2t18 -0.5t16 -5.5t7 -12q-1 -14 -13 -27.5t-32 -24.5t-46 -18t-53 -7q-33 0 -56 10t-32 31t-3.5 52.5t29.5 73.5q23 41 58 79t78 68t91.5 48t99.5 20q19 1 38.5 -1.5t36.5 -9.5q21 -10 31 -25.5t11.5 -34.5t-4.5 -39t-16 -39
q-27 -48 -59.5 -91t-65.5 -84t-65.5 -82t-60.5 -84q-43 -66 -62.5 -116t-22.5 -86t8 -58t29 -33t40 -10.5t42 10.5q46 24 83 61.5t67 81.5q30 45 56 92t49 95q43 90 96.5 171t127.5 155q38 38 79.5 71.5t88.5 60.5q46 27 96 46t104 24q53 4 96.5 -2.5t77 -18.5t56.5 -26.5
t35 -26.5z" />
    <glyph glyph-name="V" unicode="V" horiz-adv-x="467" 
d="M1117 786q49 1 95.5 -11.5t86.5 -33t72.5 -46t54 -50t31 -45t3.5 -30.5q-4 -7 -12 -7t-17 3t-17 8.5t-11 8.5q12 -5 20.5 -3t13 7.5t5 13.5t-5.5 16q-5 7 -30 33.5t-67 56t-100 52t-130 20.5q-55 -2 -107 -17.5t-100 -41t-92 -59t-83 -69.5q-40 -38 -76 -80t-70 -86
q-35 -45 -68 -90.5t-65 -92.5t-62 -93.5t-59 -95.5q-29 -48 -55 -96t-51 -98q-2 15 -5 30.5t-3 34.5q-3 57 7 112t27 109t39 105t47 102q24 51 50 101t50 101q11 25 21.5 50t17.5 51q11 46 -7 71.5t-50 35.5t-71.5 7t-71.5 -13q-51 -17 -99 -52t-84 -73q-56 -62 -72 -107.5
t-8 -79.5q3 -13 13.5 -28t28 -27t41 -20t53.5 -6q37 1 65.5 14.5t43 29t12 28.5t-28.5 15q4 1 14 2.5t20 0.5t17.5 -5.5t6.5 -14.5q-2 -14 -15 -28.5t-34.5 -26.5t-48.5 -19.5t-56 -7.5q-36 0 -68.5 13.5t-52 40t-21 64t24.5 85.5q24 42 62 82.5t84.5 72.5t99 52t104.5 22
q24 1 47.5 -3.5t42 -15.5t29.5 -30t10 -47q-3 -42 -22.5 -91t-47 -101.5t-58 -105t-54.5 -101.5t-45.5 -101t-36.5 -106t-20.5 -109.5t2.5 -110.5q2 6 12 28t21.5 47.5t22 48.5t14.5 32q48 101 107 196q19 32 55 86t86 117t113 128t136.5 118t156 87t172.5 36z" />
    <glyph glyph-name="W" unicode="W" 
d="M1301 776q49 1 95.5 -12t86.5 -33.5t72.5 -46t54 -50t31 -45t3.5 -30.5q-4 -7 -12 -7t-17 3.5t-16.5 9t-11.5 8.5q23 -9 34 4t-1 30q-5 7 -30 34t-67 56t-100 51.5t-130 20.5q-83 -3 -157 -34.5t-140 -80.5t-123.5 -111.5t-107.5 -126.5q-67 -88 -130.5 -179t-123.5 -193
q-28 -47 -53.5 -94t-49.5 -95v2.5t-0.5 6t-0.5 12.5v22q3 112 28 220t64 212q-48 -67 -95.5 -135t-92.5 -143q-26 -42 -49.5 -85.5t-43.5 -91.5q-1 7 -1.5 9.5t-0.5 4.5q-3 18 -3 36q-3 57 7 112t27 109t39 105t47 102q24 51 50 101t50 101q11 25 21.5 50t17.5 51q7 28 4 48
t-15 33t-32 20t-47 11q-56 6 -110 -11q-51 -17 -99 -52t-84 -73q-56 -62 -72 -107.5t-8 -79.5q3 -13 13.5 -28t28 -27t41 -20t53.5 -6q37 1 65.5 14.5t43 29t12 28.5t-28.5 15q4 1 13.5 2t20 0t18 -5t6.5 -14q-1 -14 -14.5 -28.5t-35 -26.5t-48.5 -19.5t-56 -7.5
q-36 0 -68.5 13.5t-52 40t-21 64t24.5 85.5q24 42 62 82.5t84.5 72.5t99 52t104.5 22q22 1 45.5 -3t42.5 -15t30.5 -30t10.5 -48q-2 -26 -10 -51.5t-18 -49.5q-22 -49 -50 -101q-26 -49 -52.5 -97.5t-51.5 -99.5q-23 -47 -43 -96t-35 -99.5t-22 -103t-2 -104.5q2 7 4 13
t4 13l10 24l10 24q23 50 49 94q26 47 54.5 91.5t59.5 89.5q26 36 52.5 71.5t54.5 70.5q18 40 36 83.5t38.5 85.5t44 80t53.5 69q4 4 10.5 9.5t14.5 9.5t16 5t14 -3q7 -5 9 -14.5t0.5 -20t-5.5 -20.5t-8 -16q-43 -74 -97.5 -141t-110.5 -133q-1 -1 -4.5 -11t-8 -23.5
l-9.5 -28.5t-8 -26q-33 -108 -60 -216q-7 -27 -12.5 -54t-10.5 -54q-4 -21 -6 -43.5t-3 -49.5q36 84 77 167t95 172q19 32 55 86t86 117t113 128t136.5 118t156 87t172.5 36zM713 697q-27 -11 -51.5 -45t-45.5 -76.5t-39 -87t-31 -76.5q58 69 94 117.5t55 80.5t25.5 50
t5.5 26.5t-5.5 10t-7.5 0.5z" />
    <glyph glyph-name="X" unicode="X" horiz-adv-x="669" 
d="M996 783q48 8 99.5 0.5t95.5 -32.5q3 -2 9.5 -6t11.5 -9t5.5 -10t-7.5 -9q-7 -3 -18.5 -2.5t-19.5 4.5q4 -2 12 2t8 9q1 7 -9.5 15t-25 14.5t-29 11t-21.5 6.5q-60 14 -115 0.5t-104.5 -43.5t-92.5 -71.5t-79 -83.5q-38 -46 -73.5 -94t-69.5 -97q-7 -9 -17 -23t-10 -15
q3 -37 4.5 -89.5t5.5 -105.5q3 -33 7.5 -72t13 -78.5t22.5 -76t36 -65.5t53.5 -47.5t74.5 -20.5q57 -3 112 16.5t105 45.5q45 23 87 50.5t84 57.5q-29 -21 -57.5 -42t-58.5 -39q-29 -18 -63.5 -36.5t-71.5 -32.5t-74.5 -21.5t-73.5 -4.5t-69 19t-60 50q-36 45 -53.5 101
t-27.5 112q-11 60 -15.5 120t-6.5 120q-55 -79 -110 -157.5t-116 -153.5q-19 -23 -39 -44t-42 -41q-14 -13 -37 -29.5t-48.5 -27t-51.5 -10t-45 20.5t-25 48.5t-6 55.5q0 29 6 57t16 55q18 52 49 102q31 47 74.5 83t97.5 53q36 11 59.5 13.5t37.5 3.5q4 0 16.5 0.5t26 -1.5
t23.5 -6t10 -13q-2 -16 -20.5 -22.5t-31.5 -6.5q7 0 12 5t5 12t-6.5 13t-21.5 8q-52 8 -102 -7t-92 -47q-33 -26 -59 -59.5t-43.5 -72.5t-26 -81.5t-7.5 -84.5q0 -12 1 -26t4.5 -28t9.5 -26.5t17 -20.5q18 -14 42.5 -10.5t50 17t49 32t38.5 33.5q42 42 77.5 88.5t67.5 95.5
q36 52 69.5 104t68.5 104q0 51 -1.5 105t-10.5 122q-2 11 -3.5 23t-4.5 24q-12 43 -32.5 64.5t-45.5 25.5t-52 -7t-51.5 -32.5t-43.5 -50t-28 -59.5q-13 -43 -8.5 -70.5t19.5 -42t38 -19t48 -1.5t48.5 11.5t40.5 18.5q8 5 14.5 13t8 15t-3 10.5t-16.5 -0.5q9 5 23 7.5
t20 -6.5q5 -8 -3.5 -20t-26 -23.5t-41.5 -21.5t-49.5 -13.5t-51 0t-46.5 18.5q-23 17 -28 46t1 55q11 47 33.5 82.5t50 59t58 32.5t58 2.5t49.5 -29.5t33 -64q8 -29 12.5 -58t8.5 -58q6 -59 9 -121q40 58 82 113t90 107q38 42 81 79.5t93 65.5q25 14 51.5 24.5t54.5 15.5z
" />
    <glyph glyph-name="Y" unicode="Y" horiz-adv-x="483" 
d="M1185 699q13 -11 14 -19.5t-5.5 -12.5t-18.5 -3.5t-24 7.5q5 -3 15.5 1.5t9.5 12.5q-1 7 -9.5 14t-19.5 15q-43 29 -94 41.5t-102 7.5q-54 -7 -101 -29.5t-89 -55.5q-42 -35 -76.5 -76t-63.5 -87q-26 -40 -48 -83t-46 -93q28 -2 57 -5t58 3q35 6 65 31q-16 -22 -38 -32
t-46.5 -12.5t-50.5 0t-50 5.5q-39 -86 -86.5 -169t-106.5 -162q-31 -42 -69 -80.5t-89 -57.5q-20 -8 -41.5 -10.5t-42.5 2.5q-26 6 -44 24t-29 42q-22 50 -15 105.5t30 103.5q24 49 63 86t86 63t100 41.5t105 20.5q45 3 89 3h25q16 27 30 55.5t29 57.5q-11 -11 -31 -29.5
t-43.5 -34t-47.5 -23.5t-43 1q-13 6 -15.5 19t-0.5 24q5 45 26 88.5t44 87.5q7 14 18.5 36t18 46t2.5 47t-26 39q-14 10 -34.5 13.5t-43 1.5t-46 -8.5t-42.5 -15.5q-23 -10 -46.5 -25t-45 -34t-41 -39.5t-32.5 -40.5q-44 -67 -56 -112t-2 -70.5t36 -34t57 -2.5q33 6 58.5 21
t37.5 30.5t8.5 27.5t-27.5 11q4 2 13 3.5t18.5 1t16.5 -4t7 -11.5q0 -14 -11 -28.5t-29.5 -27.5t-43 -22.5t-51.5 -12.5q-33 -4 -57 3.5t-35.5 27.5t-9 52t22.5 77q19 43 50 84.5t70.5 75t86 57t96.5 30.5q18 2 37.5 2t37.5 -5q23 -7 34.5 -22t14.5 -33.5t-1 -39.5t-12 -40
t-18 -37.5t-20 -36.5q-20 -37 -42.5 -76.5t-29.5 -82.5q-2 -11 -0.5 -22.5t13.5 -16.5q11 -4 24 -2t25.5 6.5t25 11.5t21.5 14q20 14 37.5 29.5t31.5 34.5l14 19.5t35 46.5t44.5 56t43.5 48q38 37 83 67.5t96 47.5q53 17 106 17q52 0 105.5 -18.5t95.5 -51.5zM486 318
q2 4 3.5 7.5t3.5 6.5q-91 9 -185 -12q-53 -13 -100 -37t-84 -63q-36 -39 -61.5 -87t-35.5 -100q-4 -23 -4.5 -51.5t7 -54t23.5 -44.5t45 -24q24 -4 47.5 1t45 16t41 27t36.5 33q38 40 66.5 86.5t53.5 94.5q26 50 49.5 100.5t48.5 100.5z" />
    <glyph glyph-name="Z" unicode="Z" horiz-adv-x="557" 
d="M679 317q26 0 47.5 11.5t30.5 22.5q-10 -20 -33.5 -30.5t-45.5 -14.5q-29 -5 -57.5 -3t-57.5 7q-6 -64 -31 -128.5t-59 -117.5q-18 -28 -41.5 -60t-52 -62.5t-61 -58.5t-68.5 -48.5t-73.5 -30.5t-76.5 -6q-28 3 -48 16.5t-32 34.5t-17 47.5t-2 54.5q6 51 32 105t64 101.5
t85.5 85t97.5 57.5q58 23 126.5 31t132.5 -4q4 34 -0.5 64.5t-33.5 56.5q-35 -30 -78 -52.5t-91 -31.5q-38 -7 -56 -2.5t-21 15.5t7 26.5t28 30t41.5 26.5t48.5 16q29 5 58 5t56 -12q4 -2 7.5 -3.5t5.5 -2.5q20 17 40.5 36t38.5 39q20 23 38.5 48t32.5 52q6 12 10.5 25
t6 26.5t-2 26t-13.5 23.5q-17 17 -41.5 23.5t-47.5 7.5q-29 2 -57.5 -4.5t-54.5 -19.5q-53 -24 -93 -67q-9 -9 -21.5 -25.5t-21.5 -35.5t-12 -37.5t6 -33.5q9 -14 24.5 -16t32.5 3t33 14t25 17q7 6 12 13t6.5 13t-3 9t-16.5 1q3 1 9.5 3.5t13 3.5t12 -0.5t7.5 -7.5
q3 -11 -9 -23.5t-30.5 -24t-38 -19.5t-30.5 -9q-24 -3 -42 7.5t-18 39.5q4 46 35 86t74 70q47 33 104.5 50.5t114.5 1.5q22 -6 39.5 -19.5t23.5 -35.5q7 -25 0 -49.5t-18 -45.5q-14 -26 -33.5 -48t-39.5 -42q-22 -21 -45 -40.5t-46 -38.5q20 -13 30 -29t14 -34t4 -36v-36
q17 -2 35 -4q16 -2 36.5 -3.5t43.5 -0.5zM379 390q29 8 63 25t58 37q-36 23 -81.5 22t-83.5 -19q-14 -7 -28.5 -17.5t-20.5 -26.5q-7 -18 4.5 -24t28.5 -6t35 3.5t25 5.5zM407 -11q48 69 83.5 152t46.5 169q1 5 -2.5 5.5t-8.5 1.5q-53 8 -106 6.5t-108 -18.5
q-49 -15 -93 -44t-80 -68t-62.5 -85.5t-39.5 -96.5q-8 -29 -10.5 -60t5 -58t27.5 -46t58 -23q58 -4 116 19q55 21 98 59.5t76 86.5z" />
    <glyph glyph-name="a" unicode="a" horiz-adv-x="213" 
d="M254 116q-5 -8 -18.5 -27t-30.5 -39t-35.5 -35.5t-32.5 -15.5q-12 0 -15.5 13t4.5 47l9 30q-9 -21 -26 -39.5t-35 -31t-35 -17t-27 2.5t-10 28t16 60q7 16 18.5 32.5t25 30.5t28 24.5t28.5 15.5t30.5 3t24.5 -17q10 16 18 17.5t12.5 -4.5t5.5 -15.5t-2 -15.5q0 5 -1 8
q-2 7 -10 0q-11 -9 -19 -27t-14 -36t-9.5 -32.5t-4.5 -17.5q-6 -22 -2 -30.5t14 -5.5q11 3 24 15t26 27.5t24 31t17 26.5zM147 124q19 40 10 57t-31 12t-49 -33t-45 -79q-12 -35 -2.5 -50t29 -10t44.5 30.5t44 72.5z" />
    <glyph glyph-name="b" unicode="b" horiz-adv-x="198" 
d="M61 144l-10 -36t-5 -39q0 -28 6 -40.5t16 -13t23.5 9.5t29.5 27q-15 4 -20.5 16t-5 27t5 30.5t10.5 26.5q10 19 25.5 31.5t30 16.5t25 -0.5t12.5 -17.5q2 -18 -18 -52t-48 -67q25 -4 45.5 7t37.5 32q6 9 9.5 14.5l10.5 16.5q1 2 2.5 1t1.5 -4q-4 -7 -8 -13
q-3 -5 -6.5 -10.5t-5.5 -7.5q-6 -9 -16.5 -19t-24 -17.5t-28.5 -11t-30 -0.5q-8 -9 -22.5 -23t-30.5 -22.5t-30.5 -5t-20.5 29.5q-6 28 2.5 72.5t33.5 101.5q18 41 43.5 93t54 104t58 99t55.5 77q24 27 41 41t28.5 16t16.5 -5.5t4 -22.5q-2 -46 -18.5 -91t-40 -87.5
t-52 -80.5t-55.5 -68.5t-49 -53t-33 -33.5l-9 -9l-15 -15t-15.5 -15t-10.5 -9zM114 137q-11 -32 -5.5 -48t14.5 -21l4 -2q2 -1 4 -1q12 14 22 29.5t17.5 30t11.5 26.5t3 20q-1 13 -9.5 17.5t-19.5 0t-23 -17.5t-19 -34zM326 559q5 25 3.5 40.5t-12.5 12.5t-34 -28.5
t-61 -82.5q-7 -11 -19.5 -35t-28 -56t-33 -69.5t-34.5 -75.5q-14 -31 -24 -58.5l-18 -49.5q49 46 91 92.5t75.5 95.5t57.5 102t37 112z" />
    <glyph glyph-name="c" unicode="c" horiz-adv-x="154" 
d="M189 111q-6 -8 -17.5 -26t-28.5 -37t-39 -33.5t-48 -14.5q-21 0 -30.5 12.5t-10.5 30.5t3.5 38t11.5 35q12 28 39.5 52.5t62.5 29.5q4 1 10.5 1t12.5 -2.5t10 -7t3 -12.5q-2 -17 -15.5 -30t-24.5 -22q2 3 3.5 6.5t3.5 6.5q1 3 5.5 14.5t5.5 23t-5.5 17t-26.5 -3.5
q-21 -9 -40.5 -34.5t-27.5 -54.5q-7 -24 -6 -40.5t6 -26t14 -13.5t19 -2q18 3 35 16t32 29t26.5 32t17.5 27z" />
    <glyph glyph-name="d" unicode="d" horiz-adv-x="209" 
d="M414 621q13 13 23 13.5t15 -5t6.5 -14.5t-1.5 -15q0 4 -1 7q-2 5 -10 1q-19 -11 -42 -38t-47 -63t-48 -77.5t-45 -80.5t-37.5 -73.5t-25.5 -55.5q-4 -9 -11.5 -28.5t-16.5 -43.5t-17 -48.5t-12 -41.5q-11 -44 11 -37q11 3 24.5 15.5t26 27.5t23.5 31t18 27l2 -6
q-6 -10 -20 -29.5t-31 -39t-34.5 -34t-31.5 -14.5q-12 0 -15 11t-1 25.5t6.5 29.5t6.5 23q-9 -21 -26 -39.5t-35 -31t-35 -17t-26.5 3t-9.5 28.5t16 60q6 14 18.5 32.5t29 35t35 28t36.5 11.5q10 0 19.5 -3.5t15.5 -12.5q28 73 59.5 140.5t63.5 124.5t63.5 101.5t60.5 71.5z
M142 124q15 41 6 58.5t-30 11.5t-47 -34t-44 -79q-12 -35 -2.5 -50t29 -10t44.5 30.5t44 72.5z" />
    <glyph glyph-name="e" unicode="e" horiz-adv-x="147" 
d="M183 111q-3 -3 -14 -21t-29 -38t-41 -36t-49 -16h-5q-9 1 -18 7.5t-14.5 20.5t-4 35.5t15.5 52.5q11 25 34 48t51 31q21 6 39.5 0t17.5 -23.5t-30 -44.5t-103 -63q-1 -22 6.5 -31.5t15.5 -12.5q10 -4 22 -2q15 3 30.5 14.5t29.5 26.5t26 31.5t21 31.5zM110 191
q-26 -11 -41.5 -30.5t-23 -39.5t-10 -34.5l-2.5 -14.5q51 22 76 46t31 42.5t-3 28t-27 2.5z" />
    <glyph glyph-name="f" unicode="f" horiz-adv-x="112" 
d="M50 122q-14 -32 -21.5 -66.5t-18.5 -69.5q42 18 75.5 53.5t59.5 74.5v-9q-4 -6 -16.5 -23t-30.5 -37t-41.5 -38.5t-49.5 -28.5q-14 -42 -35.5 -91t-48.5 -96t-58 -89.5t-64 -71.5q-25 -24 -53 -43t-50.5 -24.5t-36.5 6t-12 47.5q3 46 22 90.5t51.5 85t75.5 75t94 60.5
q15 8 39.5 20t47.5 23q9 36 22 73t28 79q7 19 21.5 52.5t33.5 74t42 85.5t47.5 88t49 80.5t47.5 63.5q24 27 41 41t28.5 16.5t16.5 -5t4 -22.5q-3 -46 -19 -91t-40 -87.5t-52.5 -81t-55 -69.5t-48.5 -53l-33 -33q-9 -9 -17 -16q-7 -7 -14 -13t-9 -9q-1 -1 -7.5 -8t-14.5 -13
zM-176 -332q1 2 20.5 26.5t44 64.5t49.5 92t38 110q-5 -2 -13 -6q-28 -12 -52 -26t-49 -31q-22 -15 -54.5 -44t-61 -68t-47 -85.5t-12.5 -97.5q1 -15 16 -15.5t35.5 9.5t44 29t41.5 42zM326 548q6 25 4.5 41t-12.5 13t-34 -29t-61 -83q-6 -9 -17 -29.5t-24 -47.5t-28 -58
t-29 -62q-33 -73 -72 -159q52 48 96 96t79 98.5t60 104.5t38 115z" />
    <glyph glyph-name="g" unicode="g" horiz-adv-x="191" 
d="M226 114v-9q-10 -15 -20 -29t-23 -28q-11 -11 -25.5 -23t-31.5 -22q-12 -46 -33 -91.5t-45 -87t-49.5 -78t-47 -64.5t-37 -45.5t-19.5 -20.5q-25 -24 -53 -42.5t-50.5 -24.5t-36.5 5.5t-12 47.5q3 46 26.5 98t60.5 101t84.5 90.5t98.5 67.5l40 20t47 24l2.5 8t6 19
t7.5 24t7 22q-11 -19 -27.5 -36t-34 -27.5t-33 -13.5t-24.5 5t-8 29t16 58q7 16 18.5 32.5t25 30t28 24t27.5 16.5q13 5 27.5 3t25.5 -13q10 13 17 13t10.5 -7t3.5 -18t-3 -18q-1 6 -3 10q-4 8 -11 0q-21 -32 -29.5 -73t-20.5 -79q22 13 44 33q17 17 31 36t23 33zM82 -53
q2 6 7.5 23t7.5 24q-28 -14 -56 -28.5t-58 -34.5q-15 -10 -36.5 -30t-45.5 -46.5t-47.5 -58.5t-41 -66.5t-27 -70t-5.5 -69.5q2 -15 16.5 -15.5t35.5 9.5t44 29t42 42q3 4 22 27t44.5 61.5t52 90t45.5 113.5zM26 79q-11 -32 -3.5 -47.5t25 -13t40.5 23t43 59.5q6 17 11.5 33
t9.5 27q1 25 -13.5 30.5t-34.5 -6t-42 -38.5t-36 -68z" />
    <glyph glyph-name="h" unicode="h" horiz-adv-x="198" 
d="M112 192l-17 -17q-7 -7 -14 -13t-9 -9q8 7 22.5 19t30.5 22t31 15t24 -1q10 -6 3.5 -28.5t-18.5 -50.5t-23.5 -55.5t-11.5 -45.5q0 -17 14 -8.5t32 28t35 41.5t23 33v-9q-6 -11 -20.5 -30.5t-32 -38.5t-36 -32.5t-31.5 -12.5q-7 2 -10 7.5t0 22.5q3 16 14 42.5t21.5 52.5
t15.5 46t-5 24q-5 2 -17.5 -5t-27.5 -17.5t-29 -22.5t-23 -21q-6 -8 -15 -27t-18.5 -40t-17.5 -39t-12 -23t-1 8t9 34.5t14.5 46.5t16.5 45q7 19 21.5 52t33.5 73.5t42 86t47.5 88.5t49 80.5t47.5 63.5q24 27 41 41t28.5 16t16.5 -5.5t4 -22.5q-3 -46 -19 -91t-40 -87.5
t-52.5 -80.5t-55 -69t-48.5 -53zM223 501q-6 -9 -17 -29.5t-24 -47.5t-28 -58t-29 -62q-33 -73 -72 -159q51 48 95.5 95.5t79.5 98t60 105t38 115.5q6 25 4.5 40.5t-12.5 12.5t-34 -28.5t-61 -82.5z" />
    <glyph glyph-name="i" unicode="i" horiz-adv-x="97" 
d="M84 252q-9 2 -9.5 8t3 12t9 10t10.5 3q4 -1 6.5 -7t1.5 -13t-6 -11.5t-15 -1.5zM130 122v-9q-8 -14 -22 -32t-31 -36q-36 -41 -61 -44q-11 -1 -14 13t4 47q2 11 7 28q5 14 12.5 35.5t21.5 50.5q12 22 20.5 25.5t13.5 -2t6.5 -16.5t-1.5 -17q-1 4 -2 7q-2 2 -3.5 3
t-5.5 -2q-11 -9 -19 -27t-14 -36.5t-9.5 -33t-3.5 -16.5q-4 -23 0 -28.5t14 -2.5q12 4 24.5 15.5t24.5 25t22 27.5t16 25z" />
    <glyph glyph-name="j" unicode="j" horiz-adv-x="130" 
d="M165 105q-9 -14 -17.5 -26.5t-19.5 -24.5t-26 -24.5t-37 -26.5q-13 -45 -37.5 -97t-55.5 -104t-67 -100.5t-71 -85.5q-25 -24 -53 -43t-50.5 -24.5t-36.5 6t-12 47.5q3 46 26.5 97.5t60.5 100.5t85 90.5t99 67.5q15 8 39 20.5t47 23.5q1 0 3 7t5 18q5 17 11 37.5
t13.5 41.5t15.5 40.5t16 34.5q-14 -8 -27.5 -22t-24.5 -28q-12 -17 -24 -35l-4 3q1 1 9 14t21 29.5t29 32.5t33 22q8 3 13 -1t7 -11t1.5 -15.5t-2.5 -14.5q-2 5 -4 9q-2 3 -4.5 4t-5.5 -4q-22 -34 -31 -74t-21 -78q31 19 54 44.5t43 57.5v-9zM-143 -346q62 76 106.5 159.5
t72.5 179.5q-3 -2 -6.5 -3t-6.5 -3q-28 -12 -52 -26t-49 -31q-15 -10 -36.5 -30t-45.5 -46.5t-47 -58.5t-40.5 -66.5t-27 -70t-5.5 -69.5q1 -15 16 -15.5t35.5 9.5t43.5 29t42 42zM135 249q-9 2 -9.5 8t3 12t9 10.5t10.5 3.5q4 -1 6.5 -7.5t1.5 -13.5t-6 -11.5t-15 -1.5z
" />
    <glyph glyph-name="k" unicode="k" horiz-adv-x="181" 
d="M365 606q-3 -62 -31 -123.5t-65 -115t-75 -95.5t-62 -65q24 12 37 10t16 -12t-3.5 -25t-21.5 -30.5t-38.5 -28.5t-54.5 -17q0 -9 5.5 -24t14.5 -29t20.5 -22.5t23.5 -5.5q11 6 23.5 17.5t24 25.5t21.5 29l18 27l-3 -14q-18 -28 -39 -55t-49 -47q-20 -13 -34.5 -3
t-23.5 29.5t-13.5 40t-5.5 28.5q-1 0 -3 -0.5t-4 -0.5q-7 -14 -14 -30t-14 -30.5t-12 -25.5t-8 -15q-4 -5 -1 8t9 34.5t14.5 46.5t16.5 45q7 19 21.5 52t33.5 73.5t42 86t47.5 88.5t49 80.5t47.5 63.5q24 27 41 41t28.5 16t16.5 -5.5t4 -22.5zM228 501q-6 -9 -17 -29.5
t-24 -47.5t-28 -58t-29 -62q-33 -73 -72 -159q51 48 95.5 95.5t79.5 98t60 105t38 115.5q6 25 4.5 40.5t-12.5 12.5t-34 -28.5t-61 -82.5zM160 201q-3 5 -14.5 4t-34.5 -20q-18 -14 -37 -34.5t-26 -44.5q72 11 100 40t12 55z" />
    <glyph glyph-name="l" unicode="l" horiz-adv-x="156" 
d="M56 132q-6 -17 -8.5 -30t-4.5 -22q-2 -11 -1 -19q0 -19 10 -34.5t33 -9.5q17 4 32.5 16t29 27.5t25.5 32.5t21 32v-9q-3 -4 -14.5 -22t-29.5 -38.5t-41.5 -37t-49.5 -16.5q-23 0 -34 19.5t-7 42.5q2 17 9.5 44t30.5 77q18 40 44 94.5t55.5 109.5t61 105t59.5 83
q24 27 41 41t28.5 16t16.5 -5.5t4 -22.5q-3 -46 -19 -91t-40 -87.5t-52.5 -80.5t-55 -69t-48.5 -53l-33 -33q-16 -15 -31 -30t-32 -30zM230 501q-6 -9 -17 -29.5t-24 -47.5t-28 -58t-29 -62q-33 -73 -72 -159q51 48 95.5 95.5t79.5 98t60 105t38 115.5q6 25 4.5 40.5
t-12.5 12.5t-34 -28.5t-61 -82.5z" />
    <glyph glyph-name="m" unicode="m" horiz-adv-x="303" 
d="M337 111q-8 -12 -20 -28.5t-26.5 -33t-31 -30t-32.5 -19.5q-16 -4 -19.5 6t-0.5 25q3 16 12 40t16.5 47t10 41t-5.5 23q-5 1 -16.5 -4t-24.5 -14t-24 -19.5t-16 -18.5t-13.5 -27.5t-17.5 -40.5t-16.5 -38t-9.5 -20q-3 -5 -2 3.5t5 24.5t10.5 38t14.5 45q12 36 11.5 52
t-5.5 19q-6 2 -18.5 -3.5t-26.5 -15.5t-26.5 -21.5t-18.5 -21.5t-14 -28.5t-16 -38t-14 -35t-9 -18.5q-4 -5 -1.5 7.5t8.5 33.5t14 46t15 45q5 13 7.5 20t8.5 22q2 5 -0.5 6.5t-5.5 0.5q-4 -1 -9 -3q22 19 30.5 19t8.5 -9.5t-5.5 -24t-9.5 -23.5q9 9 25 20.5t32.5 21.5
t31 14t20.5 -2t5.5 -20.5t-5.5 -32.5q9 9 24 20.5t31 21t29.5 13.5t19.5 -2q7 -7 4 -23t-9.5 -36.5t-15 -43.5t-12.5 -43q-5 -22 -0.5 -28t13.5 -1.5t22 17t26 27.5t24 30.5t17 25.5z" />
    <glyph glyph-name="n" unicode="n" horiz-adv-x="205" 
d="M238 111q-7 -11 -19 -28.5t-27 -35t-31 -31t-30 -16.5q-15 -3 -20 6.5t-3 24.5q3 16 11.5 40.5t16.5 47.5t11 41t-6 22q-6 1 -19.5 -6.5t-28 -18.5t-26.5 -22t-15 -15q-6 -10 -14 -28.5t-15.5 -38t-14 -35t-9.5 -18.5q-4 -5 -1.5 7.5t8 33.5t13.5 46t16 45q2 6 5.5 13.5
t5.5 13.5q3 7 5 15q2 5 -0.5 7t-5.5 1q-4 -1 -9 -4q23 19 31 18t7.5 -11t-6 -24.5t-9.5 -23.5q4 6 19 18t33 23t34.5 17t22.5 0q7 -7 5.5 -22t-6.5 -34t-12.5 -40.5t-13.5 -42.5q-6 -24 -2 -31t13 -3t22 17t25.5 28t23.5 30.5t16 24.5z" />
    <glyph glyph-name="o" unicode="o" horiz-adv-x="163" 
d="M201 127q2 3 4 1t0 -4q-7 -11 -13.5 -21t-14.5 -17.5t-19.5 -13.5t-27.5 -10q-17 -22 -39 -41t-54 -21q-22 -2 -31 9.5t-9 28.5t5.5 36t11.5 32q20 38 55 67q8 7 21 14t26.5 10.5t26 0.5t19.5 -16q6 -11 5.5 -26t-5.5 -31t-12.5 -30.5t-14.5 -25.5q11 3 19 7t15.5 10
t15 16t16.5 25zM146 147q5 31 -6.5 40t-30.5 1q-14 -6 -25.5 -26t-15 -41.5t5.5 -38.5t37 -17h4q13 24 21 48t10 34zM48 7q22 2 37.5 18t26.5 34q-20 0 -31.5 7.5t-17 20.5t-5 29t5.5 33q-8 -11 -18.5 -34.5t-16.5 -47.5t-3.5 -42.5t22.5 -17.5z" />
    <glyph glyph-name="p" unicode="p" horiz-adv-x="188" 
d="M220 114q2 2 4 1.5t0 -4.5q-23 -38 -52 -48q-17 -6 -37 -4q-14 -19 -32.5 -35t-42.5 -22q-11 -2 -23.5 1t-13.5 15q-1 14 9.5 23.5t25.5 15t32.5 7.5t31.5 1q1 0 2 1q12 23 20.5 47.5t10.5 34.5q3 28 -5.5 37.5t-22.5 6t-29.5 -15.5t-25.5 -27q-13 -17 -25.5 -43.5
t-22.5 -52.5q-12 -30 -23 -63q-9 -23 -22 -56.5t-29 -72t-34.5 -79.5t-38.5 -78.5t-40.5 -69.5t-40.5 -52q-18 -18 -31 -20.5t-21.5 3t-11 17t2.5 22.5q0 -7 2 -11q4 -10 17 -2q29 19 59.5 61t59 95.5t55 114t48 116t37.5 102.5t24 73q2 5 3.5 13.5t-1.5 13.5q-2 3 -7 2
t-8 -3q17 17 25.5 20t11.5 -2.5t0.5 -18t-7.5 -27.5q6 8 21 20t32.5 20t34.5 8t28 -16q9 -14 8.5 -30t-6.5 -32t-15 -31t-18 -26q20 -1 40.5 8t40.5 42zM98 29q12 10 23 31q-11 1 -21 1t-21 -4q-26 -10 -33 -21.5t-1.5 -18.5t20.5 -6t33 18z" />
    <glyph glyph-name="q" unicode="q" horiz-adv-x="213" 
d="M247 119l-1 -11q-7 -11 -20 -29.5t-29 -36t-32.5 -30.5t-31.5 -13q-10 -1 -14 8.5t0 32.5q-18 -37 -39 -81.5t-42.5 -91.5t-41 -93t-33 -84.5t-20.5 -66t-2 -38.5q3 -8 7 -10t8 -1t8 5q-5 -11 -15 -15.5t-19.5 -2.5t-16.5 11.5t-6 27.5q1 16 11 44t25.5 63.5t35 75
t39.5 79t38.5 76t32.5 65.5l10 22l10.5 21t10.5 22q-18 -27 -45 -47t-48 -22t-28 18.5t15 74.5q7 16 18.5 32.5t25 30.5t28 24.5t28.5 15.5t29 3.5t26 -16.5q10 16 18 17.5t12.5 -4.5t5.5 -16.5t-2 -16.5q-1 4 -2 7l-3.5 3.5t-5.5 -1.5q-11 -9 -19 -27t-14 -36.5t-9.5 -33.5
t-3.5 -17q-5 -23 -2 -30.5t13 -5.5q12 3 25 15t25.5 27t23 30.5t16.5 25.5zM28 80q-12 -35 -2.5 -50t29 -9.5t44.5 31t44 72.5q17 40 8 57t-30 11t-47.5 -34t-45.5 -78z" />
    <glyph glyph-name="r" unicode="r" horiz-adv-x="147" 
d="M181 108q-8 -12 -22 -30.5t-30 -36.5t-32.5 -30.5t-29.5 -12.5q-8 0 -13 7t-1 24q5 22 14 42.5t21 43.5q4 9 6.5 20.5t-7.5 19.5q-2 2 -10.5 8t-9.5 5q-3 -7 -10 -18.5t-14 -22.5q-9 -13 -18 -28q-2 -2 -3.5 -0.5t-0.5 3.5l6 9t13 20.5t13.5 22.5t8.5 16q-24 12 -24 27.5
t9 24.5t20 5.5t9 -28.5q-1 -8 -3 -15.5t-4 -10.5q7 -4 17 -7.5t18 -7.5q9 -4 12 -9.5t2.5 -11.5t-3 -11.5t-4.5 -9.5q-9 -17 -16 -35.5t-13 -38.5q-6 -27 3 -27t25 14.5t35.5 38.5t33.5 46zM64 175q4 7 6.5 16t-0.5 17q-5 7 -10 4t-7 -10t0 -15.5t11 -11.5z" />
    <glyph glyph-name="s" unicode="s" horiz-adv-x="123" 
d="M158 114q1 0 3 -2l1 -1q-13 -21 -26.5 -33t-30.5 -18q-4 -27 -17.5 -41.5t-28 -18.5t-26 0.5t-9.5 15.5q2 15 16 28t43 19q0 9 -3 20.5t-7 23.5t-8.5 23t-6.5 18q-7 -11 -12.5 -20t-10.5 -17q-5 -9 -11 -16l-4 3q6 7 12 17q5 8 11 18.5t13 21.5v2q-5 26 3.5 46.5
t19.5 28.5q8 6 10 -5q2 -14 -5 -28t-15 -31q1 -14 6.5 -26t12 -24t12 -24.5t6.5 -26.5q29 9 52 47zM83 219q1 10 -1.5 9.5t-5.5 -7.5t-5 -18t-2 -23q5 9 9 18.5t5 20.5zM55 20q16 2 20.5 13t6.5 24q-13 -3 -21.5 -9t-12.5 -12.5t-2.5 -11t9.5 -4.5z" />
    <glyph glyph-name="t" unicode="t" horiz-adv-x="98" 
d="M539 324q46 3 88 21.5t77 48.5q-24 -31 -54 -49t-64.5 -27.5t-72.5 -12t-77 -0.5q-45 2 -90.5 6t-95.5 4h-56.5t-57.5 -1q-2 -5 -5 -9t-5 -9q-17 -33 -32 -66.5t-29 -68.5q-3 -6 -9 -23.5t-12.5 -38.5t-10.5 -40.5t-1.5 -29.5t13 -7.5t33.5 27.5q17 17 31.5 37t24.5 36
v-9q-8 -13 -22.5 -32.5t-31.5 -37.5q-15 -17 -30.5 -30t-26 -14.5t-14 11t4.5 47.5q14 66 40.5 129t57.5 127q-3 0 -6 -0.5t-6 -0.5q-71 -5 -140 -18t-145 -34q7 2 13 4.5t12 4.5q137 42 278 57q17 36 38 76.5t45.5 80.5t52.5 76.5t59 65.5q13 13 22.5 13.5t15 -5t6.5 -14.5
t-2 -15q0 4 -1 7q-2 6 -10 2q-29 -18 -58 -52t-55 -74.5t-48.5 -82.5t-39.5 -76q11 0 23 0.5t35 1.5q42 1 83.5 -1t84 -4.5t85 -3.5t85.5 3z" />
    <glyph glyph-name="u" unicode="u" horiz-adv-x="207" 
d="M241 111q-8 -14 -22 -32t-31 -36q-17 -19 -33.5 -32.5t-27.5 -11.5q-11 -1 -15 12.5t4 47.5l3 12q3 12 12 36q-11 -14 -27 -34t-33 -37.5t-34 -28.5t-30 -8q-14 4 -13.5 21t7.5 38t17 41.5t15 31.5t12.5 25t8.5 19t-1.5 6.5t-5.5 0.5q-4 -1 -9 -3q22 18 31 18t9.5 -9.5
t-5 -24t-10.5 -24.5q-24 -48 -34.5 -79.5t0.5 -40.5q5 -5 20 7t32 30.5t33 38t23 29.5q5 11 9.5 23.5t11.5 26.5q11 22 19.5 25.5t14 -2.5t7 -17t-1.5 -17q-1 4 -2 7q-2 2 -3.5 3t-5.5 -2q-11 -9 -19 -27t-14 -36.5t-9.5 -33t-4.5 -16.5q-10 -43 12 -36q11 3 20 12.5
t17 17.5q15 16 30.5 36t23.5 34z" />
    <glyph glyph-name="v" unicode="v" horiz-adv-x="183" 
d="M227 131q2 3 4 1.5t0 -4.5q-18 -35 -47 -53q-32 -18 -73 -12q-25 -26 -50.5 -44t-43.5 -20q-3 0 -4 2q-7 14 -6.5 27.5t3.5 27.5q2 9 8 26.5t12 37.5t10 37.5t2 26.5q-1 4 -7 2.5t-8 -3.5q6 11 18.5 18t18.5 2q4 -3 0.5 -19.5t-9 -35t-11.5 -35.5t-7 -22q-3 -12 -6 -24.5
t-1 -25.5q1 -12 4.5 -19t3.5 -8q19 8 36.5 21t32.5 29q-14 6 -19.5 17t-5.5 24.5t4.5 27t10.5 25.5q9 17 24 28t29.5 14.5t25.5 -0.5t12 -17q1 -18 -17 -47t-48 -61q14 -5 32 -2t28 8q7 5 11.5 8t9 8t9.5 12.5t14 21.5zM94 141q-6 -20 -3 -32t9 -20q7 -9 17 -13
q24 28 35.5 53t10.5 41q-1 13 -9.5 17.5t-20 1t-22.5 -15.5t-17 -32z" />
    <glyph glyph-name="w" unicode="w" horiz-adv-x="285" 
d="M326 132q2 2 4 0.5t0 -3.5q-8 -14 -16 -26t-19 -21q-33 -27 -83 -19q-4 -4 -18.5 -16.5t-31 -24.5t-31 -19.5t-18.5 -1.5q-11 15 -7 36t9 38q-9 -19 -25.5 -36t-35.5 -29q-2 -1 -7.5 -3.5t-11.5 -5t-11 -3t-7 2.5q-8 12 -7 26.5t4 28.5q10 41 24 85q2 6 4.5 15.5t3 17.5
t-2.5 12t-11 -2q8 8 21 16q3 2 7.5 3.5t7.5 -1.5q4 -4 0.5 -19.5t-9 -34t-11.5 -35.5t-7 -23q-5 -19 -7.5 -38.5t8.5 -37.5q13 1 26 12t24.5 27.5t21 36t16.5 37.5q0 1 4.5 13t7.5 24.5t1 20t-15 -1.5q1 0 7 6.5t15 11.5q3 2 7.5 3.5t7.5 -1.5q6 -7 1.5 -19.5t-6.5 -20.5
q-5 -15 -12.5 -33.5t-12 -38t-5 -39t7.5 -37.5q18 8 36 21t33 29q-15 6 -20.5 17.5t-5 24.5t5 26.5t10.5 24.5q9 17 24 28t30 15t26 -0.5t12 -17.5q1 -18 -17 -47t-48 -61q33 -10 59 6t43 51zM195 142q-6 -20 -3 -32t9 -20q7 -9 17 -13q24 27 35.5 52t10.5 42q-1 13 -10 17
t-20 0.5t-22.5 -15.5t-16.5 -31z" />
    <glyph glyph-name="x" unicode="x" horiz-adv-x="206" 
d="M246 116q-14 -24 -32.5 -45t-38.5 -43q-24 -26 -38 -27t-21 11.5t-10 34.5t-6 43q-8 -13 -20 -29t-25.5 -30.5t-27 -24t-23.5 -8.5q-5 0 -8.5 5t-3.5 12t4.5 15t15.5 16q-2 -5 -2 -11.5t4 -11.5q9 -11 22 -2.5t26 24t23.5 32t13.5 22.5q-2 16 -4 31t-8 32q-3 9 -10 4
t-15.5 -16t-17 -25t-14.5 -23l-2 6q11 18 21 35q8 14 17 27.5t14 18.5q11 12 17.5 6t10.5 -19.5t5 -29.5t2 -22q5 7 7.5 11.5t3.5 5.5q7 10 16.5 22.5t21.5 23t26 16t29 0.5q-1 0 -9 -10t-11 -11q-3 -2 -7 -0.5t-8 1.5q-6 0 -14.5 -6.5t-18 -17t-18.5 -23t-17 -23.5
q2 -17 4 -33t7 -35q4 -18 14 -20.5t22 4.5t25 20.5t24.5 28t20 27t11.5 17.5z" />
    <glyph glyph-name="y" unicode="y" horiz-adv-x="192" 
d="M227 119l1 -8q-19 -28 -41 -58t-62 -50q-12 -46 -32 -90.5t-43 -85t-47.5 -76t-46.5 -63t-38.5 -46.5t-23.5 -26q-27 -25 -54.5 -44t-50 -24.5t-36 6.5t-11.5 48q3 46 26 97.5t60.5 100.5t85 90.5t98.5 67.5q15 8 39.5 20.5t47.5 23.5q2 2 7 17t10 33t9.5 34.5t6.5 21.5
q-11 -14 -28 -34t-35.5 -38t-35 -29.5t-25.5 -6.5q-13 4 -12 21.5t8 39t16.5 42t13.5 29.5q5 10 12.5 24.5t8.5 19.5t-1.5 6.5t-5.5 0.5q-4 -1 -9 -3q22 18 30.5 17.5t8.5 -10.5t-5 -24t-9 -24q-21 -49 -33 -79.5t-1 -39.5q9 -2 24 10.5t31.5 30t31 36t21.5 28.5
q5 14 10.5 27t11.5 25q9 17 16.5 18.5t12 -5t6 -17.5t-1.5 -18q-4 18 -11 10.5t-12 -21.5q-13 -32 -23.5 -65.5t-19.5 -66.5q32 17 56 46t44 61zM80 -54q1 3 3.5 10t4.5 14t4.5 13.5t3.5 9.5q-4 -2 -7 -3t-7 -3q-27 -12 -51 -26t-49 -31q-22 -15 -59 -51t-71 -83.5
t-56.5 -101.5t-16.5 -105q2 -15 16.5 -15.5t35.5 9.5t44 29t41 42q3 4 22.5 27t44.5 61.5t52 90t45 113.5z" />
    <glyph glyph-name="z" unicode="z" horiz-adv-x="204" 
d="M241 119l2 -6q-18 -29 -44 -59t-58 -50q7 -33 -7 -74t-39 -83.5t-56.5 -83t-59.5 -73t-48.5 -52.5t-22.5 -22q-25 -24 -53 -43t-50.5 -24.5t-36.5 6t-12 47.5q3 46 26.5 97.5t60.5 100.5t84.5 90.5t98.5 67.5l42 21t49 25q-1 3 -4 7q-2 3 -5 7t-7 7q-31 -25 -49.5 -29
t-26 3.5t-4.5 21.5t15 25t32 13.5t47 -12.5q8 8 14 17q13 20 22 40t13 36.5t2 28.5t-11 16q-21 7 -39 0t-33.5 -21t-29.5 -33t-26 -36l-4 3q27 41 51 65.5t44.5 35t37 9.5t28.5 -10q17 -14 9.5 -47.5t-32.5 -68.5q-8 -12 -18 -22t-21 -20q10 -8 14 -18t4 -12q32 19 56 47
t45 62zM93 33q-22 13 -37 13t-23 -7t-8.5 -16.5t7 -14t23 0t38.5 24.5zM-69 -346q4 5 21.5 25t41 50t49 66.5t45 73t29.5 70.5t2 59q-4 -2 -11.5 -5.5t-10.5 -5.5q-28 -12 -52 -26t-49 -31q-22 -15 -58 -49t-69.5 -80t-56.5 -101t-19 -111q1 -15 15.5 -15.5t35.5 9.5
t44.5 29t42.5 42z" />
    <glyph glyph-name="zero" unicode="0" horiz-adv-x="515" 
d="M532 744q29 -8 52 -25.5t38 -40.5q-16 17 -34 31t-47 24q-39 12 -80 5.5t-81.5 -26t-78.5 -49.5t-71.5 -64.5t-61.5 -70.5t-47 -69q-22 -36 -45.5 -83t-40 -98.5t-21 -103t12.5 -95.5q17 -46 54.5 -60t82 -7t89 30t75.5 50q43 39 83.5 95.5t71 121t49 132.5t18.5 129
q0 20 -2.5 41.5t-10.5 40.5t-21 34.5t-34 23.5q31 -8 49 -31.5t26 -53t9 -62t-1 -58.5q-4 -47 -18.5 -99.5t-39 -105.5t-58 -103t-74.5 -90t-89.5 -68.5t-102.5 -37.5q-22 -2 -44.5 -3t-44.5 4q-36 9 -56.5 32.5t-30.5 54.5t-10.5 66t4.5 65q9 69 34.5 132t61.5 121
q18 30 46 65t62 69t74 64t82 50t85.5 27.5t85.5 -4.5z" />
    <glyph glyph-name="one" unicode="1" horiz-adv-x="408" 
d="M599 749q8 0 13 -4t5 -13q0 -27 -22.5 -54t-54 -50.5t-66 -43t-58.5 -31.5q-34 -58 -63 -119t-60 -121q-24 -47 -54 -102t-66 -102.5t-76.5 -79.5t-84.5 -32h-8t-4 1v2q30 1 55.5 14t47.5 33t39.5 44t32.5 47q30 49 55.5 100t51 102.5t52.5 102t59 98.5q-31 -16 -64 -31
t-67.5 -26.5t-70 -18.5t-70.5 -7q-21 0 -29.5 6t-7.5 13.5t11 14t27 7.5q-2 0 -7.5 -4t-5.5 -11q0 -11 9 -14.5t23 -3.5q33 0 69 10t71.5 25.5t69.5 34t64 36.5q14 21 36.5 51t48 58t51.5 48t48 20zM612 729q2 6 -1 10.5t-11 4.5q-19 0 -41.5 -16t-45 -40.5t-43.5 -52.5
t-36 -52q21 12 49.5 27.5t55.5 34.5t47.5 40t25.5 44z" />
    <glyph glyph-name="two" unicode="2" horiz-adv-x="541" 
d="M609 143q1 1 4 5.5l6 9t6 8.5t4 5q-18 -28 -40 -59t-48 -57.5t-57.5 -43.5t-68.5 -17q-34 0 -63 16t-54.5 39t-48.5 50t-45 49q-9 -9 -29.5 -25.5t-46 -33t-52 -29t-48.5 -12.5q-12 0 -20.5 8.5t-8.5 26.5t7.5 41.5t22 44t35.5 35t48 14.5q28 0 49 -16t43 -33
q80 72 157 157.5t144 177.5q15 20 30.5 42.5t29 47t22 49.5t8.5 49q0 18 -8.5 31t-22 21t-30.5 11.5t-33 3.5q-28 0 -61 -12t-65.5 -32.5t-63 -48.5t-54 -59t-37.5 -63.5t-14 -63.5q0 -20 7.5 -34.5t20.5 -23.5t29.5 -13.5t33.5 -4.5q14 0 30.5 3.5t30.5 9.5t23.5 14.5
t9.5 19.5q0 7 -7.5 11t-14.5 5q4 1 12.5 2t16.5 0t14 -5t5 -13q0 -5 -10 -14t-27 -17.5t-40.5 -14.5t-51.5 -6q-17 0 -34.5 4t-31 14.5t-22 27.5t-8.5 43q0 22 11.5 51.5t31.5 61t48.5 61.5t62 53.5t72 38t78.5 14.5q18 0 36.5 -4t33.5 -13.5t25 -24.5t11 -37q2 -32 -15 -75
t-47 -92t-69.5 -100t-83 -99.5t-87.5 -91t-83 -73.5q21 -20 44.5 -44.5t50 -46t56.5 -36.5t65 -15q25 0 49.5 11t47 29t42.5 41t37 46zM114 96q40 27 79 63q-17 17 -38 32.5t-44 15.5q-22 0 -41.5 -10.5t-34 -28t-23 -39t-8.5 -43.5q0 -25 13 -29.5t31 1.5t36.5 17.5
t29.5 20.5z" />
    <glyph glyph-name="three" unicode="3" horiz-adv-x="504" 
d="M543 630q-13 -20 -35.5 -43.5t-44.5 -43.5q-26 -24 -54 -48q49 -17 73 -45t29 -63.5t-6 -75t-32 -78t-49 -73.5t-56 -62q-23 -21 -49 -41.5t-55.5 -36t-62 -26t-66.5 -12.5q-49 -2 -78.5 18.5t-43 54t-12 75.5t14.5 83t36.5 76.5t53.5 56.5q44 29 84 38.5t71 7.5
t50 -11.5t21 -17.5q1 -7 -3.5 -10.5t-11 -5t-12.5 -1t-8 1.5q8 0 11 6q4 6 -5 15.5t-30 15t-53 2.5t-75 -22q-57 -26 -91 -81t-38 -119q-2 -65 24 -107t95 -50q49 -2 94 13.5t83.5 43t71 65t58.5 80.5q24 41 38.5 82.5t12.5 79t-24.5 67.5t-72.5 47q-16 -14 -36 -27.5
t-42 -23.5t-45.5 -15.5t-46.5 -3.5q-7 1 -14 4t-11 8.5t-4 13.5t8 19q15 17 36.5 27t47.5 13.5t54.5 2t58.5 -7.5q2 0 7 4.5t6 5.5q14 14 28 26.5t28 29.5q12 13 28 31t29 39t19.5 43.5t-0.5 43.5q-8 20 -28.5 29t-40.5 12q-44 7 -86 -7.5t-76 -42.5q-39 -32 -58 -65
t-17 -56t23.5 -29t63.5 18q19 11 25 19.5t5 14.5t-6.5 8t-9.5 0q15 6 23 5.5t11 -3.5t2.5 -7t-1.5 -6q-8 -15 -24 -27.5t-35 -20t-37.5 -8.5t-30.5 7t-14 27t12 51q7 17 21 34.5t32 33t38 28t40 21.5q28 12 54.5 16.5t49.5 3t40.5 -8.5t28.5 -18q12 -12 15.5 -27.5t1 -31.5
t-9.5 -31.5t-16 -27.5zM220 451q-4 -11 4.5 -15.5t24.5 -4t36.5 6t41 13t38 17t27.5 19.5q-20 4 -46 6.5t-51 -0.5t-45.5 -12.5t-29.5 -29.5z" />
    <glyph glyph-name="four" unicode="4" horiz-adv-x="509" 
d="M420 328q51 2 97 28t84 70q-5 -7 -21.5 -26t-41.5 -39.5t-57 -36t-68 -15.5q-7 -16 -19 -47t-29.5 -69.5t-40.5 -79t-51 -74t-61 -56t-70 -24.5v4q31 2 57.5 19t49.5 44.5t42 62.5t36 73t31.5 76t27.5 71q-48 2 -90 21.5t-81 44.5q-11 -16 -24 -35t-29 -35t-35.5 -27
t-42.5 -11q-20 0 -29 12t-9 27q0 21 11.5 38.5t28.5 30t36.5 19.5t35.5 7q11 0 20.5 -3t20.5 -7q20 40 40 85t42 89t46.5 86t53.5 77q15 18 34.5 33.5t34.5 15.5q10 0 9.5 -9.5t-5 -20.5t-9 -18.5t-2.5 -2.5q8 22 -4 30.5t-29 -7.5q-34 -34 -58.5 -79.5t-45.5 -94.5
t-41.5 -99t-45.5 -93q37 -23 83.5 -37.5t91.5 -17.5q15 34 38.5 80.5t52 92.5t61.5 86t68 63q-38 -33 -64.5 -71t-48.5 -79.5t-41 -85t-40 -86.5zM82 281q19 0 36 10.5t31 26t25.5 33.5t20.5 34q-10 5 -20 8t-20 3q-14 0 -31 -6t-32 -17t-25.5 -27t-10.5 -36q0 -11 7 -20
t19 -9z" />
    <glyph glyph-name="five" unicode="5" horiz-adv-x="493" 
d="M644 754l9 3t12 2t10.5 -2t3.5 -9q-2 -8 -13.5 -17t-28.5 -16.5t-38.5 -12.5t-42.5 -6q-17 -1 -33 1.5t-32.5 6.5t-32.5 8t-32 6q-55 11 -99 -27q-28 -28 -47.5 -64t-33.5 -73q23 7 44 8q26 2 56.5 -3t59 -18t51 -34.5t32.5 -52.5q15 -47 7 -95t-30 -94t-54 -87t-65 -73
q-23 -23 -49.5 -44t-55.5 -38t-60.5 -28t-64.5 -12q-27 -2 -52 8t-42 36q-23 34 -24.5 77.5t11 88.5t35.5 86.5t48 70.5q22 26 50.5 42.5t58.5 26t59.5 12.5t54 1t41.5 -7.5t22 -13.5q4 -7 -2 -11t-15 -6q-11 -3 -25 -4q5 2 8 3.5t5 3.5q6 7 4 12t-8 8t-14 4.5t-14 1.5
q-47 4 -83.5 -2t-65 -19t-49.5 -32t-37 -42q-19 -26 -35 -56.5t-24 -62.5q-6 -24 -7 -58t7 -65.5t28.5 -54t57.5 -22.5q34 -2 66.5 5t63.5 21q43 20 78.5 53t64 73.5t49.5 87.5t34 95q8 32 9 67t-15 64q-14 26 -39 44t-55 27t-62 9.5t-59 -8.5q-8 -21 -17.5 -41.5
t-25.5 -37.5q-4 -4 -10 -8.5t-13 -7.5t-13.5 -2.5t-10.5 7.5q-8 13 1 28t24.5 28.5t33 23.5t27.5 14q11 30 23 60t29 57q15 24 37 44.5t51 25.5q17 2 32.5 -1t29.5 -9q17 -7 35 -13.5t37 -10t38 -4t39 4.5q15 5 36.5 13t30.5 23q3 5 -3 10t-12 3zM167 465q6 -5 16.5 4.5
t22 24.5t21 30t12.5 21q-7 -3 -20.5 -12.5t-26 -21.5t-20.5 -24.5t-5 -21.5z" />
    <glyph glyph-name="six" unicode="6" horiz-adv-x="610" 
d="M674 742q15 -14 15.5 -31t-7.5 -35t-21 -35t-23 -30q-5 -6 -15 -16t-22 -20t-23.5 -17t-18.5 -6q-6 1 -6 6.5t3 11.5t7 11.5t6 7.5q-2 -5 -2 -12.5t8 -7.5q7 1 12.5 4t10.5 7q18 15 33.5 31t28.5 36q7 12 13.5 27t7 29.5t-6.5 26.5t-26 18q-17 4 -33 2.5t-32 -5.5
q-33 -11 -61 -25q-30 -15 -57.5 -33.5t-53.5 -39.5q-121 -95 -200 -232q57 29 119 47.5t126 19.5q31 0 63 -6.5t56 -26.5q26 -21 33 -50.5t0 -59.5q-6 -30 -18 -57t-28.5 -52t-35.5 -48t-39 -44q-50 -49 -104 -89q-27 -19 -56.5 -35t-61.5 -24q-77 -20 -121.5 19t-47.5 118
q-1 66 20.5 133.5t50.5 124.5q-12 -6 -37.5 -21.5t-50.5 -35.5t-43 -41.5t-16 -37.5q1 -6 6 -8.5t11 -2.5t12.5 2t9.5 4q-5 -4 -10 -9t-12 -9t-14.5 -6t-16.5 0q-8 2 -5 18.5t21.5 41t54.5 55t95 60.5q63 110 154 197q46 46 102 86t122 65q14 5 30.5 9.5t33 6t32 -2
t28.5 -14.5zM222 410q-5 -3 -10.5 -5.5t-10.5 -5.5q-23 -41 -40 -83.5t-26 -88.5q-6 -27 -9.5 -61.5t1 -67t22 -56.5t53.5 -30q33 -7 66.5 1t63.5 20q31 12 58 29.5t53 39.5q49 43 83.5 99t52.5 119q18 64 -5 106.5t-96 49.5q-67 5 -132 -15.5t-124 -50.5z" />
    <glyph glyph-name="seven" unicode="7" horiz-adv-x="404" 
d="M619 749q10 -7 5 -22.5t-22 -31.5t-43.5 -28t-58.5 -12q-28 -34 -52.5 -74t-47.5 -82.5t-45 -86.5t-45 -87q-32 -66 -70.5 -132.5t-95.5 -124.5q-29 -29 -64.5 -52t-79.5 -24v4q31 0 57 12t48 32t39.5 44t31.5 48q35 55 63.5 112.5t58.5 114.5q28 53 58 103.5t64 99.5
q18 24 36 47t38 46q-62 0 -128 -1t-130 -20q-38 -11 -73 -33.5t-56 -57.5q-5 -7 -9 -18t-4.5 -21.5t3.5 -19t15 -11.5q9 -2 25.5 1.5t32 10.5t28 16t14.5 17q2 9 -8 15.5t-18 2.5q9 5 22.5 7.5t22.5 -3.5q8 -6 1.5 -16t-21.5 -20.5t-34 -19.5t-35 -13q-12 -4 -27.5 -4
t-23.5 14q-6 12 -4.5 26.5t8 29.5t15.5 28.5t18 23.5q33 34 74.5 50.5t87 23t93 6.5t92.5 2h16.5t16.5 1q10 11 19.5 20.5l19.5 19.5q4 4 13 12t19.5 15t21 10.5t18.5 -0.5zM616 730q3 7 1.5 12t-10.5 3q-8 -2 -15 -5.5t-13 -8.5q-18 -12 -34 -27t-30 -31q27 0 56.5 17
t44.5 40z" />
    <glyph glyph-name="eight" unicode="8" horiz-adv-x="473" 
d="M380 521q7 6 15 12t16 14q18 15 36.5 33.5t34.5 38.5t26 41t10 42q0 17 -10 26.5t-24.5 14t-31 4t-30.5 -2.5q-30 -6 -59 -23t-42 -46q-9 -21 -6.5 -40.5t12 -38.5t24 -38t28.5 -38q28 -38 53 -80t34 -96q8 -45 -2 -92.5t-33 -91t-58 -80.5t-76 -60.5t-87 -31.5t-92 7
q-51 15 -77.5 43t-35.5 63.5t-1.5 75t24.5 77.5t42.5 71.5t52.5 55.5q16 14 46.5 35.5t63.5 41t63 32t45 8.5q6 -2 5 -6t-5.5 -9t-10 -9t-7.5 -5q4 2 5.5 10.5t-6.5 8.5q-21 0 -48.5 -14t-56 -35t-56 -45.5t-46.5 -44.5q-22 -23 -41.5 -50.5t-32 -58t-15 -62.5t8.5 -65
q10 -28 29 -49t43.5 -33.5t53.5 -17.5t59 -1q58 8 104 36.5t75.5 71t41.5 96t3 112.5q-10 58 -39.5 107.5t-61.5 99.5q-18 28 -29 55t-10 52.5t16.5 48t50.5 42.5q16 8 38 13.5t45 6t43 -4t31.5 -15.5t11.5 -30t-18 -48q-26 -38 -65.5 -71.5t-76.5 -62.5z" />
    <glyph glyph-name="nine" unicode="9" horiz-adv-x="520" 
d="M509 754q35 -16 53.5 -49t25 -75t3 -89.5t-12.5 -93t-21.5 -85t-23.5 -66.5q-24 -54 -66.5 -112.5t-97 -106t-119 -76t-133.5 -22.5q-30 3 -56.5 16t-43.5 39q-19 31 -20 68.5t9.5 75t30 72.5t41.5 61q13 13 28.5 28t31.5 26.5t29.5 17.5t22.5 2q7 -3 6.5 -9.5
t-4.5 -13.5t-10 -13.5t-9 -9.5q6 4 6.5 16t-11.5 10q-18 -3 -36 -13.5t-33.5 -26t-29 -33.5t-23.5 -36q-17 -29 -28 -61.5t-10 -65.5q1 -36 16 -61.5t39 -40.5t55.5 -21t66.5 -3q71 5 128 42.5t98 92.5q41 54 72.5 117.5t56.5 135.5q12 33 21 67.5t14 69.5q4 26 4.5 63
t-7.5 71.5t-28.5 60.5t-59.5 31q-31 3 -63 -7t-60.5 -29.5t-51.5 -46t-36 -55.5q-14 -30 -18 -63.5t5.5 -60.5t35 -42t71.5 -7q49 10 95.5 36.5t86.5 61.5q-21 -18 -46 -37t-52.5 -35t-57.5 -27t-61 -13q-41 -1 -64 19t-31.5 50t-4 65t20.5 64q15 28 43.5 57t64 49.5t74 28
t74.5 -7.5z" />
    <glyph glyph-name="ampersand" unicode="&#x26;" horiz-adv-x="982" 
d="M866 108q3 1 -1 -5.5t-10.5 -15t-12.5 -16.5t-7 -9q-16 -19 -36.5 -34t-44.5 -24t-50.5 -12t-53.5 3q-49 10 -89 38.5t-70 66.5q-17 -22 -39.5 -40t-46 -32t-44.5 -23.5t-34 -13.5q-45 -14 -80 -4.5t-57 35t-29.5 64t3.5 82t42.5 90t85.5 87.5q21 17 43 31t47 26v23
q0 24 5 54.5t16 59.5t29 53t44 35q12 5 25 4t22 -12q12 -14 14.5 -31.5t-1 -35.5t-12 -35t-19.5 -31q-21 -26 -48.5 -44t-56.5 -35q6 -72 29.5 -142.5t64.5 -134.5q19 32 37.5 70t17.5 79q-2 37 -29 58t-64 23q23 1 45 -6.5t37 -26.5q18 -22 20 -48t-5.5 -54t-21.5 -56
l-27 -54q17 -25 40 -50q37 -37 85 -56t101 -8q45 10 79 39.5t57 67.5zM415 546q-12 -31 -15.5 -63.5t0.5 -70.5q19 13 42.5 30.5t43 38.5t33 45.5t13.5 51.5q0 10 -2.5 19.5t-8.5 17.5q-8 11 -20 11.5t-23 -4.5q-23 -11 -38.5 -32t-24.5 -44zM298 -6q30 5 57.5 17.5t51 29
t42.5 35t32 36.5q-22 28 -39 64.5t-29.5 75.5t-20 77t-10.5 68q-16 -8 -31 -17.5t-29 -20.5q-47 -35 -77.5 -77.5t-46 -85.5t-16.5 -82.5t11.5 -68.5t39 -43.5t65.5 -7.5z" />
    <glyph glyph-name="parenleft" unicode="(" horiz-adv-x="422" 
d="M490 598q-85 -45 -163.5 -98t-143.5 -125q-28 -30 -54.5 -69.5t-47 -84.5t-33 -92t-11.5 -92t17.5 -86t53.5 -72q-40 28 -59.5 69t-24.5 86t3 91t23 85q28 73 75 133t106 108t125.5 84t133.5 63z" />
    <glyph glyph-name="parenright" unicode=")" horiz-adv-x="433" 
d="M0 -121q76 41 152 91.5t138 113t105 137t53 164.5q3 28 2 57.5t-8.5 58t-22 53.5t-37.5 44q40 -27 60 -67.5t24.5 -86t-3.5 -91.5t-23 -85q-28 -74 -75 -134t-105.5 -108t-125.5 -84.5t-134 -62.5z" />
    <glyph glyph-name="quotesingle" unicode="'" horiz-adv-x="202" 
d="M187 399q22 23 36 50t20 56q2 8 6.5 15t13.5 1q6 -3 4 -13t-7.5 -21t-12 -20.5t-8.5 -13.5q-20 -30 -52 -54z" />
    <glyph glyph-name="exclam" unicode="!" horiz-adv-x="416" 
d="M427 631q16 18 26.5 19.5t15.5 -5t5.5 -18t-2.5 -19.5q-1 5 -3 9q-2 3 -5.5 4.5t-9.5 -0.5q-5 -2 -21.5 -23.5t-39.5 -57t-50 -82t-53 -98.5q-29 -60 -53.5 -123t-29.5 -124v10.5t1 11.5q0 3 1.5 15.5t5.5 31.5t10 41t14 43q33 90 63 154t55 107t43 67.5t27 36.5zM195 37
q4 -1 6.5 -8t1.5 -14t-6.5 -11.5t-15.5 -1.5q-9 2 -10 8.5t3 12.5t10 10.5t11 3.5z" />
    <glyph glyph-name="exclamdown" unicode="&#xa1;" horiz-adv-x="462" 
d="M170 38q2 15 7 45t19 77.5t39 114t66 153.5q18 38 40 70.5t47 59.5q-40 -47 -68.5 -108t-51.5 -124q-19 -55 -33.5 -106.5t-23.5 -92.5t-13 -68t-2 -32q4 -11 13 -9q4 1 9 4q-4 -8 -12.5 -15.5t-17 -8t-14.5 7.5t-4 32zM434 620q-4 3 -5 10t0.5 14t6.5 10.5t13 -0.5
q9 -6 9.5 -13t-3.5 -12.5t-10.5 -8.5t-10.5 0z" />
    <glyph glyph-name="quotedbl" unicode="&#x22;" horiz-adv-x="202" 
d="M74 521q6 -3 4.5 -12.5t-7 -20.5t-12 -21t-9.5 -14q-20 -30 -52 -54q20 20 35 48.5t21 57.5q2 8 6 14.5t14 1.5zM143 521q6 -3 4.5 -12.5t-7 -20.5t-12 -21t-9.5 -14q-21 -32 -52 -54q21 21 35 48t22 58q2 7 5 14t14 2z" />
    <glyph glyph-name="comma" unicode="," horiz-adv-x="114" 
d="M0 -68q22 23 36 50.5t20 55.5q2 8 6 15t14 2q8 -5 5.5 -12.5t-5.5 -14.5q-15 -29 -33.5 -54t-42.5 -42z" />
    <glyph glyph-name="period" unicode="." horiz-adv-x="305" 
d="M146 29q3 -1 5 -6t1 -10.5t-5 -9t-12 -1.5q-7 2 -7.5 7t2.5 9.5t7.5 8t8.5 2.5z" />
    <glyph glyph-name="slash" unicode="/" horiz-adv-x="422" 
d="M519 743q-27 -41 -52.5 -82.5t-50.5 -83.5q-28 -48 -55.5 -96t-54.5 -96q-45 -80 -84 -150t-74 -141q-11 -22 -22 -43t-19 -44q-1 -2 -1.5 -4t-1.5 -4q11 50 30.5 94t39.5 87q23 51 48.5 100t52.5 98q54 95 110 185t125 170q2 2 4.5 5t4.5 5z" />
    <glyph glyph-name="colon" unicode=":" horiz-adv-x="360" 
d="M198 173q4 -1 5.5 -6.5t1 -11t-5 -9t-12.5 -1.5q-7 2 -7.5 7t2.5 10t7.5 8.5t8.5 2.5zM173 89q3 -1 5 -6.5t1 -11t-5 -9t-12 -1.5q-7 2 -7.5 7t2.5 10t7.5 8.5t8.5 2.5z" />
    <glyph glyph-name="semicolon" unicode=";" horiz-adv-x="130" 
d="M79 55q8 -5 5.5 -12.5t-5.5 -14.5q-14 -27 -32 -52t-44 -44q22 22 35.5 49t21.5 57q2 8 5 14t14 3zM92 127q3 -1 5 -6.5t1 -11t-5 -9t-12 -1.5q-7 2 -7.5 7t2.5 10t7.5 8.5t8.5 2.5z" />
    <glyph glyph-name="question" unicode="?" horiz-adv-x="465" 
d="M296 568q38 57 76 82.5t72 28.5t62 -12.5t46 -40.5t23 -55.5t-6 -57.5q-15 -36 -45.5 -67t-67.5 -60t-77 -57.5t-74.5 -58t-59 -62t-31.5 -70.5q-1 0 -1.5 0.5t-1.5 0.5q4 37 29 72.5t60.5 69t77 66t78.5 63t65 60t37 56.5q12 39 1.5 70t-36 48.5t-61.5 19t-73 -17
t-71.5 -60t-57.5 -110.5q-3 -10 -4 -23t2 -25t10.5 -21t19.5 -12q14 -3 32.5 1t32 11.5t16.5 17t-14 17.5q13 7 23.5 6.5t15.5 -2.5q14 -8 8 -19.5t-23 -22t-40.5 -16.5t-44 -2.5t-34 19t-10.5 48.5q1 13 7 30t13 33.5t14 30t12 21.5zM189 36q5 -1 7.5 -8t1 -14t-7 -12
t-15.5 -2q-9 3 -10 9t2.5 12.5t10 11t11.5 3.5z" />
    <glyph glyph-name="questiondown" unicode="&#xbf;" horiz-adv-x="607" 
d="M224 35q-20 17 -30 42t-8 51q2 23 11.5 42t23.5 37q35 44 73 83t79 77q18 18 36 37t33 40q17 23 29 47.5t22 51.5q1 0 1.5 -0.5t1.5 -0.5q-16 -46 -41.5 -86.5t-60.5 -78.5q-18 -20 -36 -40.5t-36 -41.5q-13 -16 -30.5 -36t-34.5 -41.5t-31 -44t-20 -42.5q-6 -26 0 -52
t26 -44q19 -18 41.5 -21t45 3.5t43.5 20t38 27.5q34 29 59 69t28 85q2 22 -7 42.5t-35 21.5q-9 0 -23 -5t-27 -12.5t-21.5 -16t-8.5 -16.5q0 -4 3.5 -6t8 -3t8.5 -0.5t5 0.5q-12 -8 -22.5 -9.5t-15.5 0.5q-14 6 -8 18.5t22.5 25t39 21t43.5 7.5q13 -1 22.5 -8t15 -17.5
t7.5 -22.5t2 -23q-2 -51 -29.5 -99t-70.5 -82q-17 -12 -36.5 -20.5t-41.5 -10.5q-26 -2 -50.5 5.5t-43.5 25.5zM506 647q-5 1 -8 7.5t-3 14t5 12.5t16 4q9 -2 10.5 -8t-1.5 -13t-8.5 -12t-10.5 -5z" />
    <glyph glyph-name="backslash" unicode="\" horiz-adv-x="573" 
d="M381 -35q-34 34 -60 74t-48 82q-26 49 -48 99.5t-41 102.5q-17 48 -32 96t-26 97q-5 23 -9 45t-6 45q-2 21 -3 42t4 41q-2 -23 1.5 -45t8.5 -44q11 -49 27 -100q16 -54 34.5 -106.5t38.5 -104.5q17 -46 36 -90.5t40 -88.5q18 -38 38 -74.5t45 -70.5z" />
    <glyph glyph-name="bar" unicode="|" horiz-adv-x="511" 
d="M318 651q-15 -81 -28 -164.5t-21.5 -167.5t-10 -167t6.5 -162q-21 75 -25 161.5t5 174.5t28 172t45 153z" />
    <glyph glyph-name="at" unicode="@" horiz-adv-x="566" 
d="M135 -53q22 -30 51.5 -40t62.5 -6t67.5 20.5t66.5 41t58.5 54t44.5 59.5q-34 -61 -88.5 -109.5t-124.5 -67.5q-43 -13 -79 -7.5t-60.5 27.5t-37 58.5t-8.5 84.5q4 50 24.5 101t54 95.5t78 78t95.5 48.5q25 7 50 6t48 -14q29 -17 43 -44.5t17 -60.5t-3.5 -67.5
t-19.5 -65.5q-6 -14 -21.5 -37.5t-36 -45.5t-42.5 -38t-40 -16q-13 -1 -18 15.5t6 57.5l10 36q-11 -25 -31 -47.5t-42.5 -38t-43.5 -21t-33 3t-11.5 34.5t19.5 74q8 20 22 39.5t30.5 36.5t34.5 30t34 19q15 6 36 3.5t32 -19.5q12 20 21.5 21.5t15 -6t7 -20t-2.5 -19.5
q0 5 -2 9q-4 8 -11 2q-13 -11 -22.5 -29t-16 -37.5t-11 -39t-7.5 -33.5q-5 -25 -2.5 -35t10 -10.5t18 6.5t21.5 17t20 20.5t14 16.5q30 40 44.5 92.5t-2.5 106.5q-14 45 -43 64.5t-63.5 20t-71 -15.5t-66.5 -42q-36 -33 -63 -75t-42 -89q-8 -23 -13.5 -49.5t-5.5 -53.5
t6.5 -53t22.5 -47zM208 101q-15 -42 -3.5 -60.5t35.5 -12t54.5 37.5t53.5 88q22 49 11 69.5t-37.5 14t-59 -41t-54.5 -95.5z" />
    <glyph glyph-name="space" unicode=" " horiz-adv-x="197" 
 />
    <glyph glyph-name="A" unicode="A" horiz-adv-x="732" 
d="M859 -209q54 -8 105 7t98.5 42.5t91 63t82.5 69.5q-27 -26 -60.5 -55t-71.5 -55.5t-79.5 -47t-84.5 -30t-85.5 -5t-83.5 29.5q-39 25 -66.5 62t-45.5 81.5t-27 94.5t-11.5 100.5t0.5 99.5t10 91q-14 2 -36 5t-32 4q-12 -23 -23.5 -43.5t-24.5 -42.5q-20 -35 -44.5 -78.5
t-54.5 -88t-64.5 -87t-74.5 -77t-84 -56.5t-93 -26q-25 -2 -46 9.5t-34 32.5q-20 33 -21.5 72.5t10 79.5t32 76.5t43.5 65.5q34 41 76 73.5t90 55.5q65 29 138 40.5t148 3.5q27 39 53 79t54.5 79.5t60 76.5t69.5 69q13 13 35 32t46.5 37t49.5 33t45 21q17 5 22 -6t-1 -25
q-5 -12 -12 -18.5t-15 -12.5q7 7 8 15t-3 13t-13.5 6t-23.5 -6q-49 -24 -89 -70.5t-71 -103.5t-53 -118t-35 -115q16 -3 35 -3.5t37.5 3t34 11t24.5 21.5q-10 -23 -26 -33.5t-35 -13.5t-38 -1t-34 5q-11 -60 -15.5 -122.5t3.5 -128.5q5 -46 19 -93.5t39 -88.5t62 -70.5
t90 -38.5zM420 146q29 51 56.5 102.5t57.5 102.5q-71 7 -140.5 -1.5t-134.5 -40.5q-48 -23 -88 -57t-70 -78q-10 -14 -22 -37t-22.5 -50.5t-18 -57.5t-8.5 -58t6 -51.5t26 -38.5q27 -21 61 -17.5t67 20t61.5 40t45.5 42.5q38 42 67 87t56 93zM568 355q17 -2 32 -4t32 -5
q10 47 25 93.5t36 91.5q23 45 52 86.5t66 75.5q-42 -33 -75.5 -73t-62 -83.5t-54.5 -89.5t-51 -92z" />
    <glyph glyph-name="Agrave" unicode="&#xc0;" horiz-adv-x="719" 
d="M1002 840q-6 0 -25.5 5t-40 12.5t-35 17t-8.5 20.5q4 7 10 5.5t12.5 -7t13.5 -12.5t13 -11q14 -9 28.5 -17t31.5 -13zM859 -209q54 -8 105 7t98.5 42.5t91 63t82.5 69.5q-27 -26 -60.5 -55t-71.5 -55.5t-79.5 -47t-84.5 -30t-85.5 -5t-83.5 29.5q-39 25 -66.5 62
t-45.5 81.5t-27 94.5t-11.5 100.5t0.5 99.5t10 91q-14 2 -36 5t-32 4q-12 -23 -23.5 -43.5t-24.5 -42.5q-20 -35 -44.5 -78.5t-54.5 -88t-64.5 -87t-74.5 -77t-84 -56.5t-93 -26q-25 -2 -46 9.5t-34 32.5q-20 33 -21.5 72.5t10 79.5t32 76.5t43.5 65.5q34 41 76 73.5
t90 55.5q65 29 138 40.5t148 3.5q27 39 53 79t54.5 79.5t60 76.5t69.5 69q13 13 35 32t46.5 37t49.5 33t45 21q17 5 22 -6t-1 -25q-5 -12 -12 -18.5t-15 -12.5q7 7 8 15t-3 13t-13.5 6t-23.5 -6q-49 -24 -89 -70.5t-71 -103.5t-53 -118t-35 -115q16 -3 35 -3.5t37.5 3t34 11
t24.5 21.5q-10 -23 -26 -33.5t-35 -13.5t-38 -1t-34 5q-11 -60 -15.5 -122.5t3.5 -128.5q5 -46 19 -93.5t39 -88.5t62 -70.5t90 -38.5zM420 146q29 51 56.5 102.5t57.5 102.5q-71 7 -140.5 -1.5t-134.5 -40.5q-48 -23 -88 -57t-70 -78q-10 -14 -22 -37t-22.5 -50.5
t-18 -57.5t-8.5 -58t6 -51.5t26 -38.5q27 -21 61 -17.5t67 20t61.5 40t45.5 42.5q38 42 67 87t56 93zM568 355q17 -2 32 -4t32 -5q10 47 25 93.5t36 91.5q23 45 52 86.5t66 75.5q-42 -33 -75.5 -73t-62 -83.5t-54.5 -89.5t-51 -92z" />
    <glyph glyph-name="Aacute" unicode="&#xc1;" horiz-adv-x="719" 
d="M1030 877q-9 -6 -18 -10.5t-18 -9.5q-16 -7 -32.5 -11.5t-33.5 -5.5q17 5 31.5 12.5t28.5 17.5q17 13 27 25q5 5 11 6.5t11 -5.5q4 -6 1 -11t-8 -8zM859 -209q54 -8 105 7t98.5 42.5t91 63t82.5 69.5q-27 -26 -60.5 -55t-71.5 -55.5t-79.5 -47t-84.5 -30t-85.5 -5
t-83.5 29.5q-39 25 -66.5 62t-45.5 81.5t-27 94.5t-11.5 100.5t0.5 99.5t10 91q-14 2 -36 5t-32 4q-12 -23 -23.5 -43.5t-24.5 -42.5q-20 -35 -44.5 -78.5t-54.5 -88t-64.5 -87t-74.5 -77t-84 -56.5t-93 -26q-25 -2 -46 9.5t-34 32.5q-20 33 -21.5 72.5t10 79.5t32 76.5
t43.5 65.5q34 41 76 73.5t90 55.5q65 29 138 40.5t148 3.5q27 39 53 79t54.5 79.5t60 76.5t69.5 69q13 13 35 32t46.5 37t49.5 33t45 21q17 5 22 -6t-1 -25q-5 -12 -12 -18.5t-15 -12.5q7 7 8 15t-3 13t-13.5 6t-23.5 -6q-49 -24 -89 -70.5t-71 -103.5t-53 -118t-35 -115
q16 -3 35 -3.5t37.5 3t34 11t24.5 21.5q-10 -23 -26 -33.5t-35 -13.5t-38 -1t-34 5q-11 -60 -15.5 -122.5t3.5 -128.5q5 -46 19 -93.5t39 -88.5t62 -70.5t90 -38.5zM420 146q29 51 56.5 102.5t57.5 102.5q-71 7 -140.5 -1.5t-134.5 -40.5q-48 -23 -88 -57t-70 -78
q-10 -14 -22 -37t-22.5 -50.5t-18 -57.5t-8.5 -58t6 -51.5t26 -38.5q27 -21 61 -17.5t67 20t61.5 40t45.5 42.5q38 42 67 87t56 93zM568 355q17 -2 32 -4t32 -5q10 47 25 93.5t36 91.5q23 45 52 86.5t66 75.5q-42 -33 -75.5 -73t-62 -83.5t-54.5 -89.5t-51 -92z" />
    <glyph glyph-name="Acircumflex" unicode="&#xc2;" horiz-adv-x="719" 
d="M917 850q-35 -5 -65 -2q32 2 60.5 11.5t62.5 23.5q9 4 13.5 -5.5t7.5 -15.5q8 -14 18 -27.5t24 -19.5q-19 4 -35 19t-27 31q-14 -6 -29 -9.5t-30 -5.5zM859 -209q54 -8 105 7t98.5 42.5t91 63t82.5 69.5q-27 -26 -60.5 -55t-71.5 -55.5t-79.5 -47t-84.5 -30t-85.5 -5
t-83.5 29.5q-39 25 -66.5 62t-45.5 81.5t-27 94.5t-11.5 100.5t0.5 99.5t10 91q-14 2 -36 5t-32 4q-12 -23 -23.5 -43.5t-24.5 -42.5q-20 -35 -44.5 -78.5t-54.5 -88t-64.5 -87t-74.5 -77t-84 -56.5t-93 -26q-25 -2 -46 9.5t-34 32.5q-20 33 -21.5 72.5t10 79.5t32 76.5
t43.5 65.5q34 41 76 73.5t90 55.5q65 29 138 40.5t148 3.5q27 39 53 79t54.5 79.5t60 76.5t69.5 69q13 13 35 32t46.5 37t49.5 33t45 21q17 5 22 -6t-1 -25q-5 -12 -12 -18.5t-15 -12.5q7 7 8 15t-3 13t-13.5 6t-23.5 -6q-49 -24 -89 -70.5t-71 -103.5t-53 -118t-35 -115
q16 -3 35 -3.5t37.5 3t34 11t24.5 21.5q-10 -23 -26 -33.5t-35 -13.5t-38 -1t-34 5q-11 -60 -15.5 -122.5t3.5 -128.5q5 -46 19 -93.5t39 -88.5t62 -70.5t90 -38.5zM420 146q29 51 56.5 102.5t57.5 102.5q-71 7 -140.5 -1.5t-134.5 -40.5q-48 -23 -88 -57t-70 -78
q-10 -14 -22 -37t-22.5 -50.5t-18 -57.5t-8.5 -58t6 -51.5t26 -38.5q27 -21 61 -17.5t67 20t61.5 40t45.5 42.5q38 42 67 87t56 93zM568 355q17 -2 32 -4t32 -5q10 47 25 93.5t36 91.5q23 45 52 86.5t66 75.5q-42 -33 -75.5 -73t-62 -83.5t-54.5 -89.5t-51 -92z" />
    <glyph glyph-name="Atilde" unicode="&#xc3;" horiz-adv-x="719" 
d="M1003 826q-14 -7 -24.5 -3t-20 11.5t-19.5 14t-23 4.5q-11 -2 -21 -7.5t-19 -12.5q17 17 36.5 25.5t43.5 -4.5q6 -3 11.5 -6.5t11.5 -5.5q16 -7 32.5 0t29.5 17q-9 -8 -18 -17.5t-20 -15.5zM859 -209q54 -8 105 7t98.5 42.5t91 63t82.5 69.5q-27 -26 -60.5 -55
t-71.5 -55.5t-79.5 -47t-84.5 -30t-85.5 -5t-83.5 29.5q-39 25 -66.5 62t-45.5 81.5t-27 94.5t-11.5 100.5t0.5 99.5t10 91q-14 2 -36 5t-32 4q-12 -23 -23.5 -43.5t-24.5 -42.5q-20 -35 -44.5 -78.5t-54.5 -88t-64.5 -87t-74.5 -77t-84 -56.5t-93 -26q-25 -2 -46 9.5
t-34 32.5q-20 33 -21.5 72.5t10 79.5t32 76.5t43.5 65.5q34 41 76 73.5t90 55.5q65 29 138 40.5t148 3.5q27 39 53 79t54.5 79.5t60 76.5t69.5 69q13 13 35 32t46.5 37t49.5 33t45 21q17 5 22 -6t-1 -25q-5 -12 -12 -18.5t-15 -12.5q7 7 8 15t-3 13t-13.5 6t-23.5 -6
q-49 -24 -89 -70.5t-71 -103.5t-53 -118t-35 -115q16 -3 35 -3.5t37.5 3t34 11t24.5 21.5q-10 -23 -26 -33.5t-35 -13.5t-38 -1t-34 5q-11 -60 -15.5 -122.5t3.5 -128.5q5 -46 19 -93.5t39 -88.5t62 -70.5t90 -38.5zM420 146q29 51 56.5 102.5t57.5 102.5q-71 7 -140.5 -1.5
t-134.5 -40.5q-48 -23 -88 -57t-70 -78q-10 -14 -22 -37t-22.5 -50.5t-18 -57.5t-8.5 -58t6 -51.5t26 -38.5q27 -21 61 -17.5t67 20t61.5 40t45.5 42.5q38 42 67 87t56 93zM568 355q17 -2 32 -4t32 -5q10 47 25 93.5t36 91.5q23 45 52 86.5t66 75.5q-42 -33 -75.5 -73
t-62 -83.5t-54.5 -89.5t-51 -92z" />
    <glyph glyph-name="Adieresis" unicode="&#xc4;" horiz-adv-x="719" 
d="M990 833q-10 3 -10.5 9.5t3 13.5t10.5 11.5t12 3.5t7.5 -8.5t1 -15t-7 -12.5t-16.5 -2zM903 833q-10 3 -10.5 9.5t3 13.5t10.5 11.5t12 3.5t7.5 -8.5t1.5 -15t-7 -12.5t-17 -2zM859 -209q54 -8 105 7t98.5 42.5t91 63t82.5 69.5q-27 -26 -60.5 -55t-71.5 -55.5t-79.5 -47
t-84.5 -30t-85.5 -5t-83.5 29.5q-39 25 -66.5 62t-45.5 81.5t-27 94.5t-11.5 100.5t0.5 99.5t10 91q-14 2 -36 5t-32 4q-12 -23 -23.5 -43.5t-24.5 -42.5q-20 -35 -44.5 -78.5t-54.5 -88t-64.5 -87t-74.5 -77t-84 -56.5t-93 -26q-25 -2 -46 9.5t-34 32.5q-20 33 -21.5 72.5
t10 79.5t32 76.5t43.5 65.5q34 41 76 73.5t90 55.5q65 29 138 40.5t148 3.5q27 39 53 79t54.5 79.5t60 76.5t69.5 69q13 13 35 32t46.5 37t49.5 33t45 21q17 5 22 -6t-1 -25q-5 -12 -12 -18.5t-15 -12.5q7 7 8 15t-3 13t-13.5 6t-23.5 -6q-49 -24 -89 -70.5t-71 -103.5
t-53 -118t-35 -115q16 -3 35 -3.5t37.5 3t34 11t24.5 21.5q-10 -23 -26 -33.5t-35 -13.5t-38 -1t-34 5q-11 -60 -15.5 -122.5t3.5 -128.5q5 -46 19 -93.5t39 -88.5t62 -70.5t90 -38.5zM420 146q29 51 56.5 102.5t57.5 102.5q-71 7 -140.5 -1.5t-134.5 -40.5q-48 -23 -88 -57
t-70 -78q-10 -14 -22 -37t-22.5 -50.5t-18 -57.5t-8.5 -58t6 -51.5t26 -38.5q27 -21 61 -17.5t67 20t61.5 40t45.5 42.5q38 42 67 87t56 93zM568 355q17 -2 32 -4t32 -5q10 47 25 93.5t36 91.5q23 45 52 86.5t66 75.5q-42 -33 -75.5 -73t-62 -83.5t-54.5 -89.5t-51 -92z" />
    <glyph glyph-name="Aring" unicode="&#xc5;" horiz-adv-x="719" 
d="M898 807q-11 8 -7 24t16 32t28.5 26.5t29.5 6.5q9 -3 10.5 -10.5t-0.5 -16.5t-7 -18.5t-9 -16.5q-4 -6 -11 -13.5t-15 -12.5t-17 -6t-18 5zM912 851q-6 -17 1.5 -29.5t18.5 -5.5q18 11 24.5 26t5 26.5t-9 17t-17.5 -1.5q-17 -12 -23 -33zM859 -209q54 -8 105 7t98.5 42.5
t91 63t82.5 69.5q-27 -26 -60.5 -55t-71.5 -55.5t-79.5 -47t-84.5 -30t-85.5 -5t-83.5 29.5q-39 25 -66.5 62t-45.5 81.5t-27 94.5t-11.5 100.5t0.5 99.5t10 91q-14 2 -36 5t-32 4q-12 -23 -23.5 -43.5t-24.5 -42.5q-20 -35 -44.5 -78.5t-54.5 -88t-64.5 -87t-74.5 -77
t-84 -56.5t-93 -26q-25 -2 -46 9.5t-34 32.5q-20 33 -21.5 72.5t10 79.5t32 76.5t43.5 65.5q34 41 76 73.5t90 55.5q65 29 138 40.5t148 3.5q27 39 53 79t54.5 79.5t60 76.5t69.5 69q13 13 35 32t46.5 37t49.5 33t45 21q17 5 22 -6t-1 -25q-5 -12 -12 -18.5t-15 -12.5
q7 7 8 15t-3 13t-13.5 6t-23.5 -6q-49 -24 -89 -70.5t-71 -103.5t-53 -118t-35 -115q16 -3 35 -3.5t37.5 3t34 11t24.5 21.5q-10 -23 -26 -33.5t-35 -13.5t-38 -1t-34 5q-11 -60 -15.5 -122.5t3.5 -128.5q5 -46 19 -93.5t39 -88.5t62 -70.5t90 -38.5zM420 146
q29 51 56.5 102.5t57.5 102.5q-71 7 -140.5 -1.5t-134.5 -40.5q-48 -23 -88 -57t-70 -78q-10 -14 -22 -37t-22.5 -50.5t-18 -57.5t-8.5 -58t6 -51.5t26 -38.5q27 -21 61 -17.5t67 20t61.5 40t45.5 42.5q38 42 67 87t56 93zM568 355q17 -2 32 -4t32 -5q10 47 25 93.5t36 91.5
q23 45 52 86.5t66 75.5q-42 -33 -75.5 -73t-62 -83.5t-54.5 -89.5t-51 -92z" />
    <glyph glyph-name="AE" unicode="&#xc6;" horiz-adv-x="1420" 
d="M1474 -123q42 22 79.5 48t75.5 54q-74 -64 -160.5 -112.5t-184.5 -61.5q-53 -8 -107 0t-98 40q-50 -32 -105 -51q-49 -15 -102 -15t-101 31q-45 28 -73 72t-45 92q-31 89 -32.5 178.5t9.5 183.5q1 2 -0.5 2t-3.5 1q-6 1 -16.5 2.5t-20 3t-17 3t-8.5 1.5q-38 -65 -76 -133
t-91 -144q-13 -18 -39 -49.5t-60 -65.5t-72.5 -63.5t-76.5 -43.5t-71.5 -7t-58.5 48q-14 23 -17.5 50t-0.5 53q5 53 27.5 101.5t55.5 89.5t75 73.5t90 55.5q50 23 103.5 34t108.5 12q14 0 36.5 -0.5t37.5 -2.5q3 0 5 4q20 33 37.5 59t37.5 55q35 48 72 97t85 90
q14 14 35.5 32.5t45.5 36.5t49 33t46 21q6 2 12.5 1.5t10.5 -6.5q7 -15 -4.5 -32t-24.5 -25q2 2 4 10t3 11q1 16 -10.5 15t-27.5 -9.5t-32 -21t-23 -18.5q-79 -71 -125 -167.5t-68 -198.5q32 -7 68 2t62 30q-8 -11 -23 -20t-33.5 -15t-38.5 -8.5t-37 0.5q-5 -27 -9 -54
t-6 -55q-3 -35 -2.5 -71t4.5 -71q6 -51 22 -100.5t43 -93.5q24 -37 61.5 -64t84.5 -33q53 -8 104 8t97 42q3 2 6.5 4t7.5 4q-9 6 -17 14q-1 2 -3 4q-4 -2 -8.5 -3.5t-9.5 -3.5q-37 -12 -78 -19.5t-84 0.5q-56 10 -85.5 51.5t-29.5 98.5q0 48 15 96t39 91q26 48 62 87.5
t78 72.5t89 59t97 46q-8 5 -16 13t-10 18q-38 0 -76.5 4t-71.5 27q-20 14 -29 33t-9 40t8 41.5t23 38.5q20 25 45.5 42.5t51 29.5t47.5 18.5t35 9.5q32 7 50 6t24 -5q7 -5 4.5 -11.5t-9 -11.5t-15.5 -9t-13 -5q5 2 10.5 9t4.5 12q-2 11 -20.5 12t-42 -4t-47 -13.5
t-36.5 -14.5q-23 -12 -43 -28t-34 -38q-12 -18 -20 -40.5t-6 -45.5q3 -27 21 -43.5t42.5 -26t52 -13t49.5 -4.5q-5 20 -0.5 40.5t12.5 38.5q10 20 23.5 36t30.5 30q41 35 88.5 60.5t98.5 42.5q18 6 48.5 10.5t57 1t41 -19.5t1.5 -52q-9 -25 -26.5 -45t-37.5 -36
q-22 -17 -45.5 -31t-48.5 -25q-51 -23 -105 -38t-110 -21q3 -4 12 -14.5t16 -8.5q25 9 63 19.5t74.5 17.5t63.5 6.5t31 -13.5q-2 -15 -20 -26.5t-40.5 -19t-44.5 -11.5t-33 -5q-26 -2 -53 0.5t-53 13.5q-1 0 -13 -5.5t-27.5 -13t-31 -15.5t-22.5 -12q-45 -28 -85 -62.5
t-73 -75t-58 -86.5t-38 -98q-6 -23 -10 -49.5t-2 -52t11.5 -48t31.5 -38.5q23 -16 50 -22t53 -5q28 0 55.5 5.5t54.5 14.5q-28 31 -40.5 69.5t-12.5 78.5q0 51 15 100.5t42 92.5t65 77.5t85 54.5q22 9 49 16.5t53.5 7.5t50.5 -8.5t41 -30.5q15 -20 18.5 -42.5t0 -46.5
t-12 -47t-17.5 -44q-23 -47 -56 -87t-72 -74q-37 -34 -76 -67t-84 -65q37 -26 82 -36t90 -6q54 4 105 20.5t99 41.5v0zM1311 486q-70 -11 -137 -39q42 -13 84 -15t87 13q6 2 16 7.5t18.5 12t12 12.5t-3.5 10q-15 8 -36.5 5t-40.5 -6zM1132 514q-1 -8 -0.5 -15t2.5 -15
q44 2 86 13q54 13 101.5 38.5t91.5 59.5q20 16 39.5 33.5t33.5 39.5q7 10 12 22.5t0 25.5q-7 16 -26 21t-41.5 3.5t-44 -7.5t-33.5 -11q-26 -9 -50 -22t-47 -28t-43 -32.5t-37 -38.5q-14 -19 -27 -41t-17 -46zM297 -34q37 42 68 88.5t58.5 96t54.5 100t56 100.5
q-72 7 -141.5 -1.5t-133.5 -40.5q-48 -23 -88.5 -57t-70.5 -78q-29 -44 -48.5 -94.5t-21.5 -104.5q-1 -24 5 -51t27 -43q26 -22 60 -18t67.5 21t62 40.5t45.5 41.5zM632 346q16 51 29.5 96t32 87t46 82t71.5 82q-42 -33 -75.5 -73t-63 -84t-55 -90t-50.5 -92
q15 -2 30.5 -4.5t34.5 -3.5zM1024 77q-2 -13 -2 -39.5t4.5 -56.5t15.5 -57.5t31 -42.5q53 18 104 53.5t93 82.5t72.5 103t42.5 114q5 22 2.5 45t-16.5 41q-17 20 -42.5 28t-50.5 6q-51 -2 -97 -29t-79 -65t-52 -85t-26 -98zM1077 -124q4 -5 8 -8.5t8 -6.5q33 20 63.5 44
t59.5 50q-66 -49 -139 -79z" />
    <glyph glyph-name="Ccedilla" unicode="&#xc7;" horiz-adv-x="682" 
d="M678 -208q102 35 189 92t172 124q-67 -67 -157.5 -125.5t-185.5 -96.5q-51 -20 -103.5 -34t-107.5 -16q-54 -2 -107.5 12t-95.5 52q-16 15 -27.5 30t-21.5 38h-2h-3q-13 -2 -25 -4.5t-26 -3.5q8 -21 -6.5 -44.5t-32.5 -45.5q15 2 30 -0.5t26 -11.5q19 -14 18 -36.5
t-10 -41.5q-11 -20 -26 -36t-33 -30q-17 -13 -36 -23t-40 -15q37 22 66 49q14 14 27.5 30t21.5 35t5 36.5t-26 23.5q-12 4 -24.5 6t-25.5 4q10 6 22.5 17t23 24.5t16 28.5t1.5 30q-20 0 -41 2t-40.5 8.5t-37 19t-30.5 34.5q-14 23 -19.5 50t-5.5 54q-1 42 8 84.5t23 83.5
q17 50 43 96t57 90q-28 10 -49.5 29.5t-32.5 47.5q-9 26 -6.5 52t13.5 50q10 20 24.5 38t30.5 34q38 36 87 61q11 5 21.5 8.5t21.5 8.5q11 4 31 9.5t42.5 9t44 4t34.5 -4.5q15 -5 12 -13.5t-13.5 -17t-24 -15.5t-19.5 -8q2 0 6.5 3.5t9 8t7 10t-0.5 9.5q-11 14 -41.5 15.5
t-68.5 -9t-78 -34t-69 -58.5q-16 -19 -28.5 -40.5t-17.5 -44.5q-6 -26 -1.5 -51t20.5 -45q10 -14 21 -21.5t32 -21.5l3 3t6 7t6 7.5t5 5.5q63 79 141 144.5t167 113.5q19 10 44.5 22.5t53.5 21.5t56 12.5t52 -3.5q11 -4 21 -11t16 -18q9 -17 7.5 -35t-9.5 -36t-20 -35
t-25 -31q-18 -20 -38.5 -36.5t-43.5 -31.5t-46 -29t-48 -26q-34 -17 -72.5 -33t-79.5 -26.5t-83.5 -14t-83.5 4.5q-2 0 -6.5 1.5t-6.5 -1.5q-14 -17 -25 -37.5t-23 -43.5q-30 -57 -52.5 -121.5t-26.5 -133.5q-2 -26 1 -53.5t16 -51.5q13 -26 34.5 -39.5t46.5 -19t52 -4
t52 7.5q-14 31 -17.5 63t-1.5 66q2 30 7.5 59.5t14.5 58.5q16 49 43.5 94t65 81t84 60t99.5 32q26 4 53.5 2t50.5 -16t35 -37t12 -49q-2 -46 -24 -90t-50 -81q-32 -43 -71 -78.5t-83 -66.5q-45 -31 -92.5 -56t-98.5 -41q8 -16 21 -34q33 -43 83 -62.5t103 -22.5q55 -3 109 7
t105 27zM506 689q-104 -49 -191.5 -129t-150.5 -174q6 -2 12 -3.5t13 -2.5q54 -11 108.5 1t104.5 33q50 23 95.5 52t88.5 61q21 16 41 34t37 38q7 9 15 20t13.5 23t7 24.5t-2.5 24.5q-5 13 -15 20t-22.5 10t-25.5 3t-24 -1q-27 -3 -53 -12.5t-51 -21.5zM246 -96q2 -6 4 -11
t5 -11q5 2 11 4l12 4q11 4 22 8.5t22 9.5q97 45 173 120q38 38 70 81t55 91q10 22 18.5 45.5t9.5 47.5q2 28 -11 49q-17 29 -47.5 37t-65 3.5t-68 -18.5t-56.5 -29q-44 -29 -77 -70t-53 -89q-27 -64 -34 -133.5t10 -138.5z" />
    <glyph glyph-name="Eacute" unicode="&#xc9;" horiz-adv-x="653" 
d="M734 897q6 -10 -7 -20t-32.5 -17.5t-40 -12.5t-29.5 -6q24 6 46 20t42 34q5 5 10.5 7t10.5 -5zM511 -167q50 3 98 18.5t93 38.5t87.5 50.5t80.5 56.5q-37 -32 -77 -60.5t-83.5 -51.5t-89.5 -39t-95 -23q-64 -8 -124.5 4.5t-105.5 57.5q-28 -10 -64.5 -19t-74 -9.5
t-71.5 11t-56 42.5q-17 22 -23 48t-6 52q0 48 15 95.5t39 91.5q26 47 62 87t78 73t89 58.5t97 45.5q-8 5 -15.5 13t-10.5 19h-6q-24 -2 -57 2t-61.5 16.5t-47 35t-15.5 58.5q4 36 25 64.5t51 50t66 35.5t69 21q32 7 50 6t24 -5q8 -5 6.5 -11.5t-8.5 -12t-16 -9t-15 -3.5
q5 0 10.5 8t4.5 13q-2 11 -20.5 12t-42 -4.5t-47 -13.5t-36.5 -15q-23 -11 -43 -27.5t-34 -37.5q-15 -23 -21.5 -45.5t-2.5 -43t18.5 -37.5t43.5 -29q24 -10 49.5 -14t51.5 -4q-5 20 -0.5 40.5t12.5 38.5q10 20 23.5 36t30.5 30q26 22 61.5 45t75 40.5t80.5 26.5t77 4
q29 -4 40 -24.5t1 -49.5q-8 -24 -26 -44t-38 -36q-64 -51 -138.5 -80.5t-170.5 -34.5q1 -2 4.5 -6.5t7.5 -8.5t8.5 -7t7.5 -2q17 7 34.5 12t35.5 11q29 8 59.5 13.5t60.5 6.5h10t14 -1t12.5 -3.5t5.5 -8.5q0 -15 -17.5 -26t-40.5 -18.5t-46 -11.5t-34 -5q-26 -2 -54 0
t-52 13l-3 1.5t-3 -0.5q-23 -8 -44.5 -20.5t-43.5 -26.5q-45 -27 -85 -61.5t-73 -75t-58 -87t-38 -98.5q-6 -23 -10 -49t-2 -51.5t11.5 -48t31.5 -38.5q22 -17 48 -23t54 -5.5t56.5 7t54.5 14.5q-28 30 -40.5 68.5t-12.5 79.5q0 51 15 100t42 92t65 77.5t85 54.5
q22 10 49 17t53.5 7.5t50.5 -8.5t41 -31q15 -19 18.5 -41.5t0 -46t-12 -47t-17.5 -44.5q-23 -48 -56 -88t-72 -74q-41 -35 -86.5 -63.5t-94.5 -49.5q38 -38 89.5 -51.5t103.5 -9.5zM497 691q-18 -12 -42 -33t-43.5 -46.5t-31 -53.5t-5.5 -55q74 0 145.5 31t133.5 79
q20 16 39.5 33.5t33.5 39.5q14 23 11 45t-37 27q-26 4 -52.5 -0.5t-53 -14.5t-51.5 -23.5t-47 -28.5zM606 510q-47 0 -93.5 -13t-97.5 -31q17 -10 38.5 -13.5t44 -3t44.5 5t41 10.5q6 2 19.5 8.5t22 14t6.5 14t-25 8.5zM313 -101q53 19 103.5 54.5t93 83t73 103t42.5 114.5
q5 22 2.5 44.5t-16.5 40.5q-17 20 -42.5 28t-50.5 7q-51 -2 -97 -29t-79 -65q-33 -39 -52 -85.5t-26 -97.5t3 -104.5t46 -93.5z" />
    <glyph glyph-name="Egrave" unicode="&#xc8;" horiz-adv-x="653" 
d="M618 857q-3 1 -11.5 5t-17.5 9.5t-14.5 12t-1.5 12.5q3 8 13 6q3 -1 5 -3l4 -4q16 -18 38.5 -32.5t48.5 -21.5q-32 1 -64 16zM511 -167q50 3 98 18.5t93 38.5t87.5 50.5t80.5 56.5q-37 -32 -77 -60.5t-83.5 -51.5t-89.5 -39t-95 -23q-64 -8 -124.5 4.5t-105.5 57.5
q-28 -10 -64.5 -19t-74 -9.5t-71.5 11t-56 42.5q-17 22 -23 48t-6 52q0 48 15 95.5t39 91.5q26 47 62 87t78 73t89 58.5t97 45.5q-8 5 -15.5 13t-10.5 19h-6q-24 -2 -57 2t-61.5 16.5t-47 35t-15.5 58.5q4 36 25 64.5t51 50t66 35.5t69 21q32 7 50 6t24 -5q8 -5 6.5 -11.5
t-8.5 -12t-16 -9t-15 -3.5q5 0 10.5 8t4.5 13q-2 11 -20.5 12t-42 -4.5t-47 -13.5t-36.5 -15q-23 -11 -43 -27.5t-34 -37.5q-15 -23 -21.5 -45.5t-2.5 -43t18.5 -37.5t43.5 -29q24 -10 49.5 -14t51.5 -4q-5 20 -0.5 40.5t12.5 38.5q10 20 23.5 36t30.5 30q26 22 61.5 45
t75 40.5t80.5 26.5t77 4q29 -4 40 -24.5t1 -49.5q-8 -24 -26 -44t-38 -36q-64 -51 -138.5 -80.5t-170.5 -34.5q1 -2 4.5 -6.5t7.5 -8.5t8.5 -7t7.5 -2q17 7 34.5 12t35.5 11q29 8 59.5 13.5t60.5 6.5h10t14 -1t12.5 -3.5t5.5 -8.5q0 -15 -17.5 -26t-40.5 -18.5t-46 -11.5
t-34 -5q-26 -2 -54 0t-52 13l-3 1.5t-3 -0.5q-23 -8 -44.5 -20.5t-43.5 -26.5q-45 -27 -85 -61.5t-73 -75t-58 -87t-38 -98.5q-6 -23 -10 -49t-2 -51.5t11.5 -48t31.5 -38.5q22 -17 48 -23t54 -5.5t56.5 7t54.5 14.5q-28 30 -40.5 68.5t-12.5 79.5q0 51 15 100t42 92
t65 77.5t85 54.5q22 10 49 17t53.5 7.5t50.5 -8.5t41 -31q15 -19 18.5 -41.5t0 -46t-12 -47t-17.5 -44.5q-23 -48 -56 -88t-72 -74q-41 -35 -86.5 -63.5t-94.5 -49.5q38 -38 89.5 -51.5t103.5 -9.5zM497 691q-18 -12 -42 -33t-43.5 -46.5t-31 -53.5t-5.5 -55q74 0 145.5 31
t133.5 79q20 16 39.5 33.5t33.5 39.5q14 23 11 45t-37 27q-26 4 -52.5 -0.5t-53 -14.5t-51.5 -23.5t-47 -28.5zM606 510q-47 0 -93.5 -13t-97.5 -31q17 -10 38.5 -13.5t44 -3t44.5 5t41 10.5q6 2 19.5 8.5t22 14t6.5 14t-25 8.5zM313 -101q53 19 103.5 54.5t93 83t73 103
t42.5 114.5q5 22 2.5 44.5t-16.5 40.5q-17 20 -42.5 28t-50.5 7q-51 -2 -97 -29t-79 -65q-33 -39 -52 -85.5t-26 -97.5t3 -104.5t46 -93.5z" />
    <glyph glyph-name="Ecircumflex" unicode="&#xca;" horiz-adv-x="653" 
d="M637 851q-17 -2 -32.5 -3t-32.5 1q24 0 47.5 6t46.5 16q8 3 14.5 6.5t14.5 6.5q9 3 14 -6.5t8 -15.5q7 -14 17 -27.5t24 -19.5q-11 2 -20.5 8.5t-17.5 14.5q-7 7 -12.5 13.5t-11.5 13.5q-14 -5 -29 -8.5t-30 -5.5zM511 -167q50 3 98 18.5t93 38.5t87.5 50.5t80.5 56.5
q-37 -32 -77 -60.5t-83.5 -51.5t-89.5 -39t-95 -23q-64 -8 -124.5 4.5t-105.5 57.5q-28 -10 -64.5 -19t-74 -9.5t-71.5 11t-56 42.5q-17 22 -23 48t-6 52q0 48 15 95.5t39 91.5q26 47 62 87t78 73t89 58.5t97 45.5q-8 5 -15.5 13t-10.5 19h-6q-24 -2 -57 2t-61.5 16.5
t-47 35t-15.5 58.5q4 36 25 64.5t51 50t66 35.5t69 21q32 7 50 6t24 -5q8 -5 6.5 -11.5t-8.5 -12t-16 -9t-15 -3.5q5 0 10.5 8t4.5 13q-2 11 -20.5 12t-42 -4.5t-47 -13.5t-36.5 -15q-23 -11 -43 -27.5t-34 -37.5q-15 -23 -21.5 -45.5t-2.5 -43t18.5 -37.5t43.5 -29
q24 -10 49.5 -14t51.5 -4q-5 20 -0.5 40.5t12.5 38.5q10 20 23.5 36t30.5 30q26 22 61.5 45t75 40.5t80.5 26.5t77 4q29 -4 40 -24.5t1 -49.5q-8 -24 -26 -44t-38 -36q-64 -51 -138.5 -80.5t-170.5 -34.5q1 -2 4.5 -6.5t7.5 -8.5t8.5 -7t7.5 -2q17 7 34.5 12t35.5 11
q29 8 59.5 13.5t60.5 6.5h10t14 -1t12.5 -3.5t5.5 -8.5q0 -15 -17.5 -26t-40.5 -18.5t-46 -11.5t-34 -5q-26 -2 -54 0t-52 13l-3 1.5t-3 -0.5q-23 -8 -44.5 -20.5t-43.5 -26.5q-45 -27 -85 -61.5t-73 -75t-58 -87t-38 -98.5q-6 -23 -10 -49t-2 -51.5t11.5 -48t31.5 -38.5
q22 -17 48 -23t54 -5.5t56.5 7t54.5 14.5q-28 30 -40.5 68.5t-12.5 79.5q0 51 15 100t42 92t65 77.5t85 54.5q22 10 49 17t53.5 7.5t50.5 -8.5t41 -31q15 -19 18.5 -41.5t0 -46t-12 -47t-17.5 -44.5q-23 -48 -56 -88t-72 -74q-41 -35 -86.5 -63.5t-94.5 -49.5
q38 -38 89.5 -51.5t103.5 -9.5zM497 691q-18 -12 -42 -33t-43.5 -46.5t-31 -53.5t-5.5 -55q74 0 145.5 31t133.5 79q20 16 39.5 33.5t33.5 39.5q14 23 11 45t-37 27q-26 4 -52.5 -0.5t-53 -14.5t-51.5 -23.5t-47 -28.5zM606 510q-47 0 -93.5 -13t-97.5 -31
q17 -10 38.5 -13.5t44 -3t44.5 5t41 10.5q6 2 19.5 8.5t22 14t6.5 14t-25 8.5zM313 -101q53 19 103.5 54.5t93 83t73 103t42.5 114.5q5 22 2.5 44.5t-16.5 40.5q-17 20 -42.5 28t-50.5 7q-51 -2 -97 -29t-79 -65q-33 -39 -52 -85.5t-26 -97.5t3 -104.5t46 -93.5z" />
    <glyph glyph-name="Edieresis" unicode="&#xcb;" horiz-adv-x="653" 
d="M662 834q-10 3 -10.5 9.5t3.5 13t10.5 11.5t11.5 4t8 -8.5t1.5 -15t-7 -12.5t-17.5 -2zM575 834q-9 3 -10 9.5t3 13t10.5 11.5t11.5 4t8 -8.5t1.5 -15t-7 -12.5t-17.5 -2zM511 -167q50 3 98 18.5t93 38.5t87.5 50.5t80.5 56.5q-37 -32 -77 -60.5t-83.5 -51.5t-89.5 -39
t-95 -23q-64 -8 -124.5 4.5t-105.5 57.5q-28 -10 -64.5 -19t-74 -9.5t-71.5 11t-56 42.5q-17 22 -23 48t-6 52q0 48 15 95.5t39 91.5q26 47 62 87t78 73t89 58.5t97 45.5q-8 5 -15.5 13t-10.5 19h-6q-24 -2 -57 2t-61.5 16.5t-47 35t-15.5 58.5q4 36 25 64.5t51 50t66 35.5
t69 21q32 7 50 6t24 -5q8 -5 6.5 -11.5t-8.5 -12t-16 -9t-15 -3.5q5 0 10.5 8t4.5 13q-2 11 -20.5 12t-42 -4.5t-47 -13.5t-36.5 -15q-23 -11 -43 -27.5t-34 -37.5q-15 -23 -21.5 -45.5t-2.5 -43t18.5 -37.5t43.5 -29q24 -10 49.5 -14t51.5 -4q-5 20 -0.5 40.5t12.5 38.5
q10 20 23.5 36t30.5 30q26 22 61.5 45t75 40.5t80.5 26.5t77 4q29 -4 40 -24.5t1 -49.5q-8 -24 -26 -44t-38 -36q-64 -51 -138.5 -80.5t-170.5 -34.5q1 -2 4.5 -6.5t7.5 -8.5t8.5 -7t7.5 -2q17 7 34.5 12t35.5 11q29 8 59.5 13.5t60.5 6.5h10t14 -1t12.5 -3.5t5.5 -8.5
q0 -15 -17.5 -26t-40.5 -18.5t-46 -11.5t-34 -5q-26 -2 -54 0t-52 13l-3 1.5t-3 -0.5q-23 -8 -44.5 -20.5t-43.5 -26.5q-45 -27 -85 -61.5t-73 -75t-58 -87t-38 -98.5q-6 -23 -10 -49t-2 -51.5t11.5 -48t31.5 -38.5q22 -17 48 -23t54 -5.5t56.5 7t54.5 14.5
q-28 30 -40.5 68.5t-12.5 79.5q0 51 15 100t42 92t65 77.5t85 54.5q22 10 49 17t53.5 7.5t50.5 -8.5t41 -31q15 -19 18.5 -41.5t0 -46t-12 -47t-17.5 -44.5q-23 -48 -56 -88t-72 -74q-41 -35 -86.5 -63.5t-94.5 -49.5q38 -38 89.5 -51.5t103.5 -9.5zM497 691
q-18 -12 -42 -33t-43.5 -46.5t-31 -53.5t-5.5 -55q74 0 145.5 31t133.5 79q20 16 39.5 33.5t33.5 39.5q14 23 11 45t-37 27q-26 4 -52.5 -0.5t-53 -14.5t-51.5 -23.5t-47 -28.5zM606 510q-47 0 -93.5 -13t-97.5 -31q17 -10 38.5 -13.5t44 -3t44.5 5t41 10.5q6 2 19.5 8.5
t22 14t6.5 14t-25 8.5zM313 -101q53 19 103.5 54.5t93 83t73 103t42.5 114.5q5 22 2.5 44.5t-16.5 40.5q-17 20 -42.5 28t-50.5 7q-51 -2 -97 -29t-79 -65q-33 -39 -52 -85.5t-26 -97.5t3 -104.5t46 -93.5z" />
    <glyph glyph-name="Igrave" unicode="&#xcc;" horiz-adv-x="504" 
d="M867 857q-3 1 -12 5t-17.5 9t-14 11.5t-1.5 13.5q8 13 22 -1q16 -18 38.5 -32.5t48.5 -21.5q-17 1 -32.5 5t-31.5 11zM848 796q16 9 27 9t16 -6t2.5 -16.5t-12.5 -23.5q-15 -16 -30.5 -27.5t-33.5 -21t-39 -17.5t-48 -16q-1 -2 -4.5 -6.5t-8 -10.5t-8.5 -11.5t-6 -8.5
q-32 -45 -59 -92t-52 -96q-39 -78 -76.5 -156t-82.5 -153q-14 -24 -32 -54t-40 -61.5t-47.5 -61.5t-54 -54t-60 -39.5t-65.5 -16.5q-22 -1 -43 4.5t-38 19.5q-30 25 -42 62t-10.5 77.5t15 81t33.5 73.5q28 44 68 78.5t88 55.5q36 16 77 25t84 11q4 0 14.5 0.5t22 -1.5
t19.5 -6t6 -13q-3 -15 -20.5 -22t-30.5 -9q4 1 8.5 5.5t6.5 9.5t1.5 10.5t-6.5 8.5q-11 5 -22.5 5.5t-22.5 0.5q-14 -1 -35 -3t-61 -13q-27 -9 -52 -21.5t-47 -30.5q-28 -23 -51 -54t-39 -67.5t-24 -76.5t-6 -80q3 -48 22.5 -77t49 -39t66.5 -1.5t75 36.5q43 32 75 75.5
t58 90.5q47 82 85 167t83 168q40 72 85.5 139t97.5 130q-29 -7 -62.5 -14t-71.5 -18q-51 -14 -103 -35.5t-92 -61.5q-17 -17 -33.5 -41t-13.5 -50q2 -24 20.5 -30.5t41.5 -3t44 11.5t28 13q7 4 13 11.5t7.5 14.5t-4.5 11t-22 3q8 4 17.5 6t17 0.5t11 -6t-1.5 -13.5
q-4 -6 -17 -16.5t-31.5 -20.5t-42 -16t-47.5 -3q-23 2 -33.5 18t-6.5 39q4 25 17.5 47.5t31.5 42t40 34.5t45 26q64 29 133 44.5t137 32.5q7 9 18.5 21.5t25 25.5t28.5 25.5t30 21.5zM855 752q7 6 15.5 16.5t11.5 19.5t-2 12.5t-25 -5.5q-28 -15 -52.5 -39t-48.5 -52
q26 8 51 19t50 29z" />
    <glyph glyph-name="Iacute" unicode="&#xcd;" horiz-adv-x="504" 
d="M920 897q4 -6 1 -11t-8 -9q-22 -14 -47.5 -24t-54.5 -12q24 6 46 20t42 34q5 5 10.5 7t10.5 -5zM848 796q16 9 27 9t16 -6t2.5 -16.5t-12.5 -23.5q-15 -16 -30.5 -27.5t-33.5 -21t-39 -17.5t-48 -16q-1 -2 -4.5 -6.5t-8 -10.5t-8.5 -11.5t-6 -8.5q-32 -45 -59 -92
t-52 -96q-39 -78 -76.5 -156t-82.5 -153q-14 -24 -32 -54t-40 -61.5t-47.5 -61.5t-54 -54t-60 -39.5t-65.5 -16.5q-22 -1 -43 4.5t-38 19.5q-30 25 -42 62t-10.5 77.5t15 81t33.5 73.5q28 44 68 78.5t88 55.5q36 16 77 25t84 11q4 0 14.5 0.5t22 -1.5t19.5 -6t6 -13
q-3 -15 -20.5 -22t-30.5 -9q4 1 8.5 5.5t6.5 9.5t1.5 10.5t-6.5 8.5q-11 5 -22.5 5.5t-22.5 0.5q-14 -1 -35 -3t-61 -13q-27 -9 -52 -21.5t-47 -30.5q-28 -23 -51 -54t-39 -67.5t-24 -76.5t-6 -80q3 -48 22.5 -77t49 -39t66.5 -1.5t75 36.5q43 32 75 75.5t58 90.5
q47 82 85 167t83 168q40 72 85.5 139t97.5 130q-29 -7 -62.5 -14t-71.5 -18q-51 -14 -103 -35.5t-92 -61.5q-17 -17 -33.5 -41t-13.5 -50q2 -24 20.5 -30.5t41.5 -3t44 11.5t28 13q7 4 13 11.5t7.5 14.5t-4.5 11t-22 3q8 4 17.5 6t17 0.5t11 -6t-1.5 -13.5q-4 -6 -17 -16.5
t-31.5 -20.5t-42 -16t-47.5 -3q-23 2 -33.5 18t-6.5 39q4 25 17.5 47.5t31.5 42t40 34.5t45 26q64 29 133 44.5t137 32.5q7 9 18.5 21.5t25 25.5t28.5 25.5t30 21.5zM855 752q7 6 15.5 16.5t11.5 19.5t-2 12.5t-25 -5.5q-28 -15 -52.5 -39t-48.5 -52q26 8 51 19t50 29z" />
    <glyph glyph-name="Icircumflex" unicode="&#xce;" horiz-adv-x="504" 
d="M899 862q7 -14 17 -27.5t25 -19.5q-11 2 -21 8.5t-18 14.5q-7 7 -12.5 13.5t-11.5 13.5q-14 -5 -29 -8.5t-30 -5.5q-17 -2 -32.5 -3t-32.5 1q48 0 95 22q7 3 13.5 6.5t14.5 6.5q9 3 14 -6.5t8 -15.5zM848 796q16 9 27 9t16 -6t2.5 -16.5t-12.5 -23.5q-15 -16 -30.5 -27.5
t-33.5 -21t-39 -17.5t-48 -16q-1 -2 -4.5 -6.5t-8 -10.5t-8.5 -11.5t-6 -8.5q-32 -45 -59 -92t-52 -96q-39 -78 -76.5 -156t-82.5 -153q-14 -24 -32 -54t-40 -61.5t-47.5 -61.5t-54 -54t-60 -39.5t-65.5 -16.5q-22 -1 -43 4.5t-38 19.5q-30 25 -42 62t-10.5 77.5t15 81
t33.5 73.5q28 44 68 78.5t88 55.5q36 16 77 25t84 11q4 0 14.5 0.5t22 -1.5t19.5 -6t6 -13q-3 -15 -20.5 -22t-30.5 -9q4 1 8.5 5.5t6.5 9.5t1.5 10.5t-6.5 8.5q-11 5 -22.5 5.5t-22.5 0.5q-14 -1 -35 -3t-61 -13q-27 -9 -52 -21.5t-47 -30.5q-28 -23 -51 -54t-39 -67.5
t-24 -76.5t-6 -80q3 -48 22.5 -77t49 -39t66.5 -1.5t75 36.5q43 32 75 75.5t58 90.5q47 82 85 167t83 168q40 72 85.5 139t97.5 130q-29 -7 -62.5 -14t-71.5 -18q-51 -14 -103 -35.5t-92 -61.5q-17 -17 -33.5 -41t-13.5 -50q2 -24 20.5 -30.5t41.5 -3t44 11.5t28 13
q7 4 13 11.5t7.5 14.5t-4.5 11t-22 3q8 4 17.5 6t17 0.5t11 -6t-1.5 -13.5q-4 -6 -17 -16.5t-31.5 -20.5t-42 -16t-47.5 -3q-23 2 -33.5 18t-6.5 39q4 25 17.5 47.5t31.5 42t40 34.5t45 26q64 29 133 44.5t137 32.5q7 9 18.5 21.5t25 25.5t28.5 25.5t30 21.5zM855 752
q7 6 15.5 16.5t11.5 19.5t-2 12.5t-25 -5.5q-28 -15 -52.5 -39t-48.5 -52q26 8 51 19t50 29z" />
    <glyph glyph-name="Idieresis" unicode="&#xcf;" horiz-adv-x="504" 
d="M897 872q5 -1 8 -8.5t1.5 -15t-7 -12.5t-17.5 -2q-9 3 -10 9.5t3 13t10.5 11.5t11.5 4zM795 834q-9 3 -10 9.5t3 13t11 11.5t12 4t7.5 -8.5t1 -15t-7 -12.5t-17.5 -2zM848 796q16 9 27 9t16 -6t2.5 -16.5t-12.5 -23.5q-15 -16 -30.5 -27.5t-33.5 -21t-39 -17.5t-48 -16
q-1 -2 -4.5 -6.5t-8 -10.5t-8.5 -11.5t-6 -8.5q-32 -45 -59 -92t-52 -96q-39 -78 -76.5 -156t-82.5 -153q-14 -24 -32 -54t-40 -61.5t-47.5 -61.5t-54 -54t-60 -39.5t-65.5 -16.5q-22 -1 -43 4.5t-38 19.5q-30 25 -42 62t-10.5 77.5t15 81t33.5 73.5q28 44 68 78.5t88 55.5
q36 16 77 25t84 11q4 0 14.5 0.5t22 -1.5t19.5 -6t6 -13q-3 -15 -20.5 -22t-30.5 -9q4 1 8.5 5.5t6.5 9.5t1.5 10.5t-6.5 8.5q-11 5 -22.5 5.5t-22.5 0.5q-14 -1 -35 -3t-61 -13q-27 -9 -52 -21.5t-47 -30.5q-28 -23 -51 -54t-39 -67.5t-24 -76.5t-6 -80q3 -48 22.5 -77
t49 -39t66.5 -1.5t75 36.5q43 32 75 75.5t58 90.5q47 82 85 167t83 168q40 72 85.5 139t97.5 130q-29 -7 -62.5 -14t-71.5 -18q-51 -14 -103 -35.5t-92 -61.5q-17 -17 -33.5 -41t-13.5 -50q2 -24 20.5 -30.5t41.5 -3t44 11.5t28 13q7 4 13 11.5t7.5 14.5t-4.5 11t-22 3
q8 4 17.5 6t17 0.5t11 -6t-1.5 -13.5q-4 -6 -17 -16.5t-31.5 -20.5t-42 -16t-47.5 -3q-23 2 -33.5 18t-6.5 39q4 25 17.5 47.5t31.5 42t40 34.5t45 26q64 29 133 44.5t137 32.5q7 9 18.5 21.5t25 25.5t28.5 25.5t30 21.5zM855 752q7 6 15.5 16.5t11.5 19.5t-2 12.5t-25 -5.5
q-28 -15 -52.5 -39t-48.5 -52q26 8 51 19t50 29z" />
    <glyph glyph-name="Ntilde" unicode="&#xd1;" horiz-adv-x="642" 
d="M1046 826q-14 -7 -24.5 -3t-20 11.5t-19.5 14t-23 4.5q-11 -2 -20.5 -7.5t-18.5 -12.5q16 16 36 25t43 -4q25 -13 44 -12.5t42 17.5q-9 -8 -18 -17.5t-21 -15.5zM1417 664q4 -8 2.5 -14.5t-12.5 -9.5q-13 -3 -27 4t-23 15q6 -3 14 -3.5t14 2.5t8.5 9t-1.5 15
q-5 9 -11.5 17.5t-14.5 16.5q-23 23 -52 37t-61.5 20t-66 3t-65.5 -13q-44 -15 -81.5 -40t-72.5 -54q-57 -50 -107 -107t-95 -118q-64 -88 -118.5 -180t-103.5 -189q-15 -30 -29 -61t-31 -62q0 1 -3.5 2t-3.5 2q4 14 7.5 26.5t7.5 26.5q14 50 25 99t20 100q7 36 13.5 72
t14.5 71q12 54 27.5 107.5t39.5 103.5q-50 -80 -91.5 -165.5t-91.5 -180.5q-26 -49 -53 -96.5t-59 -93.5q-20 -29 -46.5 -61t-58.5 -57.5t-69 -39t-79 -4.5q-26 6 -44 23.5t-27 41.5q-19 49 -10.5 103t30.5 104q24 51 57.5 94t76.5 73.5t95 46t113 12.5q25 -2 37.5 -9.5
t11.5 -16.5t-13.5 -16.5t-36.5 -8.5q4 0 9 3.5t7.5 8.5t2 10.5t-6.5 9.5q-14 8 -31 9t-35 0q-48 -2 -97 -23.5t-86 -57.5q-39 -38 -64 -86t-38 -101q-6 -22 -10 -50t-2 -56.5t12.5 -53t35.5 -38.5q19 -12 41.5 -13t45 6t43.5 19t38 26q37 31 68 70.5t57 83t48.5 89.5
t43.5 91q17 35 33.5 69t33.5 68q21 42 44 85.5t50 84.5t60.5 77.5t75.5 66.5q6 4 15.5 10t18.5 10t16 4t9 -8q1 -8 -6 -15t-13 -11q2 2 4 8t-3 10q-6 4 -17 0t-22.5 -11.5t-21.5 -16.5t-15 -13q-57 -57 -86 -134q-20 -52 -28.5 -107t-15.5 -110q-16 -125 -51 -252
q48 100 102 197t117 189q47 68 101 130.5t121 110.5q34 24 71.5 42.5t77.5 29t81.5 10.5t83.5 -15q25 -9 46 -21.5t36.5 -27t26.5 -28.5t17 -26z" />
    <glyph glyph-name="Oslash" unicode="&#xd8;" 
d="M790 584q11 23 25.5 34t25 9t13 -19t-10.5 -51q-11 -27 -25 -53t-29 -50q-26 -42 -58 -79t-73 -72q-3 -2 -6 -5t-6 -5q-5 -9 -8.5 -18t-7.5 -19q-35 -75 -83 -145.5t-114 -128.5q-27 -25 -61.5 -47.5t-72.5 -38.5t-79 -23t-83 1q-31 5 -55 22t-43 42q-19 -29 -37 -61.5
t-24 -68.5q2 22 9.5 42.5t16.5 39.5q7 14 14.5 27.5t15.5 27.5q-26 44 -32 96.5t-1 102.5q10 109 54.5 214.5t113.5 199.5q68 90 164 150q46 29 98.5 49.5t108.5 20.5q50 0 92 -21.5t75 -63.5q-35 43 -86 64t-114 12q-55 -8 -105 -32.5t-94 -58.5q-45 -35 -81.5 -77.5
t-66.5 -91.5q-58 -99 -91 -206q-17 -55 -27.5 -112.5t-8.5 -115.5q1 -26 4.5 -52t13.5 -50q34 51 71 99.5t76 95.5q17 20 33.5 38.5t33.5 38.5q-13 15 -21 33t-12 38q-12 56 3.5 112.5t43.5 104.5q27 47 64.5 87.5t84.5 69.5q34 21 73 31t75.5 5t66.5 -27.5t46 -66.5
q41 34 89 61.5t99 51.5q-49 -27 -94.5 -58t-90.5 -66q7 -23 9 -47.5t1 -47.5q-3 -57 -17 -112t-34 -109q22 17 41 36.5t37 40.5q26 29 46 60.5t36 67.5q6 16 13 33t7 34q0 8 -5 13t-12 5.5t-13.5 -2t-10.5 -9.5zM254 330q8 -38 28 -66q58 63 119 122t125 116q68 59 142 115
q-3 18 -9.5 35t-17.5 31q-17 21 -39.5 29t-47.5 8t-50 -7t-46 -17q-50 -24 -88 -63t-65 -87q-28 -48 -44.5 -104t-6.5 -112zM336 -76q48 26 89 63.5t75.5 82.5t62 95.5t48.5 101.5q-26 -19 -54.5 -35t-59.5 -27q-30 -11 -62 -17t-64 -1q-52 8 -94 45q-17 -19 -33.5 -37.5
t-33.5 -37.5q-41 -47 -80 -95t-74 -99q11 -23 29 -41t44 -27q49 -17 104 -7t103 36zM643 358q17 56 25 116.5t2 129.5q-34 -27 -66.5 -55.5t-64.5 -57.5q-64 -57 -125 -117.5t-120 -123.5q20 -20 42 -29.5t51 -13.5q20 -3 50.5 1t63.5 14t64 25.5t53 36.5q1 1 4 9.5t5 14.5
q5 12 8.5 24.5t7.5 25.5z" />
    <glyph glyph-name="Ograve" unicode="&#xd2;" 
d="M580 861q-3 1 -12.5 5t-18.5 9.5t-14.5 12.5t-1.5 14q3 8 14 6q7 -2 15 -11.5t22 -20.5t29.5 -19t32.5 -13q-33 3 -66 17zM791 584q6 13 17.5 27t26.5 16q14 1 18 -7.5t2.5 -20.5t-6 -24.5t-6.5 -18.5q-22 -53 -54 -103q-26 -39 -57 -77t-74 -73q-4 -4 -12 -10
q-4 -11 -7.5 -19.5t-8.5 -18.5q-35 -75 -83 -145t-114 -128q-28 -25 -62 -47.5t-72 -38.5t-78.5 -23t-82.5 1q-56 9 -90 54q-33 42 -43 97t-4.5 114.5t22 118t37.5 106.5q21 51 49 100t61 94q34 45 75 82.5t88 67.5q33 20 71 37.5t78.5 26t81 5t78.5 -24.5q38 -22 65 -60
q-35 45 -87 65t-112 11q-54 -8 -104.5 -31.5t-95 -58.5t-82 -79t-65.5 -91t-52 -98.5t-41.5 -107t-26.5 -112.5t-7 -114q1 -27 5.5 -55t15 -52.5t29 -44t46.5 -29.5q24 -8 50.5 -9.5t53.5 3t53 13.5t50 22q49 27 89.5 65t74.5 83t62 93.5t49 101.5q-27 -19 -55.5 -35
t-58.5 -27q-26 -10 -54 -15t-55.5 -3.5t-54.5 10.5t-50 29q-20 17 -33 40.5t-19 49.5q-11 56 4.5 112t43.5 104q27 48 64 88.5t84 68.5q41 25 92 35t99 -9q27 -12 43.5 -33.5t25.5 -47.5t12 -54t2 -54q-2 -57 -16 -112t-35 -109q22 17 41 36.5t37 40.5q13 15 30.5 39
t33.5 51t27 54.5t11 49.5q0 17 -13.5 20.5t-26.5 -12.5zM388 207q32 -4 65.5 2t64.5 18t57.5 27t43.5 30q2 7 4 12.5t4 10.5q5 13 9 25.5t8 25.5q15 52 24 105q4 29 5.5 58t-0.5 58q-2 27 -8.5 54.5t-23.5 49.5q-16 20 -39 28.5t-48 8.5t-50 -7.5t-46 -17.5
q-49 -24 -87.5 -63t-64.5 -86q-28 -48 -44.5 -104.5t-6.5 -112.5q9 -51 45.5 -82.5t87.5 -39.5z" />
    <glyph glyph-name="Oacute" unicode="&#xd3;" 
d="M622 881q-21 -15 -48 -25t-57 -13q25 7 47.5 21.5t43.5 35.5q5 5 11 7t11 -6q4 -6 0.5 -11t-8.5 -9zM791 584q6 13 17.5 27t26.5 16q14 1 18 -7.5t2.5 -20.5t-6 -24.5t-6.5 -18.5q-22 -53 -54 -103q-26 -39 -57 -77t-74 -73q-4 -4 -12 -10q-4 -11 -7.5 -19.5t-8.5 -18.5
q-35 -75 -83 -145t-114 -128q-28 -25 -62 -47.5t-72 -38.5t-78.5 -23t-82.5 1q-56 9 -90 54q-33 42 -43 97t-4.5 114.5t22 118t37.5 106.5q21 51 49 100t61 94q34 45 75 82.5t88 67.5q33 20 71 37.5t78.5 26t81 5t78.5 -24.5q38 -22 65 -60q-35 45 -87 65t-112 11
q-54 -8 -104.5 -31.5t-95 -58.5t-82 -79t-65.5 -91t-52 -98.5t-41.5 -107t-26.5 -112.5t-7 -114q1 -27 5.5 -55t15 -52.5t29 -44t46.5 -29.5q24 -8 50.5 -9.5t53.5 3t53 13.5t50 22q49 27 89.5 65t74.5 83t62 93.5t49 101.5q-27 -19 -55.5 -35t-58.5 -27q-26 -10 -54 -15
t-55.5 -3.5t-54.5 10.5t-50 29q-20 17 -33 40.5t-19 49.5q-11 56 4.5 112t43.5 104q27 48 64 88.5t84 68.5q41 25 92 35t99 -9q27 -12 43.5 -33.5t25.5 -47.5t12 -54t2 -54q-2 -57 -16 -112t-35 -109q22 17 41 36.5t37 40.5q13 15 30.5 39t33.5 51t27 54.5t11 49.5
q0 17 -13.5 20.5t-26.5 -12.5zM388 207q32 -4 65.5 2t64.5 18t57.5 27t43.5 30q2 7 4 12.5t4 10.5q5 13 9 25.5t8 25.5q15 52 24 105q4 29 5.5 58t-0.5 58q-2 27 -8.5 54.5t-23.5 49.5q-16 20 -39 28.5t-48 8.5t-50 -7.5t-46 -17.5q-49 -24 -87.5 -63t-64.5 -86
q-28 -48 -44.5 -104.5t-6.5 -112.5q9 -51 45.5 -82.5t87.5 -39.5z" />
    <glyph glyph-name="Ocircumflex" unicode="&#xd4;" 
d="M562 855q-36 -6 -68 -2q26 0 50 6t49 17q8 3 14.5 6.5t14.5 6.5q6 2 13.5 -7t16 -21.5t18 -25t19.5 -17.5q-20 3 -37 19t-28 33q-15 -6 -30.5 -9.5t-31.5 -5.5zM791 584q6 13 17.5 27t26.5 16q14 1 18 -7.5t2.5 -20.5t-6 -24.5t-6.5 -18.5q-22 -53 -54 -103
q-26 -39 -57 -77t-74 -73q-4 -4 -12 -10q-4 -11 -7.5 -19.5t-8.5 -18.5q-35 -75 -83 -145t-114 -128q-28 -25 -62 -47.5t-72 -38.5t-78.5 -23t-82.5 1q-56 9 -90 54q-33 42 -43 97t-4.5 114.5t22 118t37.5 106.5q21 51 49 100t61 94q34 45 75 82.5t88 67.5q33 20 71 37.5
t78.5 26t81 5t78.5 -24.5q38 -22 65 -60q-35 45 -87 65t-112 11q-54 -8 -104.5 -31.5t-95 -58.5t-82 -79t-65.5 -91t-52 -98.5t-41.5 -107t-26.5 -112.5t-7 -114q1 -27 5.5 -55t15 -52.5t29 -44t46.5 -29.5q24 -8 50.5 -9.5t53.5 3t53 13.5t50 22q49 27 89.5 65t74.5 83
t62 93.5t49 101.5q-27 -19 -55.5 -35t-58.5 -27q-26 -10 -54 -15t-55.5 -3.5t-54.5 10.5t-50 29q-20 17 -33 40.5t-19 49.5q-11 56 4.5 112t43.5 104q27 48 64 88.5t84 68.5q41 25 92 35t99 -9q27 -12 43.5 -33.5t25.5 -47.5t12 -54t2 -54q-2 -57 -16 -112t-35 -109
q22 17 41 36.5t37 40.5q13 15 30.5 39t33.5 51t27 54.5t11 49.5q0 17 -13.5 20.5t-26.5 -12.5zM388 207q32 -4 65.5 2t64.5 18t57.5 27t43.5 30q2 7 4 12.5t4 10.5q5 13 9 25.5t8 25.5q15 52 24 105q4 29 5.5 58t-0.5 58q-2 27 -8.5 54.5t-23.5 49.5q-16 20 -39 28.5
t-48 8.5t-50 -7.5t-46 -17.5q-49 -24 -87.5 -63t-64.5 -86q-28 -48 -44.5 -104.5t-6.5 -112.5q9 -51 45.5 -82.5t87.5 -39.5z" />
    <glyph glyph-name="Otilde" unicode="&#xd5;" 
d="M661 829q-15 -7 -26 -2.5t-21 12t-20.5 14.5t-23.5 4q-11 -2 -21.5 -8t-19.5 -12q8 8 16.5 14.5t18.5 11.5q10 4 19.5 3.5t18 -4.5t17 -9t17.5 -8q17 -5 34 1t31 17q-10 -9 -19 -18.5t-21 -15.5zM791 584q6 13 17.5 27t26.5 16q14 1 18 -7.5t2.5 -20.5t-6 -24.5
t-6.5 -18.5q-22 -53 -54 -103q-26 -39 -57 -77t-74 -73q-4 -4 -12 -10q-4 -11 -7.5 -19.5t-8.5 -18.5q-35 -75 -83 -145t-114 -128q-28 -25 -62 -47.5t-72 -38.5t-78.5 -23t-82.5 1q-56 9 -90 54q-33 42 -43 97t-4.5 114.5t22 118t37.5 106.5q21 51 49 100t61 94
q34 45 75 82.5t88 67.5q33 20 71 37.5t78.5 26t81 5t78.5 -24.5q38 -22 65 -60q-35 45 -87 65t-112 11q-54 -8 -104.5 -31.5t-95 -58.5t-82 -79t-65.5 -91t-52 -98.5t-41.5 -107t-26.5 -112.5t-7 -114q1 -27 5.5 -55t15 -52.5t29 -44t46.5 -29.5q24 -8 50.5 -9.5t53.5 3
t53 13.5t50 22q49 27 89.5 65t74.5 83t62 93.5t49 101.5q-27 -19 -55.5 -35t-58.5 -27q-26 -10 -54 -15t-55.5 -3.5t-54.5 10.5t-50 29q-20 17 -33 40.5t-19 49.5q-11 56 4.5 112t43.5 104q27 48 64 88.5t84 68.5q41 25 92 35t99 -9q27 -12 43.5 -33.5t25.5 -47.5t12 -54
t2 -54q-2 -57 -16 -112t-35 -109q22 17 41 36.5t37 40.5q13 15 30.5 39t33.5 51t27 54.5t11 49.5q0 17 -13.5 20.5t-26.5 -12.5zM388 207q32 -4 65.5 2t64.5 18t57.5 27t43.5 30q2 7 4 12.5t4 10.5q5 13 9 25.5t8 25.5q15 52 24 105q4 29 5.5 58t-0.5 58q-2 27 -8.5 54.5
t-23.5 49.5q-16 20 -39 28.5t-48 8.5t-50 -7.5t-46 -17.5q-49 -24 -87.5 -63t-64.5 -86q-28 -48 -44.5 -104.5t-6.5 -112.5q9 -51 45.5 -82.5t87.5 -39.5z" />
    <glyph glyph-name="Odieresis" unicode="&#xd6;" 
d="M637 836q-10 3 -10.5 10t3.5 14.5t11 12t12 3.5t8 -8.5t1.5 -15.5t-7.5 -13.5t-18 -2.5zM547 836q-10 3 -11 10t3 14.5t11 12t13 3.5q5 -1 8 -8.5t1.5 -15.5t-7.5 -13.5t-18 -2.5zM791 584q6 13 17.5 27t26.5 16q14 1 18 -7.5t2.5 -20.5t-6 -24.5t-6.5 -18.5
q-22 -53 -54 -103q-26 -39 -57 -77t-74 -73q-4 -4 -12 -10q-4 -11 -7.5 -19.5t-8.5 -18.5q-35 -75 -83 -145t-114 -128q-28 -25 -62 -47.5t-72 -38.5t-78.5 -23t-82.5 1q-56 9 -90 54q-33 42 -43 97t-4.5 114.5t22 118t37.5 106.5q21 51 49 100t61 94q34 45 75 82.5t88 67.5
q33 20 71 37.5t78.5 26t81 5t78.5 -24.5q38 -22 65 -60q-35 45 -87 65t-112 11q-54 -8 -104.5 -31.5t-95 -58.5t-82 -79t-65.5 -91t-52 -98.5t-41.5 -107t-26.5 -112.5t-7 -114q1 -27 5.5 -55t15 -52.5t29 -44t46.5 -29.5q24 -8 50.5 -9.5t53.5 3t53 13.5t50 22
q49 27 89.5 65t74.5 83t62 93.5t49 101.5q-27 -19 -55.5 -35t-58.5 -27q-26 -10 -54 -15t-55.5 -3.5t-54.5 10.5t-50 29q-20 17 -33 40.5t-19 49.5q-11 56 4.5 112t43.5 104q27 48 64 88.5t84 68.5q41 25 92 35t99 -9q27 -12 43.5 -33.5t25.5 -47.5t12 -54t2 -54
q-2 -57 -16 -112t-35 -109q22 17 41 36.5t37 40.5q13 15 30.5 39t33.5 51t27 54.5t11 49.5q0 17 -13.5 20.5t-26.5 -12.5zM388 207q32 -4 65.5 2t64.5 18t57.5 27t43.5 30q2 7 4 12.5t4 10.5q5 13 9 25.5t8 25.5q15 52 24 105q4 29 5.5 58t-0.5 58q-2 27 -8.5 54.5
t-23.5 49.5q-16 20 -39 28.5t-48 8.5t-50 -7.5t-46 -17.5q-49 -24 -87.5 -63t-64.5 -86q-28 -48 -44.5 -104.5t-6.5 -112.5q9 -51 45.5 -82.5t87.5 -39.5z" />
    <glyph glyph-name="Ugrave" unicode="&#xd9;" horiz-adv-x="600" 
d="M580 726q-5 4 -10 8.5t0 12.5q3 6 10 5.5t11 -6.5q18 -18 39.5 -32.5t48.5 -22.5q-53 5 -99 35zM1351 700q5 -5 6 -11.5t-6 -11.5q-11 -8 -26 -5t-26 8q4 -1 11 0t13 4t8.5 8t-1.5 11q-10 14 -26.5 23.5t-33.5 16.5q-77 31 -158 28q-54 -3 -104 -19.5t-96.5 -42.5
t-88.5 -59.5t-79 -70.5q-52 -52 -99.5 -113.5t-82.5 -129.5t-52.5 -141t-8.5 -148q6 -52 30.5 -99.5t73.5 -73.5q48 -25 101 -21.5t104.5 22.5t98.5 48.5t82 57.5q0 -3 -9 -10.5t-21 -16t-23 -16t-14 -9.5q-28 -19 -59.5 -36.5t-65 -29.5t-69.5 -17t-72 0q-62 9 -100 45
t-57.5 84.5t-22 104t6.5 105.5q-3 -6 -6.5 -12t-7.5 -12q-41 -68 -91 -131.5t-118 -110.5q-30 -22 -61.5 -28.5t-56 2t-38.5 32.5t-10.5 64.5t28 97.5t78.5 132t102.5 141.5t93.5 132.5q9 13 23.5 36t24.5 48t9 48.5t-23 38.5q-33 21 -78.5 21.5t-87.5 -13.5
q-24 -8 -49 -20.5t-48.5 -29t-44.5 -35t-37 -37.5q-51 -62 -67.5 -105.5t-9.5 -70t32 -37.5t57 -8q34 2 60.5 14.5t40 26.5t11.5 26t-26 14q3 1 12 2t18 -0.5t16 -5.5t7 -12q-1 -14 -13 -27.5t-32 -24.5t-46 -18t-53 -7q-33 0 -56 10t-32 31t-3.5 52.5t29.5 73.5
q23 41 58 79t78 68t91.5 48t99.5 20q19 1 38.5 -1.5t36.5 -9.5q21 -10 31 -25.5t11.5 -34.5t-4.5 -39t-16 -39q-27 -48 -59.5 -91t-65.5 -84t-65.5 -82t-60.5 -84q-43 -66 -62.5 -116t-22.5 -86t8 -58t29 -33t40 -10.5t42 10.5q46 24 83 61.5t67 81.5q30 45 56 92t49 95
q43 90 96.5 171t127.5 155q38 38 79.5 71.5t88.5 60.5q46 27 96 46t104 24q53 4 96.5 -2.5t77 -18.5t56.5 -26.5t35 -26.5z" />
    <glyph glyph-name="Uacute" unicode="&#xda;" horiz-adv-x="600" 
d="M686 747q4 -6 0 -11.5t-11 -10.5t-16 -9.5t-16 -7.5q-33 -14 -66 -17q24 7 47 21t40 34q5 5 11 7t11 -6zM1351 700q5 -5 6 -11.5t-6 -11.5q-11 -8 -26 -5t-26 8q4 -1 11 0t13 4t8.5 8t-1.5 11q-10 14 -26.5 23.5t-33.5 16.5q-77 31 -158 28q-54 -3 -104 -19.5
t-96.5 -42.5t-88.5 -59.5t-79 -70.5q-52 -52 -99.5 -113.5t-82.5 -129.5t-52.5 -141t-8.5 -148q6 -52 30.5 -99.5t73.5 -73.5q48 -25 101 -21.5t104.5 22.5t98.5 48.5t82 57.5q0 -3 -9 -10.5t-21 -16t-23 -16t-14 -9.5q-28 -19 -59.5 -36.5t-65 -29.5t-69.5 -17t-72 0
q-62 9 -100 45t-57.5 84.5t-22 104t6.5 105.5q-3 -6 -6.5 -12t-7.5 -12q-41 -68 -91 -131.5t-118 -110.5q-30 -22 -61.5 -28.5t-56 2t-38.5 32.5t-10.5 64.5t28 97.5t78.5 132t102.5 141.5t93.5 132.5q9 13 23.5 36t24.5 48t9 48.5t-23 38.5q-33 21 -78.5 21.5t-87.5 -13.5
q-24 -8 -49 -20.5t-48.5 -29t-44.5 -35t-37 -37.5q-51 -62 -67.5 -105.5t-9.5 -70t32 -37.5t57 -8q34 2 60.5 14.5t40 26.5t11.5 26t-26 14q3 1 12 2t18 -0.5t16 -5.5t7 -12q-1 -14 -13 -27.5t-32 -24.5t-46 -18t-53 -7q-33 0 -56 10t-32 31t-3.5 52.5t29.5 73.5
q23 41 58 79t78 68t91.5 48t99.5 20q19 1 38.5 -1.5t36.5 -9.5q21 -10 31 -25.5t11.5 -34.5t-4.5 -39t-16 -39q-27 -48 -59.5 -91t-65.5 -84t-65.5 -82t-60.5 -84q-43 -66 -62.5 -116t-22.5 -86t8 -58t29 -33t40 -10.5t42 10.5q46 24 83 61.5t67 81.5q30 45 56 92t49 95
q43 90 96.5 171t127.5 155q38 38 79.5 71.5t88.5 60.5q46 27 96 46t104 24q53 4 96.5 -2.5t77 -18.5t56.5 -26.5t35 -26.5z" />
    <glyph glyph-name="Ucircumflex" unicode="&#xdb;" horiz-adv-x="600" 
d="M583 701q-17 -2 -32.5 -2.5t-32.5 1.5q47 0 94 22q8 3 14.5 6.5t14.5 5.5q6 2 13 -6.5t15 -20.5t17 -24.5t18 -16.5q-20 4 -35 19.5t-27 30.5q-14 -6 -29 -9.5t-30 -5.5zM1351 700q5 -5 6 -11.5t-6 -11.5q-11 -8 -26 -5t-26 8q4 -1 11 0t13 4t8.5 8t-1.5 11
q-10 14 -26.5 23.5t-33.5 16.5q-77 31 -158 28q-54 -3 -104 -19.5t-96.5 -42.5t-88.5 -59.5t-79 -70.5q-52 -52 -99.5 -113.5t-82.5 -129.5t-52.5 -141t-8.5 -148q6 -52 30.5 -99.5t73.5 -73.5q48 -25 101 -21.5t104.5 22.5t98.5 48.5t82 57.5q0 -3 -9 -10.5t-21 -16
t-23 -16t-14 -9.5q-28 -19 -59.5 -36.5t-65 -29.5t-69.5 -17t-72 0q-62 9 -100 45t-57.5 84.5t-22 104t6.5 105.5q-3 -6 -6.5 -12t-7.5 -12q-41 -68 -91 -131.5t-118 -110.5q-30 -22 -61.5 -28.5t-56 2t-38.5 32.5t-10.5 64.5t28 97.5t78.5 132t102.5 141.5t93.5 132.5
q9 13 23.5 36t24.5 48t9 48.5t-23 38.5q-33 21 -78.5 21.5t-87.5 -13.5q-24 -8 -49 -20.5t-48.5 -29t-44.5 -35t-37 -37.5q-51 -62 -67.5 -105.5t-9.5 -70t32 -37.5t57 -8q34 2 60.5 14.5t40 26.5t11.5 26t-26 14q3 1 12 2t18 -0.5t16 -5.5t7 -12q-1 -14 -13 -27.5
t-32 -24.5t-46 -18t-53 -7q-33 0 -56 10t-32 31t-3.5 52.5t29.5 73.5q23 41 58 79t78 68t91.5 48t99.5 20q19 1 38.5 -1.5t36.5 -9.5q21 -10 31 -25.5t11.5 -34.5t-4.5 -39t-16 -39q-27 -48 -59.5 -91t-65.5 -84t-65.5 -82t-60.5 -84q-43 -66 -62.5 -116t-22.5 -86t8 -58
t29 -33t40 -10.5t42 10.5q46 24 83 61.5t67 81.5q30 45 56 92t49 95q43 90 96.5 171t127.5 155q38 38 79.5 71.5t88.5 60.5q46 27 96 46t104 24q53 4 96.5 -2.5t77 -18.5t56.5 -26.5t35 -26.5z" />
    <glyph glyph-name="Udieresis" unicode="&#xdc;" horiz-adv-x="600" 
d="M689 684q-10 3 -10.5 9.5t3.5 13.5t10.5 12t11.5 4q5 -2 8 -9t1.5 -15t-7 -13t-17.5 -2zM602 684q-9 3 -10 9.5t3 13.5t10.5 12t11.5 4q5 -2 8 -9t1.5 -15t-7 -13t-17.5 -2zM1351 700q5 -5 6 -11.5t-6 -11.5q-11 -8 -26 -5t-26 8q4 -1 11 0t13 4t8.5 8t-1.5 11
q-10 14 -26.5 23.5t-33.5 16.5q-77 31 -158 28q-54 -3 -104 -19.5t-96.5 -42.5t-88.5 -59.5t-79 -70.5q-52 -52 -99.5 -113.5t-82.5 -129.5t-52.5 -141t-8.5 -148q6 -52 30.5 -99.5t73.5 -73.5q48 -25 101 -21.5t104.5 22.5t98.5 48.5t82 57.5q0 -3 -9 -10.5t-21 -16
t-23 -16t-14 -9.5q-28 -19 -59.5 -36.5t-65 -29.5t-69.5 -17t-72 0q-62 9 -100 45t-57.5 84.5t-22 104t6.5 105.5q-3 -6 -6.5 -12t-7.5 -12q-41 -68 -91 -131.5t-118 -110.5q-30 -22 -61.5 -28.5t-56 2t-38.5 32.5t-10.5 64.5t28 97.5t78.5 132t102.5 141.5t93.5 132.5
q9 13 23.5 36t24.5 48t9 48.5t-23 38.5q-33 21 -78.5 21.5t-87.5 -13.5q-24 -8 -49 -20.5t-48.5 -29t-44.5 -35t-37 -37.5q-51 -62 -67.5 -105.5t-9.5 -70t32 -37.5t57 -8q34 2 60.5 14.5t40 26.5t11.5 26t-26 14q3 1 12 2t18 -0.5t16 -5.5t7 -12q-1 -14 -13 -27.5
t-32 -24.5t-46 -18t-53 -7q-33 0 -56 10t-32 31t-3.5 52.5t29.5 73.5q23 41 58 79t78 68t91.5 48t99.5 20q19 1 38.5 -1.5t36.5 -9.5q21 -10 31 -25.5t11.5 -34.5t-4.5 -39t-16 -39q-27 -48 -59.5 -91t-65.5 -84t-65.5 -82t-60.5 -84q-43 -66 -62.5 -116t-22.5 -86t8 -58
t29 -33t40 -10.5t42 10.5q46 24 83 61.5t67 81.5q30 45 56 92t49 95q43 90 96.5 171t127.5 155q38 38 79.5 71.5t88.5 60.5q46 27 96 46t104 24q53 4 96.5 -2.5t77 -18.5t56.5 -26.5t35 -26.5z" />
    <glyph glyph-name="oe" unicode="&#x153;" horiz-adv-x="269" 
d="M304 121l2 -7q-5 -9 -17 -28t-29.5 -38t-40 -33.5t-47.5 -14.5q-21 0 -31.5 16t-12.5 39q-6 -8 -13 -15l-15 -15q-20 -18 -40.5 -23t-36 1.5t-21.5 25.5t5 51q20 54 66 93q8 7 20.5 13.5t26 9.5t26 0.5t20.5 -14.5q4 -6 5 -13t1 -15q19 23 42.5 34t41.5 11t27.5 -9.5
t1 -27.5t-39 -43t-91.5 -55q0 -22 7 -31.5t15 -13.5q10 -4 22 -3q18 4 33 15t28.5 26t24.5 32t20 32zM229 189q-26 -11 -40.5 -30t-22.5 -39q-9 -23 -11 -48q51 22 75.5 45.5t30 42t-4 27.5t-27.5 2zM116 59q15 29 23.5 53.5t10.5 34.5q4 29 -4.5 38t-23 5.5t-30 -16
t-24.5 -25.5q-9 -14 -20.5 -38t-17 -47.5t-2 -40.5t23.5 -16q22 2 37.5 18t26.5 34z" />
    <glyph glyph-name="OE" unicode="&#x152;" horiz-adv-x="1265" 
d="M1475 1q1 -1 1.5 -2t1.5 -2q-37 -32 -77 -60.5t-83.5 -51.5t-89.5 -39t-95 -23q-64 -8 -122 5.5t-108 56.5q-29 -11 -65.5 -20t-73.5 -9.5t-70.5 11.5t-57.5 43q-14 19 -20.5 41.5t-7.5 46.5t3 49t10 49q-46 -63 -102 -113q-23 -20 -53 -40.5t-65 -36.5t-72 -26.5
t-72 -9.5t-67 14.5t-57 44.5q-33 42 -42.5 98t-4 115.5t22 117.5t36.5 105q43 102 109.5 191.5t164.5 152.5q47 29 99.5 49.5t108.5 19.5q50 0 92 -21.5t74 -63.5q-35 45 -87 65t-112 11q-56 -8 -106 -32.5t-94 -58.5t-80.5 -76.5t-65.5 -90.5t-52 -100.5t-41 -106.5
q-12 -38 -21.5 -85.5t-12 -96.5t4.5 -95t28.5 -79.5t61 -50t100.5 -7.5q53 7 99 31t86 60t75 80.5t66 93.5q8 17 16.5 34.5t20.5 35.5q5 11 9.5 21.5t9.5 21.5q-32 -23 -73.5 -44t-85.5 -31t-88 -4t-81 38q-33 28 -45.5 66.5t-10 80.5t17 83t34.5 76q19 34 45 66.5t58 59.5
t69.5 45t79.5 23q58 5 100 -20.5t60 -85.5q8 32 29.5 58t50.5 45t62.5 32t65.5 20q31 7 49.5 6t24.5 -5q8 -5 5.5 -11t-10 -11t-16 -9t-12.5 -5q5 0 10.5 8t4.5 13q-2 11 -20.5 12t-42 -4.5t-47 -13.5t-36.5 -15q-20 -10 -39.5 -25.5t-34.5 -35t-23.5 -42.5t-5.5 -48
q2 -19 12.5 -32.5t25 -23t32 -15.5t33.5 -10q7 13 14 30.5t7 37.5q0 9 -4.5 13.5t-10.5 5t-13 -2t-13 -8.5q6 13 18 27t27 16q14 2 18 -6.5t2.5 -21t-6 -25t-6.5 -18.5q-5 -13 -11 -25t-13 -25q14 -2 27 -3t26 -1q-5 20 -0.5 40.5t12.5 38.5q17 36 58 71.5t92 62t104 40.5
t94 8q28 -4 40 -24.5t1 -49.5q-9 -24 -26.5 -44t-37.5 -36q-64 -51 -144.5 -77.5t-164.5 -37.5q2 -5 11.5 -15.5t16.5 -8.5q44 17 91.5 29t98.5 14h10t14 -1t12.5 -3.5t5.5 -8.5q0 -13 -12 -21t-21 -13q-22 -11 -48.5 -18.5t-55 -10.5t-56 0.5t-51.5 14.5l-3 1.5t-3 -0.5
q-23 -11 -44 -21t-44 -26q-45 -27 -85.5 -61.5t-73.5 -75t-57.5 -87t-37.5 -98.5q-11 -42 -11 -81t14.5 -68.5t46 -47.5t84.5 -18q28 1 55.5 6.5t54.5 14.5q-32 35 -44.5 79t-9 90t20.5 92.5t45 87.5t64.5 73t77.5 50q22 10 49 17t53.5 7.5t50.5 -8.5t41 -31
q15 -19 18.5 -41.5t0 -46.5t-12 -47.5t-18.5 -43.5q-22 -48 -55 -88t-72 -74q-41 -35 -86.5 -63.5t-95.5 -49.5q38 -38 90 -51.5t104 -9.5q54 4 105 21t99 42q42 21 79.5 47.5t72.5 57.5zM1160 505q-70 -12 -137 -39q2 -1 3.5 -1.5t3.5 -1.5q36 -13 79 -12t82 14
q11 4 23.5 9t20.5 14q13 13 4 17.5t-26 4.5t-34 -2.5t-19 -2.5zM981 532q-1 -7 -0.5 -14.5t2.5 -14.5q43 1 94.5 15.5t100.5 39.5t91 58t66 70q14 23 10.5 45t-36.5 27q-29 5 -63 -1.5t-68.5 -21.5t-67 -37.5t-59.5 -49t-45.5 -56.5t-24.5 -60zM962 493q-15 0 -29 -1t-34 2
q-23 -36 -46.5 -71.5t-56.5 -70.5q43 35 92 62t100 47q-8 5 -16 14t-10 18zM890 496q-29 5 -57 17t-45 38v-24q-2 -57 -16.5 -112t-34.5 -109q47 36 85.5 84.5t67.5 105.5zM473 208q18 -2 46 0t60 10.5t65 24.5t60 42q8 8 15.5 31.5t14.5 51.5t12 55t7 41q4 24 6.5 53t1 59
t-9 58t-24.5 50q-17 20 -39.5 28.5t-47.5 8.5t-50 -7.5t-46 -17.5q-44 -22 -84.5 -62t-70 -90t-43.5 -105.5t-5 -108.5q9 -49 45 -82t87 -40zM950 280q-9 -11 -23.5 -33.5t-28 -52.5t-23 -66t-9.5 -74.5t12 -78t42 -76.5q56 23 107 58.5t93 81.5t71.5 100.5t41.5 114.5
q6 27 0.5 49.5t-20 38.5t-37 24.5t-50.5 7.5q-26 -1 -50.5 -8.5t-47 -20t-42.5 -29.5t-36 -36z" />
    <glyph glyph-name="fraction" unicode="&#x2044;" horiz-adv-x="422" 
d="M519 743q-27 -41 -52.5 -82.5t-50.5 -83.5q-28 -48 -55.5 -96t-54.5 -96q-27 -49 -54 -97.5t-54 -98.5q-13 -23 -25.5 -47t-24.5 -48q-11 -22 -22 -43t-19 -44q-1 -2 -1.5 -4t-1.5 -4q5 22 12 42.5t15 40.5q10 25 21 49.5t22 48.5q23 51 48.5 100t52.5 98q28 49 56.5 97
t59.5 95q27 42 56.5 83.5t62.5 79.5q2 2 4.5 5t4.5 5z" />
    <glyph glyph-name="hyphen" unicode="-" horiz-adv-x="409" 
d="M334 120q-30 -3 -60.5 -4.5t-61.5 -3.5q-29 -2 -57 -4.5t-56 -12.5q25 17 55 26t61 11t61.5 -1.5t57.5 -10.5z" />
    <glyph glyph-name="bracketleft" unicode="[" horiz-adv-x="7" 
d="M598 -234q61 -2 143.5 8.5t184.5 52.5q-57 -26 -116 -43.5t-122 -25.5q-64 -7 -128 -3.5t-129 13t-131 23t-133 26.5q-135 27 -269.5 49.5t-271.5 36.5q-66 8 -132 14t-133 4q-60 -2 -121.5 -5.5t-120.5 -20.5q-35 -12 -70.5 -27.5t-64.5 -42.5q-47 -43 -58 -78t5.5 -54
t55.5 -18.5t92 28.5q6 3 12.5 9.5t9 13.5t-1.5 12t-19 6q8 4 21 5.5t22 -1.5q10 -4 11 -10q1 -8 -7.5 -17t-20.5 -17t-24.5 -14.5t-19.5 -9.5q-5 -2 -23.5 -8t-40.5 -8t-44 3t-34 26q-7 12 -7 25t4.5 26t12 25t15.5 22q23 31 55.5 53.5t71.5 39.5q75 32 156 44.5t169 12.5
q60 0 127.5 -5t135 -13.5t132.5 -18.5t119.5 -19.5t97 -18t64.5 -12.5q64 -13 128.5 -28t130 -27.5t132 -21.5t134.5 -11z" />
    <glyph glyph-name="bracketright" unicode="]" horiz-adv-x="5" 
d="M598 -234q61 -2 143.5 8.5t184.5 52.5q-57 -26 -116 -43.5t-122 -25.5q-65 -7 -129.5 -3.5t-129.5 13.5q-66 10 -131 23t-131 26q-135 27 -269.5 49.5t-271.5 36.5q-66 8 -132 14t-133 4q-60 -2 -121.5 -5.5t-120.5 -20.5q-42 -14 -80 -32.5t-76 -50.5l27 24q19 15 39 26
t43 22q76 32 156 44.5t169 12.5q60 0 127.5 -5t135 -13.5t132.5 -18.5t119.5 -19.5t97 -18t64.5 -12.5q64 -13 128.5 -28t130 -27.5t132 -21.5t134.5 -11z" />
    <glyph glyph-name="agrave" unicode="&#xe0;" horiz-adv-x="213" 
d="M254 116q-5 -8 -18.5 -27t-30.5 -39t-35.5 -35.5t-32.5 -15.5q-12 0 -15.5 13t4.5 47l9 30q-9 -21 -26 -39.5t-35 -31t-35 -17t-27 2.5t-10 28t16 60q7 16 18.5 32.5t25 30.5t28 24.5t28.5 15.5t30.5 3t24.5 -17q10 16 18 17.5t12.5 -4.5t5.5 -15.5t-2 -15.5q0 5 -1 8
q-2 7 -10 0q-11 -9 -19 -27t-14 -36t-9.5 -32.5t-4.5 -17.5q-6 -22 -2 -30.5t14 -5.5q11 3 24 15t26 27.5t24 31t17 26.5zM147 124q19 40 10 57t-31 12t-49 -33t-45 -79q-12 -35 -2.5 -50t29 -10t44.5 30.5t44 72.5zM148 248l-11 5.5t-18 10t-15 11.5t-2 10q5 6 9.5 2
t8.5 -7q17 -16 38 -28.5t47 -18.5q-30 3 -57 15z" />
    <glyph glyph-name="aacute" unicode="&#xe1;" horiz-adv-x="213" 
d="M254 116q-5 -8 -18.5 -27t-30.5 -39t-35.5 -35.5t-32.5 -15.5q-12 0 -15.5 13t4.5 47l9 30q-9 -21 -26 -39.5t-35 -31t-35 -17t-27 2.5t-10 28t16 60q7 16 18.5 32.5t25 30.5t28 24.5t28.5 15.5t30.5 3t24.5 -17q10 16 18 17.5t12.5 -4.5t5.5 -15.5t-2 -15.5q0 5 -1 8
q-2 7 -10 0q-11 -9 -19 -27t-14 -36t-9.5 -32.5t-4.5 -17.5q-6 -22 -2 -30.5t14 -5.5q11 3 24 15t26 27.5t24 31t17 26.5zM147 124q19 40 10 57t-31 12t-49 -33t-45 -79q-12 -35 -2.5 -50t29 -10t44.5 30.5t44 72.5zM222 286q6 -8 -6.5 -16.5t-31.5 -16.5t-38.5 -13.5
t-26.5 -6.5q22 5 43.5 16.5t38.5 28.5q4 3 10 8.5t11 -0.5z" />
    <glyph glyph-name="acircumflex" unicode="&#xe2;" horiz-adv-x="213" 
d="M254 116q-5 -8 -18.5 -27t-30.5 -39t-35.5 -35.5t-32.5 -15.5q-12 0 -15.5 13t4.5 47l9 30q-9 -21 -26 -39.5t-35 -31t-35 -17t-27 2.5t-10 28t16 60q7 16 18.5 32.5t25 30.5t28 24.5t28.5 15.5t30.5 3t24.5 -17q10 16 18 17.5t12.5 -4.5t5.5 -15.5t-2 -15.5q0 5 -1 8
q-2 7 -10 0q-11 -9 -19 -27t-14 -36t-9.5 -32.5t-4.5 -17.5q-6 -22 -2 -30.5t14 -5.5q11 3 24 15t26 27.5t24 31t17 26.5zM147 124q19 40 10 57t-31 12t-49 -33t-45 -79q-12 -35 -2.5 -50t29 -10t44.5 30.5t44 72.5zM223 229q-16 0 -29.5 14t-23.5 25q-20 -14 -44.5 -23.5
t-49.5 -11.5q27 6 47.5 20.5t43.5 31.5q5 3 11.5 -4.5t13.5 -17.5t14.5 -20.5t16.5 -13.5z" />
    <glyph glyph-name="atilde" unicode="&#xe3;" horiz-adv-x="213" 
d="M254 116q-5 -8 -18.5 -27t-30.5 -39t-35.5 -35.5t-32.5 -15.5q-12 0 -15.5 13t4.5 47l9 30q-9 -21 -26 -39.5t-35 -31t-35 -17t-27 2.5t-10 28t16 60q7 16 18.5 32.5t25 30.5t28 24.5t28.5 15.5t30.5 3t24.5 -17q10 16 18 17.5t12.5 -4.5t5.5 -15.5t-2 -15.5q0 5 -1 8
q-2 7 -10 0q-11 -9 -19 -27t-14 -36t-9.5 -32.5t-4.5 -17.5q-6 -22 -2 -30.5t14 -5.5q11 3 24 15t26 27.5t24 31t17 26.5zM147 124q19 40 10 57t-31 12t-49 -33t-45 -79q-12 -35 -2.5 -50t29 -10t44.5 30.5t44 72.5zM170 246l-21 14t-18 7.5t-19.5 -2.5t-26.5 -16
q8 8 15.5 14t18.5 11q10 4 18.5 3.5t16.5 -4.5t16.5 -8.5t17.5 -7.5q16 -5 32 1t30 16q-8 -8 -17 -16t-19 -13.5t-21 -6t-23 7.5z" />
    <glyph glyph-name="adieresis" unicode="&#xe4;" horiz-adv-x="213" 
d="M254 116q-5 -8 -18.5 -27t-30.5 -39t-35.5 -35.5t-32.5 -15.5q-12 0 -15.5 13t4.5 47l9 30q-9 -21 -26 -39.5t-35 -31t-35 -17t-27 2.5t-10 28t16 60q7 16 18.5 32.5t25 30.5t28 24.5t28.5 15.5t30.5 3t24.5 -17q10 16 18 17.5t12.5 -4.5t5.5 -15.5t-2 -15.5q0 5 -1 8
q-2 7 -10 0q-11 -9 -19 -27t-14 -36t-9.5 -32.5t-4.5 -17.5q-6 -22 -2 -30.5t14 -5.5q11 3 24 15t26 27.5t24 31t17 26.5zM147 124q19 40 10 57t-31 12t-49 -33t-45 -79q-12 -35 -2.5 -50t29 -10t44.5 30.5t44 72.5zM187 237q-7 2 -7.5 7t2 9.5t7.5 8t8 2.5q4 -1 6 -6
t1 -10.5t-5 -9t-12 -1.5zM124 237q-7 2 -7.5 7t2.5 9.5t7.5 8t8.5 2.5t5.5 -6t1 -10.5t-5 -9t-12.5 -1.5z" />
    <glyph glyph-name="aring" unicode="&#xe5;" horiz-adv-x="213" 
d="M254 116q-5 -8 -18.5 -27t-30.5 -39t-35.5 -35.5t-32.5 -15.5q-12 0 -15.5 13t4.5 47l9 30q-9 -21 -26 -39.5t-35 -31t-35 -17t-27 2.5t-10 28t16 60q7 16 18.5 32.5t25 30.5t28 24.5t28.5 15.5t30.5 3t24.5 -17q10 16 18 17.5t12.5 -4.5t5.5 -15.5t-2 -15.5q0 5 -1 8
q-2 7 -10 0q-11 -9 -19 -27t-14 -36t-9.5 -32.5t-4.5 -17.5q-6 -22 -2 -30.5t14 -5.5q11 3 24 15t26 27.5t24 31t17 26.5zM147 124q19 40 10 57t-31 12t-49 -33t-45 -79q-12 -35 -2.5 -50t29 -10t44.5 30.5t44 72.5zM140 222q-9 7 -6 20t13 26t23 21.5t24 5.5
q11 -4 8.5 -18.5t-12 -29t-24 -24t-26.5 -1.5zM169 285q-10 -8 -15 -20t-5 -21.5t4.5 -14.5t13.5 1q15 9 20.5 21t4 21.5t-8 14t-14.5 -1.5z" />
    <glyph glyph-name="ae" unicode="&#xe6;" horiz-adv-x="268" 
d="M305 122l1 -8q-2 -3 -14 -21.5t-30 -38.5t-41.5 -36.5t-48.5 -16.5h-5q-9 0 -17.5 6.5t-13.5 19t-5 32t9 46.5q-7 -22 -23.5 -43t-36 -36.5t-38.5 -23t-30.5 -1.5t-12 28t16.5 64q7 16 18.5 32.5t25 30.5t28 24.5t28.5 15.5q23 10 42 -1t18 -37q19 22 41.5 32t40.5 9.5
t26.5 -10.5t-0.5 -27.5t-39.5 -42t-90.5 -54.5q0 -22 7 -32t15 -14q10 -4 22 -3q18 5 33.5 16.5t28.5 26t24 31.5t21 32zM229 190q-34 -14 -52.5 -47t-21.5 -71q51 22 75.5 45.5t30 42t-4 28t-27.5 2.5zM30 81q-12 -35 -2.5 -50t29 -9.5t44.5 31t44 72.5q15 40 6.5 57
t-29 11t-46.5 -34t-46 -78z" />
    <glyph glyph-name="ccedilla" unicode="&#xe7;" horiz-adv-x="154" 
d="M189 111q-2 -3 -11 -17.5t-23.5 -31.5t-33.5 -34t-41 -24q6 -10 -2.5 -22.5t-14.5 -20.5q28 1 33 -12t-4 -30t-27.5 -33.5t-38.5 -21.5q13 8 28 21t22.5 26.5t2.5 25t-32 17.5q4 4 10 9.5t11.5 12.5t8 14t0.5 14q-27 -8 -41 1t-18.5 27t-0.5 41t13 43q13 29 35.5 47.5
t43.5 27.5q6 2 16 4.5t20 2.5t17 -4.5t6 -16.5q-2 -17 -15.5 -30t-24.5 -22l9 21t7.5 26.5t-4.5 19t-26 -2.5q-21 -9 -40.5 -34.5t-27.5 -54.5q-7 -24 -6 -40.5t6.5 -26t14.5 -13.5t19 -2q18 4 34 15t29.5 26t25.5 31.5t21 31.5z" />
    <glyph glyph-name="egrave" unicode="&#xe8;" horiz-adv-x="147" 
d="M183 111q-3 -3 -14 -21t-29 -38t-41 -36t-49 -16h-5q-9 1 -18 7.5t-14.5 20.5t-4 35.5t15.5 52.5q11 25 34 48t51 31q21 6 39.5 0t17.5 -23.5t-30 -44.5t-103 -63q-1 -22 6.5 -31.5t15.5 -12.5q10 -4 22 -2q15 3 30.5 14.5t29.5 26.5t26 31.5t21 31.5zM110 191
q-26 -11 -41.5 -30.5t-23 -39.5t-10 -34.5l-2.5 -14.5q51 22 76 46t31 42.5t-3 28t-27 2.5zM111 248l-11 5.5t-18 10t-15 11.5t-2 10q5 6 9.5 2t8.5 -7q18 -16 39 -29t46 -18q-30 3 -57 15z" />
    <glyph glyph-name="eacute" unicode="&#xe9;" horiz-adv-x="147" 
d="M183 111q-3 -3 -14 -21t-29 -38t-41 -36t-49 -16h-5q-9 1 -18 7.5t-14.5 20.5t-4 35.5t15.5 52.5q11 25 34 48t51 31q21 6 39.5 0t17.5 -23.5t-30 -44.5t-103 -63q-1 -22 6.5 -31.5t15.5 -12.5q10 -4 22 -2q15 3 30.5 14.5t29.5 26.5t26 31.5t21 31.5zM110 191
q-26 -11 -41.5 -30.5t-23 -39.5t-10 -34.5l-2.5 -14.5q51 22 76 46t31 42.5t-3 28t-27 2.5zM163 286q4 -5 -1 -10.5t-13 -10.5t-17 -9.5l-13 -6.5q-14 -6 -28.5 -10t-30.5 -6q23 5 43.5 16.5t39.5 28.5q4 3 9.5 8.5t10.5 -0.5z" />
    <glyph glyph-name="ecircumflex" unicode="&#xea;" horiz-adv-x="147" 
d="M183 111q-3 -3 -14 -21t-29 -38t-41 -36t-49 -16h-5q-9 1 -18 7.5t-14.5 20.5t-4 35.5t15.5 52.5q11 25 34 48t51 31q21 6 39.5 0t17.5 -23.5t-30 -44.5t-103 -63q-1 -22 6.5 -31.5t15.5 -12.5q10 -4 22 -2q15 3 30.5 14.5t29.5 26.5t26 31.5t21 31.5zM110 191
q-26 -11 -41.5 -30.5t-23 -39.5t-10 -34.5l-2.5 -14.5q51 22 76 46t31 42.5t-3 28t-27 2.5zM177 229q-15 0 -28 13t-24 26q-20 -14 -45 -23.5t-49 -11.5q27 6 47 20.5t43 31.5q6 3 12 -4.5t13 -17.5t14.5 -20.5t16.5 -13.5z" />
    <glyph glyph-name="edieresis" unicode="&#xeb;" horiz-adv-x="147" 
d="M183 111q-3 -3 -14 -21t-29 -38t-41 -36t-49 -16h-5q-9 1 -18 7.5t-14.5 20.5t-4 35.5t15.5 52.5q11 25 34 48t51 31q21 6 39.5 0t17.5 -23.5t-30 -44.5t-103 -63q-1 -22 6.5 -31.5t15.5 -12.5q10 -4 22 -2q15 3 30.5 14.5t29.5 26.5t26 31.5t21 31.5zM110 191
q-26 -11 -41.5 -30.5t-23 -39.5t-10 -34.5l-2.5 -14.5q51 22 76 46t31 42.5t-3 28t-27 2.5zM140 237q-7 2 -7.5 7t2.5 9.5t8 8t8 2.5q4 -1 5.5 -6t1 -10.5t-5 -9t-12.5 -1.5zM78 237q-7 2 -7.5 7t2.5 9.5t7.5 8t8.5 2.5t5.5 -6t1 -10.5t-5 -9t-12.5 -1.5z" />
    <glyph glyph-name="igrave" unicode="&#xec;" horiz-adv-x="97" 
d="M130 122v-9q-8 -14 -22 -32t-31 -36q-36 -41 -61 -44q-11 -1 -14 13t4 47q2 11 7 28q5 14 12.5 35.5t21.5 50.5q12 22 20.5 25.5t13.5 -2t6.5 -16.5t-1.5 -17q-1 4 -2 7q-2 2 -3.5 3t-5.5 -2q-11 -9 -19 -27t-14 -36.5t-9.5 -33t-3.5 -16.5q-4 -23 0 -28.5t14 -2.5
q12 4 24.5 15.5t24.5 25t22 27.5t16 25zM74 248l-11 5.5t-18 10t-15 11.5t-2 10q5 6 9.5 2t8.5 -7q18 -16 38.5 -28.5t46.5 -18.5q-30 3 -57 15z" />
    <glyph glyph-name="iacute" unicode="&#xed;" horiz-adv-x="97" 
d="M130 122v-9q-8 -14 -22 -32t-31 -36q-36 -41 -61 -44q-11 -1 -14 13t4 47q2 11 7 28q5 14 12.5 35.5t21.5 50.5q12 22 20.5 25.5t13.5 -2t6.5 -16.5t-1.5 -17q-1 4 -2 7q-2 2 -3.5 3t-5.5 -2q-11 -9 -19 -27t-14 -36.5t-9.5 -33t-3.5 -16.5q-4 -23 0 -28.5t14 -2.5
q12 4 24.5 15.5t24.5 25t22 27.5t16 25zM137 286q4 -5 -1 -10.5t-13 -10.5t-17 -9.5l-13 -6.5q-14 -6 -28.5 -10t-30.5 -6q23 5 43.5 16.5t39.5 28.5q4 3 9.5 8.5t10.5 -0.5z" />
    <glyph glyph-name="icircumflex" unicode="&#xee;" horiz-adv-x="97" 
d="M130 122v-9q-8 -14 -22 -32t-31 -36q-36 -41 -61 -44q-11 -1 -14 13t4 47q2 11 7 28q5 14 12.5 35.5t21.5 50.5q12 22 20.5 25.5t13.5 -2t6.5 -16.5t-1.5 -17q-1 4 -2 7q-2 2 -3.5 3t-5.5 -2q-11 -9 -19 -27t-14 -36.5t-9.5 -33t-3.5 -16.5q-4 -23 0 -28.5t14 -2.5
q12 4 24.5 15.5t24.5 25t22 27.5t16 25zM146 229q-15 0 -29 13.5t-23 25.5q-20 -14 -44.5 -23.5t-49.5 -11.5q27 6 47 20.5t43 31.5q6 3 12 -4.5t13 -17.5t14.5 -20.5t16.5 -13.5z" />
    <glyph glyph-name="idieresis" unicode="&#xef;" horiz-adv-x="97" 
d="M130 122v-9q-8 -14 -22 -32t-31 -36q-36 -41 -61 -44q-11 -1 -14 13t4 47q2 11 7 28q5 14 12.5 35.5t21.5 50.5q12 22 20.5 25.5t13.5 -2t6.5 -16.5t-1.5 -17q-1 4 -2 7q-2 2 -3.5 3t-5.5 -2q-11 -9 -19 -27t-14 -36.5t-9.5 -33t-3.5 -16.5q-4 -23 0 -28.5t14 -2.5
q12 4 24.5 15.5t24.5 25t22 27.5t16 25zM116 237q-7 2 -7.5 7t2.5 9.5t7.5 8t8.5 2.5t5.5 -6t1 -10.5t-5 -9t-12.5 -1.5zM54 237q-7 2 -7.5 7t2.5 9.5t7.5 8t8.5 2.5q3 -1 5 -6t1 -10.5t-5 -9t-12 -1.5z" />
    <glyph glyph-name="ntilde" unicode="&#xf1;" horiz-adv-x="205" 
d="M238 111q-7 -11 -19 -28.5t-27 -35t-31 -31t-30 -16.5q-15 -3 -20 6.5t-3 24.5q3 16 11.5 40.5t16.5 47.5t11 41t-6 22q-6 1 -19.5 -6.5t-28 -18.5t-26.5 -22t-15 -15q-6 -10 -14 -28.5t-15.5 -38t-14 -35t-9.5 -18.5q-4 -5 -1.5 7.5t8 33.5t13.5 46t16 45q2 6 5.5 13.5
t5.5 13.5q3 7 5 15q2 5 -0.5 7t-5.5 1q-4 -1 -9 -4q23 19 31 18t7.5 -11t-6 -24.5t-9.5 -23.5q4 6 19 18t33 23t34.5 17t22.5 0q7 -7 5.5 -22t-6.5 -34t-12.5 -40.5t-13.5 -42.5q-6 -24 -2 -31t13 -3t22 17t25.5 28t23.5 30.5t16 24.5zM157 246q-14 9 -23 15t-17.5 7
t-18.5 -3.5t-26 -15.5q16 16 35.5 25t43.5 -5q23 -12 43 -12t43 17q-9 -7 -18 -15.5t-18.5 -14t-20.5 -6t-23 7.5z" />
    <glyph glyph-name="ograve" unicode="&#xf2;" horiz-adv-x="163" 
d="M201 127q2 3 4 1t0 -4q-7 -11 -13.5 -21t-14.5 -17.5t-19.5 -13.5t-27.5 -10q-17 -22 -39 -41t-54 -21q-22 -2 -31 9.5t-9 28.5t5.5 36t11.5 32q20 38 55 67q8 7 21 14t26.5 10.5t26 0.5t19.5 -16q6 -11 5.5 -26t-5.5 -31t-12.5 -30.5t-14.5 -25.5q11 3 19 7t15.5 10
t15 16t16.5 25zM146 147q5 31 -6.5 40t-30.5 1q-14 -6 -25.5 -26t-15 -41.5t5.5 -38.5t37 -17h4q13 24 21 48t10 34zM48 7q22 2 37.5 18t26.5 34q-20 0 -31.5 7.5t-17 20.5t-5 29t5.5 33q-8 -11 -18.5 -34.5t-16.5 -47.5t-3.5 -42.5t22.5 -17.5zM122 248l-11 5.5t-18 10
t-15 11.5t-2 10q5 6 10 2t8 -7q17 -16 38 -28.5t47 -18.5q-30 3 -57 15z" />
    <glyph glyph-name="oacute" unicode="&#xf3;" horiz-adv-x="163" 
d="M201 127q2 3 4 1t0 -4q-7 -11 -13.5 -21t-14.5 -17.5t-19.5 -13.5t-27.5 -10q-17 -22 -39 -41t-54 -21q-22 -2 -31 9.5t-9 28.5t5.5 36t11.5 32q20 38 55 67q8 7 21 14t26.5 10.5t26 0.5t19.5 -16q6 -11 5.5 -26t-5.5 -31t-12.5 -30.5t-14.5 -25.5q11 3 19 7t15.5 10
t15 16t16.5 25zM146 147q5 31 -6.5 40t-30.5 1q-14 -6 -25.5 -26t-15 -41.5t5.5 -38.5t37 -17h4q13 24 21 48t10 34zM48 7q22 2 37.5 18t26.5 34q-20 0 -31.5 7.5t-17 20.5t-5 29t5.5 33q-8 -11 -18.5 -34.5t-16.5 -47.5t-3.5 -42.5t22.5 -17.5zM200 286q4 -5 -1 -10.5
t-13 -10.5t-17 -9.5l-13 -6.5q-14 -6 -28.5 -10t-30.5 -6q23 5 43.5 16.5t39.5 28.5q4 3 9.5 8.5t10.5 -0.5z" />
    <glyph glyph-name="ocircumflex" unicode="&#xf4;" horiz-adv-x="163" 
d="M201 127q2 3 4 1t0 -4q-7 -11 -13.5 -21t-14.5 -17.5t-19.5 -13.5t-27.5 -10q-17 -22 -39 -41t-54 -21q-22 -2 -31 9.5t-9 28.5t5.5 36t11.5 32q20 38 55 67q8 7 21 14t26.5 10.5t26 0.5t19.5 -16q6 -11 5.5 -26t-5.5 -31t-12.5 -30.5t-14.5 -25.5q11 3 19 7t15.5 10
t15 16t16.5 25zM146 147q5 31 -6.5 40t-30.5 1q-14 -6 -25.5 -26t-15 -41.5t5.5 -38.5t37 -17h4q13 24 21 48t10 34zM48 7q22 2 37.5 18t26.5 34q-20 0 -31.5 7.5t-17 20.5t-5 29t5.5 33q-8 -11 -18.5 -34.5t-16.5 -47.5t-3.5 -42.5t22.5 -17.5zM210 229q-16 0 -29.5 14
t-23.5 25q-20 -14 -44.5 -23.5t-49.5 -11.5q27 6 47.5 20.5t43.5 31.5q4 3 10.5 -4.5t14 -17.5t15.5 -20.5t16 -13.5z" />
    <glyph glyph-name="otilde" unicode="&#xf5;" horiz-adv-x="163" 
d="M201 127q2 3 4 1t0 -4q-7 -11 -13.5 -21t-14.5 -17.5t-19.5 -13.5t-27.5 -10q-17 -22 -39 -41t-54 -21q-22 -2 -31 9.5t-9 28.5t5.5 36t11.5 32q20 38 55 67q8 7 21 14t26.5 10.5t26 0.5t19.5 -16q6 -11 5.5 -26t-5.5 -31t-12.5 -30.5t-14.5 -25.5q11 3 19 7t15.5 10
t15 16t16.5 25zM146 147q5 31 -6.5 40t-30.5 1q-14 -6 -25.5 -26t-15 -41.5t5.5 -38.5t37 -17h4q13 24 21 48t10 34zM48 7q22 2 37.5 18t26.5 34q-20 0 -31.5 7.5t-17 20.5t-5 29t5.5 33q-8 -11 -18.5 -34.5t-16.5 -47.5t-3.5 -42.5t22.5 -17.5zM173 257q16 -5 32 1t30 16
q-9 -8 -18 -17.5t-21 -14.5q-14 -8 -24.5 -4t-20 11.5t-19.5 14.5t-23 5q-11 -2 -20.5 -8t-18.5 -12q15 15 26.5 21t22.5 5.5t24 -6t30 -12.5z" />
    <glyph glyph-name="odieresis" unicode="&#xf6;" horiz-adv-x="163" 
d="M201 127q2 3 4 1t0 -4q-7 -11 -13.5 -21t-14.5 -17.5t-19.5 -13.5t-27.5 -10q-17 -22 -39 -41t-54 -21q-22 -2 -31 9.5t-9 28.5t5.5 36t11.5 32q20 38 55 67q8 7 21 14t26.5 10.5t26 0.5t19.5 -16q6 -11 5.5 -26t-5.5 -31t-12.5 -30.5t-14.5 -25.5q11 3 19 7t15.5 10
t15 16t16.5 25zM146 147q5 31 -6.5 40t-30.5 1q-14 -6 -25.5 -26t-15 -41.5t5.5 -38.5t37 -17h4q13 24 21 48t10 34zM48 7q22 2 37.5 18t26.5 34q-20 0 -31.5 7.5t-17 20.5t-5 29t5.5 33q-8 -11 -18.5 -34.5t-16.5 -47.5t-3.5 -42.5t22.5 -17.5zM175 237q-7 2 -7.5 7
t2.5 9.5t7.5 8t8.5 2.5t5.5 -6t1 -10.5t-5 -9t-12.5 -1.5zM113 237q-7 2 -7.5 7t2 9.5t7.5 8t8 2.5q4 -1 5.5 -6t1 -10.5t-4.5 -9t-12 -1.5z" />
    <glyph glyph-name="oslash" unicode="&#xf8;" horiz-adv-x="163" 
d="M216 180q-9 2 -22.5 0.5t-22.5 -9.5q4 -13 1 -28t-7 -27q-8 -23 -23.5 -44.5t-40.5 -46.5q-9 -8 -22.5 -15.5t-27.5 -9.5t-26.5 2t-20.5 19q-6 -8 -13 -21q0 -1 -1 -1q-2 0 -1 1q6 13 14 25q-6 21 5 55q9 26 26 50t40 43q7 5 19.5 12t26 10.5t27 1t21.5 -16.5
q4 1 10.5 3.5t14 3t14 -0.5t9.5 -6zM114 188q-17 -6 -30 -20t-23 -31t-16.5 -36t-10.5 -35q16 23 38 44t46 41q15 12 33 21q-3 15 -12.5 18t-24.5 -2zM54 7q20 1 36.5 16t29 36.5t20.5 45.5t11 42q1 5 1 13q-34 -22 -64 -48.5t-57 -57.5q-4 -20 0.5 -34t22.5 -13z" />
    <glyph glyph-name="ugrave" unicode="&#xf9;" horiz-adv-x="207" 
d="M241 111q-8 -14 -22 -32t-31 -36q-17 -19 -33.5 -32.5t-27.5 -11.5q-11 -1 -15 12.5t4 47.5l3 12q3 12 12 36q-11 -14 -27 -34t-33 -37.5t-34 -28.5t-30 -8q-14 4 -13.5 21t7.5 38t17 41.5t15 31.5t12.5 25t8.5 19t-1.5 6.5t-5.5 0.5q-4 -1 -9 -3q22 18 31 18t9.5 -9.5
t-5 -24t-10.5 -24.5q-24 -48 -34.5 -79.5t0.5 -40.5q5 -5 20 7t32 30.5t33 38t23 29.5q5 11 9.5 23.5t11.5 26.5q11 22 19.5 25.5t14 -2.5t7 -17t-1.5 -17q-1 4 -2 7q-2 2 -3.5 3t-5.5 -2q-11 -9 -19 -27t-14 -36.5t-9.5 -33t-4.5 -16.5q-10 -43 12 -36q11 3 20 12.5
t17 17.5q15 16 30.5 36t23.5 34zM115 248l-11 5.5t-18 10t-15 11.5t-2 10q5 6 9.5 2t8.5 -7q17 -16 38 -28.5t47 -18.5q-30 3 -57 15z" />
    <glyph glyph-name="uacute" unicode="&#xfa;" horiz-adv-x="207" 
d="M241 111q-8 -14 -22 -32t-31 -36q-17 -19 -33.5 -32.5t-27.5 -11.5q-11 -1 -15 12.5t4 47.5l3 12q3 12 12 36q-11 -14 -27 -34t-33 -37.5t-34 -28.5t-30 -8q-14 4 -13.5 21t7.5 38t17 41.5t15 31.5t12.5 25t8.5 19t-1.5 6.5t-5.5 0.5q-4 -1 -9 -3q22 18 31 18t9.5 -9.5
t-5 -24t-10.5 -24.5q-24 -48 -34.5 -79.5t0.5 -40.5q5 -5 20 7t32 30.5t33 38t23 29.5q5 11 9.5 23.5t11.5 26.5q11 22 19.5 25.5t14 -2.5t7 -17t-1.5 -17q-1 4 -2 7q-2 2 -3.5 3t-5.5 -2q-11 -9 -19 -27t-14 -36.5t-9.5 -33t-4.5 -16.5q-10 -43 12 -36q11 3 20 12.5
t17 17.5q15 16 30.5 36t23.5 34zM198 286q4 -5 -1 -11t-13.5 -11t-17.5 -9.5t-12 -5.5q-31 -13 -59 -16q22 5 43.5 16.5t38.5 28.5q4 3 10 8.5t11 -0.5z" />
    <glyph glyph-name="ucircumflex" unicode="&#xfb;" horiz-adv-x="207" 
d="M241 111q-8 -14 -22 -32t-31 -36q-17 -19 -33.5 -32.5t-27.5 -11.5q-11 -1 -15 12.5t4 47.5l3 12q3 12 12 36q-11 -14 -27 -34t-33 -37.5t-34 -28.5t-30 -8q-14 4 -13.5 21t7.5 38t17 41.5t15 31.5t12.5 25t8.5 19t-1.5 6.5t-5.5 0.5q-4 -1 -9 -3q22 18 31 18t9.5 -9.5
t-5 -24t-10.5 -24.5q-24 -48 -34.5 -79.5t0.5 -40.5q5 -5 20 7t32 30.5t33 38t23 29.5q5 11 9.5 23.5t11.5 26.5q11 22 19.5 25.5t14 -2.5t7 -17t-1.5 -17q-1 4 -2 7q-2 2 -3.5 3t-5.5 -2q-11 -9 -19 -27t-14 -36.5t-9.5 -33t-4.5 -16.5q-10 -43 12 -36q11 3 20 12.5
t17 17.5q15 16 30.5 36t23.5 34zM197 229q-16 0 -29.5 14t-23.5 25q-20 -14 -44.5 -23.5t-48.5 -11.5q27 6 47 20.5t43 31.5q5 3 11.5 -4.5t13.5 -17.5t14.5 -20.5t16.5 -13.5z" />
    <glyph glyph-name="udieresis" unicode="&#xfc;" horiz-adv-x="207" 
d="M241 111q-8 -14 -22 -32t-31 -36q-17 -19 -33.5 -32.5t-27.5 -11.5q-11 -1 -15 12.5t4 47.5l3 12q3 12 12 36q-11 -14 -27 -34t-33 -37.5t-34 -28.5t-30 -8q-14 4 -13.5 21t7.5 38t17 41.5t15 31.5t12.5 25t8.5 19t-1.5 6.5t-5.5 0.5q-4 -1 -9 -3q22 18 31 18t9.5 -9.5
t-5 -24t-10.5 -24.5q-24 -48 -34.5 -79.5t0.5 -40.5q5 -5 20 7t32 30.5t33 38t23 29.5q5 11 9.5 23.5t11.5 26.5q11 22 19.5 25.5t14 -2.5t7 -17t-1.5 -17q-1 4 -2 7q-2 2 -3.5 3t-5.5 -2q-11 -9 -19 -27t-14 -36.5t-9.5 -33t-4.5 -16.5q-10 -43 12 -36q11 3 20 12.5
t17 17.5q15 16 30.5 36t23.5 34zM169 237q-7 2 -7.5 7t2.5 9.5t7.5 8t8.5 2.5q3 -1 5 -6t1 -10.5t-5 -9t-12 -1.5zM106 237q-7 2 -7.5 7t2.5 9.5t7.5 8t8.5 2.5t5.5 -6t1 -10.5t-5 -9t-12.5 -1.5z" />
    <glyph glyph-name="quoteright" unicode="&#x2019;" horiz-adv-x="202" 
d="M187 399q22 23 36 50t20 56q2 8 6.5 15t13.5 1q6 -3 4 -13t-7.5 -21t-12 -20.5t-8.5 -13.5q-20 -30 -52 -54z" />
    </font>
</defs>
</svg>
